<svg width="24" height="24" viewBox="0 0 24 24" fill="none" xmlns="http://www.w3.org/2000/svg">
<g clip-path="url(#clip0_301_215)">
<path fill-rule="evenodd" clip-rule="evenodd" d="M24 16.7843C24 12.7992 20.7694 9.56863 16.7843 9.56863H14.4314V4.86275H21.5686C22.9114 4.86275 24 3.77412 24 2.43137C24 1.08863 22.9114 0 21.5686 0H14.4314H9.56863H7.21569C3.23059 0 0 3.23059 0 7.21569V14.4314V19.1373V24H16.7843C20.7694 24 24 20.7694 24 16.7843ZM4.86275 9.56863V7.21569C4.86275 5.91608 5.91608 4.86275 7.21569 4.86275C8.51529 4.86275 9.56863 5.91608 9.56863 7.21569V9.56863H4.86275ZM4.86275 19.1373V14.4314H9.56863V19.1373H4.86275ZM16.7843 19.1373H14.4314V14.4314H16.7843C18.0839 14.4314 19.1373 15.4847 19.1373 16.7843C19.1373 18.0839 18.0839 19.1373 16.7843 19.1373Z" fill="url(#paint0_linear_301_215)"/>
<path fill-rule="evenodd" clip-rule="evenodd" d="M24 16.7843C24 12.7992 20.7694 9.56863 16.7843 9.56863H14.4314V4.86275H21.5686C22.9114 4.86275 24 3.77412 24 2.43137C24 1.08863 22.9114 0 21.5686 0H14.4314H9.56863H7.21569C3.23059 0 0 3.23059 0 7.21569V14.4314V19.1373V24H16.7843C20.7694 24 24 20.7694 24 16.7843ZM4.86275 9.56863V7.21569C4.86275 5.91608 5.91608 4.86275 7.21569 4.86275C8.51529 4.86275 9.56863 5.91608 9.56863 7.21569V9.56863H4.86275ZM4.86275 19.1373V14.4314H9.56863V19.1373H4.86275ZM16.7843 19.1373H14.4314V14.4314H16.7843C18.0839 14.4314 19.1373 15.4847 19.1373 16.7843C19.1373 18.0839 18.0839 19.1373 16.7843 19.1373Z" fill="black" fill-opacity="0.2"/>
<path fill-rule="evenodd" clip-rule="evenodd" d="M24 16.7843C24 12.7992 20.7694 9.56863 16.7843 9.56863H14.4314V7.21569C14.4314 3.23059 11.2008 0 7.21569 0C3.23059 0 0 3.23059 0 7.21569V14.4314V19.1373V24H4.86275H14.4314H16.7843C20.7694 24 24 20.7694 24 16.7843ZM4.86275 9.56863V7.21569C4.86275 5.91608 5.91608 4.86275 7.21569 4.86275C8.51529 4.86275 9.56863 5.91608 9.56863 7.21569V9.56863H4.86275ZM4.86275 19.1373V14.4314H9.56863V19.1373H4.86275ZM16.7843 19.1373H14.4314V14.4314H16.7843C18.0839 14.4314 19.1373 15.4847 19.1373 16.7843C19.1373 18.0839 18.0839 19.1373 16.7843 19.1373Z" fill="url(#paint1_linear_301_215)"/>
</g>
<defs>
<linearGradient id="paint0_linear_301_215" x1="12.7451" y1="1.21219e-07" x2="12.7451" y2="24" gradientUnits="userSpaceOnUse">
<stop stop-color="#C677EB"/>
<stop offset="1" stop-color="#7A63D8"/>
</linearGradient>
<linearGradient id="paint1_linear_301_215" x1="12.7451" y1="1.21219e-07" x2="12.7451" y2="24" gradientUnits="userSpaceOnUse">
<stop stop-color="#C677EB"/>
<stop offset="1" stop-color="#7A63D8"/>
</linearGradient>
<clipPath id="clip0_301_215">
<rect width="24" height="24" fill="white"/>
</clipPath>
</defs>
</svg>
