<svg width="48" height="48" viewBox="0 0 48 48" fill="none" xmlns="http://www.w3.org/2000/svg">
<rect width="48" height="48" rx="14" fill="white"/>
<path fill-rule="evenodd" clip-rule="evenodd" d="M18 10.0349C14.6868 10.0349 12 12.8251 12 16.2676C12 19.7093 14.6868 22.4995 18 22.4995H29.9992C33.314 22.4995 36 19.7093 36 16.2676C36 12.8251 33.314 10.0349 29.9992 10.0349H18Z" fill="#FF3D5D"/>
<path fill-rule="evenodd" clip-rule="evenodd" d="M18 25.4995C14.6868 25.4995 12 28.2897 12 31.7322C12 35.1747 14.6868 37.9649 18 37.9649H20.9996C24.3136 37.9649 27.0004 35.1747 27.0004 31.7322C27.0004 28.2897 24.3136 25.4995 20.9996 25.4995H18Z" fill="#A45DFF"/>
</svg>
