<svg width="48" height="48" viewBox="0 0 48 48" fill="none" xmlns="http://www.w3.org/2000/svg">
<rect width="48" height="48" rx="14" fill="white"/>
<path d="M21.0765 20.3812C21.3771 20.3812 21.6101 20.4489 21.7754 20.5766C21.9558 20.7044 22.0385 20.8848 22.0385 21.1027C22.0385 21.1704 22.0235 21.2756 21.9934 21.4409C21.783 22.1474 21.302 22.5006 20.5504 22.5006H19.1525L17.3487 28.438C17.266 28.6785 17.2285 28.9265 17.2285 29.182C17.2285 29.4676 17.3111 29.6706 17.469 29.7833C17.6268 29.896 17.8523 29.9486 18.1454 29.9486C18.4009 29.9486 18.7241 29.9186 19.1074 29.8509C19.3028 29.8058 19.4681 29.7758 19.6109 29.7758C19.7237 29.7758 19.8063 29.8134 19.8514 29.896C19.9191 29.9637 19.9491 30.0463 19.9491 30.1591C19.9642 30.4823 19.7237 30.8731 19.2276 31.339C18.7466 31.79 18.0928 32.1808 17.2585 32.519C16.4243 32.8422 15.4999 33 14.4928 33C13.403 33 12.5312 32.752 11.8698 32.2559C11.2084 31.7599 10.8853 31.076 10.8853 30.2117C10.8853 29.8134 10.9529 29.4225 11.0807 29.0543L12.6214 24.2894C12.704 24.0188 12.7416 23.8008 12.7416 23.643C12.7416 23.3198 12.6589 23.0493 12.5011 22.8238C12.3583 22.5983 12.1479 22.3653 11.8773 22.1248C11.6368 21.8994 11.4715 21.719 11.3738 21.5687C11.2761 21.4109 11.2535 21.223 11.2986 21.0125C11.3663 20.8021 11.5015 20.6443 11.7045 20.5315C11.9149 20.4188 12.2381 20.3662 12.689 20.3662H14.0343L15.5525 18.848C16.0786 18.3219 16.5596 17.9537 16.9955 17.7432C17.4464 17.5328 18.0251 17.4276 18.7241 17.4276C19.7312 17.4276 20.2422 17.8109 20.2422 18.585C20.2422 18.8255 20.2122 19.0509 20.1445 19.2614L19.8063 20.3662H21.084L21.0765 20.3812ZM35.4013 29.4752C35.3713 29.5428 35.3562 29.633 35.3562 29.7608C35.3562 29.8735 35.3788 29.9637 35.4314 30.0238C35.499 30.0914 35.5742 30.1215 35.6719 30.1215C35.8673 30.1215 36.0251 30.0388 36.1529 29.881C36.2957 29.7081 36.3934 29.618 36.4385 29.618C36.5212 29.618 36.5813 29.6706 36.6339 29.7833C36.679 29.881 36.7091 30.0013 36.7091 30.144C36.7241 30.61 36.5738 31.0685 36.2506 31.5119C35.9274 31.9478 35.4539 32.3086 34.8301 32.5942C34.2214 32.8647 33.4848 33 32.6205 33C31.5608 33 30.7191 32.7595 30.0953 32.2785C29.4715 31.7825 29.1483 31.1211 29.1333 30.3094C29.1333 29.7157 29.2761 29.0543 29.5692 28.3102L30.8919 24.8455C30.9746 24.6351 31.0122 24.4697 31.0122 24.342C31.0122 24.1315 30.937 23.9737 30.7942 23.861C30.6665 23.7332 30.5086 23.6656 30.3132 23.6656C30.0126 23.6656 29.6969 23.8083 29.3738 24.1015C29.0731 24.372 28.8176 24.823 28.6297 25.4468V25.4017L27.1116 30.2868C27.0665 30.4823 27.0364 30.6476 27.0364 30.7904C27.0364 31.0008 27.074 31.1662 27.1567 31.2939C27.2393 31.4067 27.3521 31.5194 27.4949 31.6321C27.6076 31.7449 27.6903 31.8426 27.7354 31.9177C27.7805 31.9854 27.788 32.0681 27.7579 32.1808C27.6752 32.3912 27.5174 32.5415 27.2769 32.6392C27.0364 32.737 26.6681 32.782 26.1721 32.782H20.6857C20.2723 32.782 19.9642 32.7144 19.7688 32.5866C19.5734 32.4438 19.5132 32.2559 19.5734 32.0305C19.641 31.8351 19.8063 31.6697 20.0769 31.5269C20.3174 31.3992 20.5203 31.2488 20.6782 31.0685C20.836 30.8956 20.9788 30.61 21.084 30.2267L24.7366 18.2242C24.7817 18.0814 24.8118 17.9612 24.8118 17.8635C24.8118 17.6906 24.7667 17.5403 24.669 17.4276C24.5863 17.3148 24.4736 17.2021 24.3308 17.0894C24.1729 16.9616 24.0527 16.8489 23.97 16.7511C23.9024 16.6534 23.8949 16.5257 23.9475 16.3678C24.0452 15.9996 24.5487 15.6764 25.4656 15.4058C26.3825 15.1353 27.337 15 28.3291 15C29.261 15 29.9374 15.1729 30.3734 15.5261C30.8243 15.8793 31.0498 16.3603 31.0498 16.9691C31.0498 17.3223 30.9896 17.6681 30.8844 18.0063L29.5842 22.2376C30.208 21.4184 30.8694 20.8472 31.5533 20.5315C32.2598 20.2084 33.0189 20.0505 33.8381 20.0505C34.8151 20.0505 35.6042 20.3436 36.198 20.9374C36.8068 21.5311 37.1149 22.2977 37.1149 23.2447C37.1149 23.7407 37.0322 24.2292 36.8744 24.7102L35.4088 29.4451L35.4013 29.4752Z" fill="#333333"/>
</svg>
