<svg width="268" height="48" viewBox="0 0 268 48" fill="none" xmlns="http://www.w3.org/2000/svg">
<path d="M18.7626 12.688C21.024 12.688 22.7626 13.1787 23.9786 14.16C25.216 15.1413 25.8347 16.4427 25.8347 18.064C25.8347 18.704 25.7387 19.376 25.5466 20.08C24.9493 22.2133 23.7653 23.792 21.9946 24.816C20.2453 25.84 18.0266 26.352 15.3386 26.352H12.0426L10.9546 30.224C10.912 30.352 10.8906 30.5227 10.8906 30.736C10.8906 31.0347 10.9546 31.28 11.0826 31.472C11.232 31.664 11.4453 31.888 11.7226 32.144C11.9573 32.3573 12.1173 32.5173 12.2026 32.624C12.288 32.7307 12.3306 32.8587 12.3306 33.008C12.3306 33.3707 12.16 33.6267 11.8186 33.776C11.4773 33.9253 10.976 34 10.3146 34H2.28265C1.72798 34 1.31198 33.904 1.03465 33.712C0.757315 33.4987 0.661315 33.2107 0.746648 32.848C0.789315 32.656 0.874648 32.5067 1.00265 32.4C1.10932 32.272 1.27998 32.1333 1.51465 31.984C1.87732 31.7707 2.16532 31.5467 2.37865 31.312C2.59198 31.0773 2.76265 30.7147 2.89065 30.224L6.79465 16.432C6.87998 16.1547 6.92265 15.888 6.92265 15.632C6.92265 15.3973 6.87998 15.2053 6.79465 15.056C6.73065 14.8853 6.63465 14.6933 6.50665 14.48C6.31465 14.2027 6.21865 13.9787 6.21865 13.808C6.21865 13.744 6.23998 13.6267 6.28265 13.456C6.36798 13.1787 6.54932 12.9867 6.82665 12.88C7.12532 12.752 7.57332 12.688 8.17065 12.688H18.7626ZM17.9306 19.504C18.1653 18.7147 18.2826 18.0213 18.2826 17.424C18.2826 16.1867 17.7066 15.568 16.5546 15.568H15.1146L12.8426 23.472H14.2506C15.1466 23.472 15.872 23.1947 16.4266 22.64C17.0026 22.064 17.504 21.0187 17.9306 19.504ZM35.7424 17.072C38.6437 17.072 40.7771 17.6587 42.1424 18.832C43.5291 20.0053 44.2224 21.5413 44.2224 23.44C44.2224 24.08 44.1371 24.7947 43.9664 25.584C43.5611 27.3333 42.8037 28.8693 41.6944 30.192C40.5851 31.4933 39.2197 32.5067 37.5984 33.232C35.9984 33.936 34.2597 34.288 32.3824 34.288C29.4171 34.288 27.2197 33.7013 25.7904 32.528C24.3824 31.3333 23.6784 29.7547 23.6784 27.792C23.6784 27.1307 23.7637 26.3947 23.9344 25.584C24.3397 23.92 25.1077 22.448 26.2384 21.168C27.3904 19.8667 28.7877 18.864 30.4304 18.16C32.0944 17.4347 33.8651 17.072 35.7424 17.072ZM35.6464 19.92C35.1984 19.92 34.7184 20.3253 34.2064 21.136C33.7157 21.9253 33.1291 23.4293 32.4464 25.648C31.7637 27.8667 31.4224 29.424 31.4224 30.32C31.4224 30.7893 31.4971 31.1093 31.6464 31.28C31.7957 31.4293 31.9984 31.504 32.2544 31.504C32.7024 31.5467 33.1611 31.1627 33.6304 30.352C34.1211 29.5413 34.7291 27.9627 35.4544 25.616C36.1157 23.5467 36.4464 22.0427 36.4464 21.104C36.4464 20.656 36.3717 20.3467 36.2224 20.176C36.0944 20.0053 35.9024 19.92 35.6464 19.92ZM60.0704 17.072C61.2651 17.072 62.2144 17.4347 62.9184 18.16C63.6437 18.8853 64.0064 19.7813 64.0064 20.848C64.0064 21.2533 63.9637 21.6267 63.8784 21.968C63.6651 22.8427 63.2597 23.5147 62.6624 23.984C62.0651 24.4533 61.3504 24.688 60.5184 24.688C59.7077 24.688 59.0891 24.496 58.6624 24.112C58.2571 23.728 57.8944 23.216 57.5744 22.576C57.4037 22.2133 57.2437 21.9467 57.0944 21.776C56.9451 21.6053 56.7744 21.52 56.5824 21.52C56.3691 21.52 56.1771 21.6053 56.0064 21.776C55.8571 21.9467 55.7184 22.2453 55.5904 22.672L53.1264 30.672C53.0837 30.7787 53.0624 30.9387 53.0624 31.152C53.0624 31.4293 53.1371 31.664 53.2864 31.856C53.4571 32.0267 53.6811 32.1973 53.9584 32.368C54.2144 32.5387 54.3851 32.6773 54.4704 32.784C54.5557 32.8907 54.5877 33.0293 54.5664 33.2C54.5237 33.4773 54.3637 33.68 54.0864 33.808C53.8304 33.936 53.3824 34 52.7424 34H44.5504C43.9957 34 43.6011 33.9147 43.3664 33.744C43.1104 33.552 43.0144 33.3067 43.0784 33.008C43.1637 32.752 43.3877 32.528 43.7504 32.336C44.0704 32.1653 44.3371 31.9627 44.5504 31.728C44.7637 31.4933 44.9451 31.12 45.0944 30.608L47.9424 21.36C47.9851 21.2533 48.0064 21.104 48.0064 20.912C48.0064 20.6773 47.9531 20.496 47.8464 20.368C47.7611 20.24 47.6117 20.08 47.3984 19.888C47.1851 19.7173 47.0357 19.568 46.9504 19.44C46.8651 19.312 46.8544 19.1413 46.9184 18.928C47.0464 18.4373 47.7184 18.0107 48.9344 17.648C50.1504 17.264 51.4197 17.072 52.7424 17.072C53.6171 17.072 54.3424 17.2747 54.9184 17.68C55.4944 18.064 55.8677 18.6187 56.0384 19.344C57.0624 17.8293 58.4064 17.072 60.0704 17.072ZM77.1936 17.488C77.599 17.488 77.9083 17.5733 78.1216 17.744C78.3563 17.9147 78.4736 18.1493 78.4736 18.448C78.4736 18.5333 78.4523 18.6827 78.4096 18.896C78.1323 19.8347 77.4923 20.304 76.4896 20.304H74.6336L72.2336 28.208C72.127 28.528 72.0736 28.8587 72.0736 29.2C72.0736 29.584 72.1803 29.8507 72.3936 30C72.607 30.1493 72.9056 30.224 73.2896 30.224C73.631 30.224 74.0576 30.1813 74.5696 30.096C74.8256 30.032 75.0496 30 75.2416 30C75.391 30 75.4976 30.0533 75.5616 30.16C75.647 30.2453 75.6896 30.3627 75.6896 30.512C75.711 30.9387 75.391 31.4613 74.7296 32.08C74.0896 32.6773 73.215 33.2 72.1056 33.648C70.9963 34.0747 69.7696 34.288 68.4256 34.288C66.975 34.288 65.8123 33.9573 64.9376 33.296C64.063 32.6347 63.6256 31.728 63.6256 30.576C63.6256 30.0427 63.711 29.5307 63.8816 29.04L65.9296 22.704C66.0363 22.3413 66.0896 22.0533 66.0896 21.84C66.0896 21.4133 65.983 21.0507 65.7696 20.752C65.5776 20.4533 65.3003 20.144 64.9376 19.824C64.6176 19.5253 64.3936 19.28 64.2656 19.088C64.1376 18.8747 64.1056 18.6293 64.1696 18.352C64.255 18.0747 64.4363 17.8613 64.7136 17.712C64.991 17.5627 65.4283 17.488 66.0256 17.488H67.8176L69.8336 15.472C70.5376 14.768 71.1776 14.2773 71.7536 14C72.351 13.7227 73.119 13.584 74.0576 13.584C75.4016 13.584 76.0736 14.096 76.0736 15.12C76.0736 15.44 76.031 15.7387 75.9456 16.016L75.4976 17.488H77.1936ZM89.6956 10.352C91.9783 10.352 93.685 10.704 94.8156 11.408C95.9676 12.0907 96.5436 12.9333 96.5436 13.936C96.5436 14.7467 96.2023 15.376 95.5196 15.824C94.8583 16.2507 93.9836 16.464 92.8956 16.464C91.893 16.464 91.1143 16.2187 90.5596 15.728C90.005 15.2373 89.7276 14.6293 89.7276 13.904C89.7276 13.456 89.8663 12.9867 90.1436 12.496C89.5036 12.496 88.9703 12.656 88.5436 12.976C88.117 13.2747 87.7863 13.7973 87.5516 14.544C87.4236 15.0133 87.3596 15.4507 87.3596 15.856C87.3596 16.368 87.445 16.7733 87.6156 17.072C87.8076 17.3493 88.0743 17.488 88.4156 17.488H90.3036C91.413 17.488 91.9676 17.8293 91.9676 18.512C91.9676 18.5973 91.9463 18.7253 91.9036 18.896C91.7756 19.3653 91.509 19.7173 91.1036 19.952C90.7196 20.1867 90.133 20.304 89.3436 20.304H88.3836L85.2156 30.672C85.1516 30.928 85.1196 31.152 85.1196 31.344C85.1196 31.6213 85.173 31.8453 85.2796 32.016C85.3863 32.1653 85.5356 32.3147 85.7276 32.464C85.877 32.6133 85.9836 32.7413 86.0476 32.848C86.1116 32.9333 86.1223 33.0507 86.0796 33.2C85.973 33.4773 85.7596 33.68 85.4396 33.808C85.1196 33.936 84.629 34 83.9676 34H76.6716C76.117 34 75.7116 33.9147 75.4556 33.744C75.1996 33.552 75.1143 33.3067 75.1996 33.008C75.285 32.752 75.509 32.528 75.8716 32.336C76.1916 32.1653 76.4583 31.9627 76.6716 31.728C76.885 31.4933 77.0663 31.12 77.2156 30.608L79.7116 22.416C79.8183 22.096 79.8716 21.7653 79.8716 21.424C79.8716 20.9973 79.7756 20.6667 79.5836 20.432C79.413 20.176 79.1463 19.8987 78.7836 19.6C78.549 19.408 78.3676 19.248 78.2396 19.12C78.133 18.9707 78.0796 18.8 78.0796 18.608C78.0583 18.2027 78.197 17.9147 78.4956 17.744C78.8156 17.5733 79.413 17.488 80.2876 17.488H81.0876C80.9383 16.9547 80.8636 16.4213 80.8636 15.888C80.8636 15.3547 80.9596 14.8 81.1516 14.224C81.557 13.136 82.421 12.2187 83.7436 11.472C85.0876 10.7253 87.0716 10.352 89.6956 10.352ZM102.336 17.072C105.237 17.072 107.371 17.6587 108.736 18.832C110.123 20.0053 110.816 21.5413 110.816 23.44C110.816 24.08 110.731 24.7947 110.56 25.584C110.155 27.3333 109.397 28.8693 108.288 30.192C107.179 31.4933 105.813 32.5067 104.192 33.232C102.592 33.936 100.853 34.288 98.9761 34.288C96.0108 34.288 93.8135 33.7013 92.3841 32.528C90.9761 31.3333 90.2721 29.7547 90.2721 27.792C90.2721 27.1307 90.3575 26.3947 90.5281 25.584C90.9335 23.92 91.7015 22.448 92.8321 21.168C93.9841 19.8667 95.3815 18.864 97.0241 18.16C98.6881 17.4347 100.459 17.072 102.336 17.072ZM102.24 19.92C101.792 19.92 101.312 20.3253 100.8 21.136C100.309 21.9253 99.7228 23.4293 99.0401 25.648C98.3575 27.8667 98.0161 29.424 98.0161 30.32C98.0161 30.7893 98.0908 31.1093 98.2401 31.28C98.3895 31.4293 98.5921 31.504 98.8481 31.504C99.2961 31.5467 99.7548 31.1627 100.224 30.352C100.715 29.5413 101.323 27.9627 102.048 25.616C102.709 23.5467 103.04 22.0427 103.04 21.104C103.04 20.656 102.965 20.3467 102.816 20.176C102.688 20.0053 102.496 19.92 102.24 19.92ZM120.535 10.352C121.772 10.352 122.679 10.5867 123.255 11.056C123.852 11.5253 124.151 12.1653 124.151 12.976C124.151 13.4453 124.076 13.904 123.927 14.352L118.903 30.672C118.839 30.928 118.807 31.152 118.807 31.344C118.807 31.6213 118.86 31.8453 118.967 32.016C119.074 32.1653 119.223 32.3147 119.415 32.464C119.564 32.6133 119.671 32.7413 119.735 32.848C119.799 32.9333 119.81 33.0507 119.767 33.2C119.66 33.4773 119.447 33.68 119.127 33.808C118.807 33.936 118.316 34 117.655 34H110.359C109.804 34 109.399 33.9147 109.143 33.744C108.887 33.552 108.802 33.3067 108.887 33.008C108.972 32.752 109.196 32.528 109.559 32.336C109.879 32.1653 110.146 31.9627 110.359 31.728C110.572 31.4933 110.754 31.12 110.903 30.608L115.767 14.64C115.831 14.448 115.863 14.288 115.863 14.16C115.863 13.9253 115.799 13.7333 115.671 13.584C115.564 13.4347 115.415 13.2853 115.223 13.136C115.01 12.9653 114.85 12.816 114.743 12.688C114.658 12.56 114.647 12.3893 114.711 12.176C114.839 11.6853 115.511 11.2587 116.727 10.896C117.943 10.5333 119.212 10.352 120.535 10.352ZM130.462 17.072C131.699 17.072 132.606 17.3067 133.182 17.776C133.758 18.2453 134.046 18.8853 134.046 19.696C134.046 20.1867 133.971 20.656 133.822 21.104L130.878 30.672C130.814 30.928 130.782 31.152 130.782 31.344C130.782 31.6213 130.835 31.8453 130.942 32.016C131.049 32.1653 131.198 32.3147 131.39 32.464C131.539 32.6133 131.646 32.7413 131.71 32.848C131.774 32.9333 131.785 33.0507 131.742 33.2C131.635 33.4773 131.422 33.68 131.102 33.808C130.782 33.936 130.291 34 129.63 34H122.334C121.779 34 121.374 33.9147 121.118 33.744C120.862 33.552 120.777 33.3067 120.862 33.008C120.947 32.752 121.171 32.528 121.534 32.336C121.854 32.1653 122.121 31.9627 122.334 31.728C122.547 31.4933 122.729 31.12 122.878 30.608L125.662 21.36C125.726 21.168 125.758 21.008 125.758 20.88C125.758 20.6453 125.705 20.464 125.598 20.336C125.491 20.1867 125.331 20.0373 125.118 19.888C124.905 19.7173 124.755 19.568 124.67 19.44C124.585 19.312 124.574 19.1413 124.638 18.928C124.766 18.4373 125.438 18.0107 126.654 17.648C127.87 17.264 129.139 17.072 130.462 17.072ZM132.606 10C133.438 10 134.131 10.2773 134.686 10.832C135.241 11.3653 135.518 12.0267 135.518 12.816C135.518 13.3707 135.369 13.9147 135.07 14.448C134.793 14.9813 134.387 15.4187 133.854 15.76C133.342 16.08 132.766 16.24 132.126 16.24C131.315 16.24 130.633 15.9733 130.078 15.44C129.545 14.8853 129.267 14.2027 129.246 13.392C129.246 12.8587 129.385 12.336 129.662 11.824C129.939 11.2907 130.334 10.8533 130.846 10.512C131.358 10.1707 131.945 10 132.606 10ZM146.149 17.072C149.05 17.072 151.183 17.6587 152.549 18.832C153.935 20.0053 154.629 21.5413 154.629 23.44C154.629 24.08 154.543 24.7947 154.373 25.584C153.967 27.3333 153.21 28.8693 152.101 30.192C150.991 31.4933 149.626 32.5067 148.005 33.232C146.405 33.936 144.666 34.288 142.789 34.288C139.823 34.288 137.626 33.7013 136.197 32.528C134.789 31.3333 134.085 29.7547 134.085 27.792C134.085 27.1307 134.17 26.3947 134.341 25.584C134.746 23.92 135.514 22.448 136.645 21.168C137.797 19.8667 139.194 18.864 140.837 18.16C142.501 17.4347 144.271 17.072 146.149 17.072ZM146.053 19.92C145.605 19.92 145.125 20.3253 144.613 21.136C144.122 21.9253 143.535 23.4293 142.853 25.648C142.17 27.8667 141.829 29.424 141.829 30.32C141.829 30.7893 141.903 31.1093 142.053 31.28C142.202 31.4293 142.405 31.504 142.661 31.504C143.109 31.5467 143.567 31.1627 144.037 30.352C144.527 29.5413 145.135 27.9627 145.861 25.616C146.522 23.5467 146.853 22.0427 146.853 21.104C146.853 20.656 146.778 20.3467 146.629 20.176C146.501 20.0053 146.309 19.92 146.053 19.92Z" fill="white"/>
<path d="M176.787 17.072C177.918 17.072 178.856 17.4773 179.603 18.288C180.35 19.0987 180.723 20.208 180.723 21.616C180.723 23.5147 180.062 25.456 178.739 27.44C177.416 29.424 175.742 31.0667 173.715 32.368C171.688 33.648 169.715 34.288 167.795 34.288C165.96 34.288 164.467 33.9147 163.315 33.168C162.184 32.4213 161.619 31.3547 161.619 29.968C161.619 29.456 161.715 28.88 161.907 28.24L163.923 21.36C163.966 21.1893 163.987 21.0613 163.987 20.976C163.987 20.7627 163.934 20.5813 163.827 20.432C163.72 20.2827 163.571 20.1227 163.379 19.952C163.059 19.6747 162.899 19.4293 162.899 19.216C162.878 18.9173 163.059 18.5973 163.443 18.256C163.827 17.9147 164.36 17.6373 165.043 17.424C165.747 17.1893 166.536 17.072 167.411 17.072C168.84 17.072 169.95 17.424 170.739 18.128C171.55 18.8107 171.955 19.7067 171.955 20.816C171.955 21.3067 171.87 21.84 171.699 22.416L169.619 29.264C169.555 29.456 169.523 29.616 169.523 29.744C169.523 30.0213 169.619 30.2347 169.811 30.384C170.003 30.5333 170.27 30.608 170.611 30.608C171.08 30.608 171.624 30.4053 172.243 30C172.883 29.5733 173.512 28.976 174.131 28.208C174.75 27.4187 175.251 26.4907 175.635 25.424C174.782 24.6773 174.174 23.9413 173.811 23.216C173.47 22.4907 173.299 21.744 173.299 20.976C173.299 19.888 173.598 18.9707 174.195 18.224C174.792 17.456 175.656 17.072 176.787 17.072ZM191.175 16.912C193.884 16.912 195.847 17.3493 197.063 18.224C198.279 19.0773 198.887 20.176 198.887 21.52C198.887 21.9253 198.844 22.2987 198.759 22.64C198.439 24.048 197.543 25.0613 196.071 25.68C194.62 26.2773 192.903 26.576 190.919 26.576C189.916 26.576 188.978 26.512 188.103 26.384C188.082 27.4933 188.38 28.272 188.999 28.72C189.618 29.168 190.482 29.392 191.591 29.392C192.103 29.392 192.594 29.3387 193.063 29.232C193.532 29.104 194.13 28.9227 194.855 28.688C195.452 28.4747 195.858 28.368 196.071 28.368C196.306 28.368 196.423 28.5067 196.423 28.784C196.444 29.5307 196.167 30.32 195.591 31.152C195.015 31.9627 194.162 32.656 193.031 33.232C191.9 33.808 190.535 34.096 188.935 34.096C186.567 34.096 184.626 33.4987 183.111 32.304C181.596 31.1093 180.839 29.3707 180.839 27.088C180.839 26.448 180.924 25.7013 181.095 24.848C181.628 22.224 182.791 20.2507 184.583 18.928C186.396 17.584 188.594 16.912 191.175 16.912ZM188.327 24.464C188.412 24.4853 188.53 24.496 188.679 24.496C189.575 24.496 190.258 24.08 190.727 23.248C191.196 22.416 191.42 21.488 191.399 20.464C191.378 19.8667 191.207 19.568 190.887 19.568C190.652 19.568 190.375 19.76 190.055 20.144C189.735 20.5067 189.415 21.0613 189.095 21.808C188.796 22.5547 188.54 23.44 188.327 24.464ZM213.945 17.072C215.14 17.072 216.089 17.4347 216.793 18.16C217.519 18.8853 217.881 19.7813 217.881 20.848C217.881 21.2533 217.839 21.6267 217.753 21.968C217.54 22.8427 217.135 23.5147 216.537 23.984C215.94 24.4533 215.225 24.688 214.393 24.688C213.583 24.688 212.964 24.496 212.537 24.112C212.132 23.728 211.769 23.216 211.449 22.576C211.279 22.2133 211.119 21.9467 210.969 21.776C210.82 21.6053 210.649 21.52 210.457 21.52C210.244 21.52 210.052 21.6053 209.881 21.776C209.732 21.9467 209.593 22.2453 209.465 22.672L207.001 30.672C206.959 30.7787 206.937 30.9387 206.937 31.152C206.937 31.4293 207.012 31.664 207.161 31.856C207.332 32.0267 207.556 32.1973 207.833 32.368C208.089 32.5387 208.26 32.6773 208.345 32.784C208.431 32.8907 208.463 33.0293 208.441 33.2C208.399 33.4773 208.239 33.68 207.961 33.808C207.705 33.936 207.257 34 206.617 34H198.425C197.871 34 197.476 33.9147 197.241 33.744C196.985 33.552 196.889 33.3067 196.953 33.008C197.039 32.752 197.263 32.528 197.625 32.336C197.945 32.1653 198.212 31.9627 198.425 31.728C198.639 31.4933 198.82 31.12 198.969 30.608L201.817 21.36C201.86 21.2533 201.881 21.104 201.881 20.912C201.881 20.6773 201.828 20.496 201.721 20.368C201.636 20.24 201.487 20.08 201.273 19.888C201.06 19.7173 200.911 19.568 200.825 19.44C200.74 19.312 200.729 19.1413 200.793 18.928C200.921 18.4373 201.593 18.0107 202.809 17.648C204.025 17.264 205.295 17.072 206.617 17.072C207.492 17.072 208.217 17.2747 208.793 17.68C209.369 18.064 209.743 18.6187 209.913 19.344C210.937 17.8293 212.281 17.072 213.945 17.072ZM229.405 12.688C231.538 12.688 233.383 12.9973 234.941 13.616C236.519 14.2133 237.714 15.0027 238.525 15.984C239.357 16.9653 239.773 18.0107 239.773 19.12C239.773 19.5253 239.709 19.9413 239.581 20.368C239.282 21.264 238.781 21.968 238.077 22.48C237.373 22.992 236.295 23.4613 234.845 23.888C233.394 24.2933 231.165 24.784 228.157 25.36C226.343 25.7013 224.978 26.0107 224.061 26.288C223.165 26.544 222.535 26.8213 222.173 27.12C221.831 27.4187 221.639 27.8027 221.597 28.272H230.813C232.093 28.272 233.063 28.1013 233.725 27.76C234.386 27.4187 235.005 26.96 235.581 26.384C235.837 26.1067 236.039 25.9147 236.189 25.808C236.359 25.68 236.551 25.616 236.765 25.616C237.149 25.616 237.501 25.8827 237.821 26.416C238.141 26.928 238.301 27.5893 238.301 28.4C238.301 28.9333 238.205 29.5413 238.013 30.224C237.586 31.5893 236.818 32.56 235.709 33.136C234.599 33.712 232.925 34 230.685 34H219.389C218.706 34 218.151 33.712 217.725 33.136C217.319 32.56 217.117 31.7813 217.117 30.8C217.117 30.0747 217.245 29.2853 217.501 28.432C217.949 26.96 218.77 25.776 219.965 24.88C221.159 23.9627 222.845 23.1947 225.021 22.576C226.471 22.1493 227.591 21.7333 228.381 21.328C229.17 20.9013 229.735 20.4853 230.077 20.08C230.418 19.6533 230.685 19.1307 230.877 18.512C230.983 18.0853 231.037 17.7333 231.037 17.456C231.037 16.8587 230.855 16.3787 230.493 16.016C230.13 15.6533 229.639 15.472 229.021 15.472C228.85 15.472 228.551 15.5147 228.125 15.6C228.146 15.728 228.157 15.92 228.157 16.176C228.157 17.6267 227.719 18.7147 226.845 19.44C225.97 20.1653 224.871 20.528 223.549 20.528C222.567 20.528 221.789 20.272 221.213 19.76C220.637 19.248 220.349 18.5547 220.349 17.68C220.349 17.2533 220.402 16.8693 220.509 16.528C220.893 15.2693 221.863 14.32 223.421 13.68C224.978 13.0187 226.973 12.688 229.405 12.688Z" fill="#CCB6FF"/>
<path fill-rule="evenodd" clip-rule="evenodd" d="M258.929 14.1004C258.148 13.3194 256.882 13.3194 256.101 14.1004C255.32 14.8815 255.32 16.1478 256.101 16.9289L263.172 23.9998L256.1 31.071C255.319 31.8521 255.319 33.1184 256.1 33.8994C256.881 34.6805 258.148 34.6805 258.929 33.8994L267.396 25.4318C267.402 25.426 267.408 25.4201 267.414 25.4141C268.195 24.6331 268.195 23.3668 267.414 22.5857L258.929 14.1004Z" fill="white"/>
</svg>
