<svg width="208" height="24" viewBox="0 0 208 24" fill="none" xmlns="http://www.w3.org/2000/svg">
<path d="M7.496 14.12L7.144 12.824C6.96267 12.2053 6.78667 11.5653 6.616 10.904C6.456 10.2427 6.28533 9.592 6.104 8.952H6.04C5.89067 9.60267 5.73067 10.2587 5.56 10.92C5.38933 11.5707 5.21333 12.2053 5.032 12.824L4.68 14.12H7.496ZM8.008 15.96H4.168L3.336 19H0.936L4.728 7.16H7.512L11.32 19H8.84L8.008 15.96ZM12.706 7.16H19.97V9.128H15.074V11.864H19.234V13.848H15.074V17.016H20.146V19H12.706V7.16Z" fill="#333333"/>
<path d="M41.84 13.848H38.608V12.184H41.84V8.776H43.584V12.184H46.816V13.848H43.584V17.256H41.84V13.848Z" fill="#333333"/>
<path d="M71.36 9.144C71.2853 8.89867 71.1787 8.632 71.04 8.344C70.912 8.056 70.7733 7.78933 70.624 7.544L68.992 7.64C69.1413 7.85333 69.28 8.07733 69.408 8.312C69.536 8.54667 69.6267 8.75467 69.68 8.936L69.2 9.144H71.36ZM74.4 9.144C74.5813 8.86667 74.7733 8.54133 74.976 8.168C75.1787 7.784 75.3547 7.432 75.504 7.112C75.0133 7.176 74.512 7.23467 74 7.288C73.488 7.33067 72.96 7.37867 72.416 7.432C72.5653 7.67733 72.6933 7.92267 72.8 8.168C72.9173 8.40267 73.0027 8.62133 73.056 8.824L72.208 9.144H74.4ZM66.976 12.056H65.168V9.144H67.92C67.8133 8.92 67.6853 8.69067 67.536 8.456C67.3973 8.21067 67.2533 7.98133 67.104 7.768L67.28 7.688C67.0667 7.69867 66.848 7.70933 66.624 7.72C66.4107 7.72 66.1973 7.72 65.984 7.72C65.9627 7.51733 65.9147 7.28267 65.84 7.016C65.776 6.74933 65.7013 6.52533 65.616 6.344C66.5973 6.32267 67.6107 6.29067 68.656 6.248C69.7013 6.19467 70.72 6.13067 71.712 6.056C72.704 5.98133 73.6373 5.89067 74.512 5.784C75.3867 5.67733 76.1547 5.56 76.816 5.432L78.08 6.696C77.76 6.76 77.4293 6.824 77.088 6.888C76.7573 6.94133 76.4053 6.99467 76.032 7.048L77.472 7.496C77.2693 7.784 77.0667 8.072 76.864 8.36C76.6613 8.63733 76.464 8.89867 76.272 9.144H78.848V12.28H77.312C77.7387 12.6747 78.08 13.0587 78.336 13.432L76.976 14.456C76.8587 14.264 76.7093 14.0613 76.528 13.848C76.3467 13.624 76.144 13.4 75.92 13.176C75.7067 12.9413 75.4773 12.7173 75.232 12.504C74.9973 12.28 74.7627 12.0773 74.528 11.896L75.808 11C75.9893 11.1387 76.176 11.288 76.368 11.448C76.5707 11.608 76.768 11.7733 76.96 11.944V10.6H72.608C72.8213 10.7173 73.0187 10.8347 73.2 10.952C73.392 11.0693 73.5573 11.1867 73.696 11.304L72.736 12.36C72.4907 12.136 72.1493 11.896 71.712 11.64C71.2853 11.384 70.8693 11.1653 70.464 10.984L70.816 10.6H66.976V12.056ZM65.616 13.544C66.0747 13.2987 66.4747 12.9733 66.816 12.568C67.168 12.152 67.4453 11.7253 67.648 11.288L69.072 11.896C68.848 12.408 68.5653 12.904 68.224 13.384C67.8827 13.864 67.4507 14.2747 66.928 14.616L65.616 13.544ZM70 16.168C70.5227 16.6053 71.1893 16.9947 72 17.336C72.7147 16.9947 73.3227 16.6053 73.824 16.168H70ZM76.592 15.56C76.272 16.0613 75.8987 16.5147 75.472 16.92C75.056 17.3147 74.5867 17.6773 74.064 18.008C74.8427 18.2 75.6693 18.3547 76.544 18.472C77.4187 18.5787 78.3413 18.6587 79.312 18.712C79.216 18.8187 79.1147 18.9413 79.008 19.08C78.912 19.2187 78.816 19.3627 78.72 19.512C78.624 19.672 78.5333 19.8267 78.448 19.976C78.3627 20.136 78.288 20.28 78.224 20.408C77.04 20.3013 75.9253 20.136 74.88 19.912C73.8453 19.6987 72.8747 19.4107 71.968 19.048C71.0507 19.4 70.0693 19.688 69.024 19.912C67.9893 20.136 66.9173 20.3067 65.808 20.424C65.7653 20.3173 65.7013 20.1893 65.616 20.04C65.5413 19.9013 65.456 19.7573 65.36 19.608C65.2747 19.4693 65.184 19.3307 65.088 19.192C64.992 19.064 64.9067 18.952 64.832 18.856C65.7707 18.792 66.6773 18.696 67.552 18.568C68.4267 18.4293 69.2533 18.2533 70.032 18.04C69.488 17.6987 69.008 17.3253 68.592 16.92C68.24 17.112 67.8827 17.2933 67.52 17.464C67.168 17.6347 66.816 17.7893 66.464 17.928C66.3893 17.8427 66.2933 17.7467 66.176 17.64C66.0693 17.5227 65.9573 17.4053 65.84 17.288C65.7227 17.16 65.6 17.0427 65.472 16.936C65.3547 16.8293 65.248 16.7387 65.152 16.664C65.6107 16.5253 66.0693 16.3653 66.528 16.184C66.9867 15.992 67.424 15.784 67.84 15.56C68.256 15.336 68.6453 15.0907 69.008 14.824C69.3813 14.5573 69.712 14.28 70 13.992C69.648 13.896 69.408 13.7253 69.28 13.48C69.1627 13.224 69.104 12.8667 69.104 12.408V11.304H70.848V12.408C70.848 12.5893 70.8853 12.7013 70.96 12.744C71.0453 12.7867 71.2213 12.808 71.488 12.808H73.168C73.3707 12.808 73.5093 12.7653 73.584 12.68C73.6587 12.5947 73.7067 12.3867 73.728 12.056C73.9093 12.1627 74.1387 12.264 74.416 12.36C74.6933 12.4453 74.9493 12.5093 75.184 12.552C75.1413 12.8613 75.0773 13.1173 74.992 13.32C74.9067 13.5227 74.7947 13.6827 74.656 13.8C74.5173 13.9173 74.3413 14.0027 74.128 14.056C73.9253 14.0987 73.6747 14.12 73.376 14.12H71.904L72 14.152C71.904 14.2693 71.8027 14.3867 71.696 14.504C71.6 14.6213 71.4933 14.7387 71.376 14.856H75.088L75.408 14.808L76.592 15.56Z" fill="#333333"/>
<path d="M99.84 13.848H96.608V12.184H99.84V8.776H101.584V12.184H104.816V13.848H101.584V17.256H99.84V13.848Z" fill="#333333"/>
<path d="M135.75 4.5C138.281 4.5 140.333 6.58333 140.333 9.5C140.333 15.3333 134.083 18.6667 132 19.9167C129.917 18.6667 123.667 15.3333 123.667 9.5C123.667 6.58333 125.75 4.5 128.25 4.5C129.8 4.5 131.167 5.33333 132 6.16667C132.833 5.33333 134.2 4.5 135.75 4.5ZM132.778 17.5032C133.513 17.0404 134.175 16.5796 134.796 16.0858C137.278 14.1108 138.667 11.9529 138.667 9.5C138.667 7.53397 137.386 6.16667 135.75 6.16667C134.853 6.16667 133.883 6.64092 133.178 7.34517L132 8.52369L130.821 7.34517C130.117 6.64092 129.146 6.16667 128.25 6.16667C126.632 6.16667 125.333 7.54708 125.333 9.5C125.333 11.9529 126.722 14.1108 129.204 16.0858C129.825 16.5796 130.487 17.0404 131.222 17.5032C131.47 17.6599 131.717 17.8107 132 17.9793C132.282 17.8107 132.529 17.6599 132.778 17.5032Z" fill="#333333"/>
<path d="M158.608 10.104H166.816V11.784H158.608V10.104ZM158.608 14.248H166.816V15.928H158.608V14.248Z" fill="#333333"/>
<g clip-path="url(#clip0_505_86)">
<path fill-rule="evenodd" clip-rule="evenodd" d="M208 16.7843C208 12.7992 204.769 9.56863 200.784 9.56863H198.431V4.86275H205.569C206.911 4.86275 208 3.77412 208 2.43137C208 1.08863 206.911 0 205.569 0H198.431H193.569H191.216C187.231 0 184 3.23059 184 7.21569V14.4314V19.1373V24H200.784C204.769 24 208 20.7694 208 16.7843ZM188.863 9.56863V7.21569C188.863 5.91608 189.916 4.86275 191.216 4.86275C192.515 4.86275 193.569 5.91608 193.569 7.21569V9.56863H188.863ZM188.863 19.1373V14.4314H193.569V19.1373H188.863ZM200.784 19.1373H198.431V14.4314H200.784C202.084 14.4314 203.137 15.4847 203.137 16.7843C203.137 18.0839 202.084 19.1373 200.784 19.1373Z" fill="#C677EB"/>
<path fill-rule="evenodd" clip-rule="evenodd" d="M208 16.7843C208 12.7992 204.769 9.56863 200.784 9.56863H198.431V4.86275H205.569C206.911 4.86275 208 3.77412 208 2.43137C208 1.08863 206.911 0 205.569 0H198.431H193.569H191.216C187.231 0 184 3.23059 184 7.21569V14.4314V19.1373V24H200.784C204.769 24 208 20.7694 208 16.7843ZM188.863 9.56863V7.21569C188.863 5.91608 189.916 4.86275 191.216 4.86275C192.515 4.86275 193.569 5.91608 193.569 7.21569V9.56863H188.863ZM188.863 19.1373V14.4314H193.569V19.1373H188.863ZM200.784 19.1373H198.431V14.4314H200.784C202.084 14.4314 203.137 15.4847 203.137 16.7843C203.137 18.0839 202.084 19.1373 200.784 19.1373Z" fill="#7A63D8"/>
<path fill-rule="evenodd" clip-rule="evenodd" d="M208 16.7843C208 12.7992 204.769 9.56863 200.784 9.56863H198.431V7.21569C198.431 3.23059 195.201 0 191.216 0C187.231 0 184 3.23059 184 7.21569V14.4314V19.1373V24H188.863H198.431H200.784C204.769 24 208 20.7694 208 16.7843ZM188.863 9.56863V7.21569C188.863 5.91608 189.916 4.86275 191.216 4.86275C192.515 4.86275 193.569 5.91608 193.569 7.21569V9.56863H188.863ZM188.863 19.1373V14.4314H193.569V19.1373H188.863ZM200.784 19.1373H198.431V14.4314H200.784C202.084 14.4314 203.137 15.4847 203.137 16.7843C203.137 18.0839 202.084 19.1373 200.784 19.1373Z" fill="url(#paint0_linear_505_86)"/>
</g>
<defs>
<linearGradient id="paint0_linear_505_86" x1="196" y1="0" x2="196" y2="24" gradientUnits="userSpaceOnUse">
<stop stop-color="#C677EB"/>
<stop offset="1" stop-color="#7A63D8"/>
</linearGradient>
<clipPath id="clip0_505_86">
<rect width="24" height="24" fill="white" transform="translate(184)"/>
</clipPath>
</defs>
</svg>
