<svg width="402" height="162" viewBox="0 0 402 162" fill="none" xmlns="http://www.w3.org/2000/svg">
<path d="M49.6414 28.1416C51.1057 28.1416 52.2406 28.4711 53.046 29.0934C53.9246 29.7158 54.3273 30.5944 54.3273 31.656C54.3273 31.9855 54.2541 32.498 54.1076 33.3034C53.0826 36.7446 50.7396 38.4652 47.0788 38.4652H40.2696L31.4835 67.3861C31.0808 68.5576 30.8977 69.7657 30.8977 71.0104C30.8977 72.4015 31.3004 73.3899 32.0692 73.9391C32.838 74.4882 33.9363 74.7444 35.364 74.7444C36.6087 74.7444 38.1829 74.598 40.0499 74.2685C41.0017 74.0489 41.8071 73.9025 42.5027 73.9025C43.0518 73.9025 43.4545 74.0855 43.6742 74.4882C44.0036 74.8177 44.1501 75.2204 44.1501 75.7695C44.2233 77.3437 43.0518 79.2473 40.6356 81.5171C38.2927 83.7136 35.1077 85.6172 31.0442 87.2646C26.9806 88.8388 22.4777 89.6076 17.5722 89.6076C12.2639 89.6076 8.0173 88.3995 4.79574 85.9833C1.57417 83.5671 0 80.2357 0 76.0257C0 74.0855 0.329478 72.1818 0.951826 70.388L8.45661 47.1781C8.8593 45.8602 9.04235 44.7985 9.04235 44.0298C9.04235 42.4556 8.63965 41.1377 7.87087 40.0394C7.1753 38.9411 6.15026 37.8063 4.83235 36.6348C3.66087 35.5365 2.85548 34.6579 2.37957 33.9258C1.90365 33.157 1.79383 32.2418 2.01348 31.2167C2.34296 30.1917 3.00191 29.4229 3.99035 28.8738C5.01539 28.3246 6.58956 28.0684 8.78609 28.0684H15.339L22.734 20.6734C25.2966 18.1108 27.6396 16.317 29.7629 15.2919C31.9594 14.2669 34.7783 13.7544 38.1829 13.7544C43.0884 13.7544 45.5778 15.6214 45.5778 19.3921C45.5778 20.5636 45.4314 21.6618 45.1019 22.6869L43.4545 28.0684H49.678L49.6414 28.1416ZM119.418 72.4381C119.271 72.7676 119.198 73.2069 119.198 73.8292C119.198 74.3784 119.308 74.8177 119.564 75.1105C119.893 75.44 120.26 75.5864 120.735 75.5864C121.687 75.5864 122.456 75.1837 123.078 74.415C123.774 73.573 124.25 73.1337 124.47 73.1337C124.872 73.1337 125.165 73.3899 125.421 73.9391C125.641 74.415 125.787 75.0007 125.787 75.6963C125.861 77.966 125.129 80.1991 123.554 82.3591C121.98 84.4824 119.674 86.2396 116.635 87.6307C113.67 88.9486 110.082 89.6076 105.872 89.6076C100.711 89.6076 96.6103 88.4361 93.5718 86.0931C90.5333 83.677 88.9591 80.4554 88.8859 76.5017C88.8859 73.6096 89.5815 70.388 91.0092 66.7638L97.4523 49.8871C97.855 48.8621 98.0381 48.0567 98.0381 47.4344C98.0381 46.4093 97.672 45.6405 96.9764 45.0914C96.3541 44.4691 95.5853 44.1396 94.6335 44.1396C93.1691 44.1396 91.6316 44.8351 90.0574 46.2629C88.593 47.5808 87.3483 49.7773 86.4331 52.8158V52.5962L79.0382 76.3918C78.8185 77.3437 78.6721 78.1491 78.6721 78.8446C78.6721 79.8697 78.8551 80.6751 79.2578 81.2974C79.6605 81.8465 80.2096 82.3957 80.9052 82.9448C81.4543 83.4939 81.857 83.9698 82.0767 84.3359C82.2963 84.6654 82.3329 85.0681 82.1865 85.6172C81.7838 86.6423 81.015 87.3744 79.8435 87.8503C78.6721 88.3263 76.8783 88.5459 74.4621 88.5459H47.7377C45.7243 88.5459 44.2233 88.2164 43.2715 87.5941C42.3196 86.8985 42.0268 85.9833 42.3196 84.885C42.6491 83.9332 43.4545 83.1278 44.7724 82.4323C45.9439 81.8099 46.9323 81.0778 47.7011 80.1991C48.4699 79.3571 49.1655 77.966 49.678 76.099L67.4698 17.6349C67.6895 16.9393 67.8359 16.3536 67.8359 15.8777C67.8359 15.0357 67.6162 14.3035 67.1403 13.7544C66.7376 13.2052 66.1885 12.6561 65.4929 12.107C64.7242 11.4846 64.1384 10.9355 63.7357 10.4596C63.4062 9.98368 63.3696 9.36133 63.6259 8.59255C64.1018 6.79872 66.5546 5.22455 71.0209 3.90664C75.4871 2.58872 80.1364 1.92977 84.9688 1.92977C89.5082 1.92977 92.803 2.77177 94.9263 4.49237C97.1229 6.21298 98.2211 8.55594 98.2211 11.5212C98.2211 13.2419 97.9282 14.9258 97.4157 16.5732L91.0824 37.1839C94.1209 33.1936 97.3425 30.4113 100.674 28.8738C104.115 27.2996 107.813 26.5308 111.803 26.5308C116.562 26.5308 120.406 27.9585 123.298 30.8506C126.263 33.7427 127.764 37.4768 127.764 42.0895C127.764 44.5057 127.362 46.8852 126.593 49.2282L119.454 72.2917L119.418 72.4381ZM161.591 26.6406C166.13 26.6406 169.425 27.4826 171.548 29.2032C173.672 30.9238 174.697 33.2668 174.697 36.2321C174.697 38.0259 174.44 39.7465 173.891 41.3939L163.128 76.4284C162.909 77.3803 162.762 78.1857 162.762 78.8812C162.762 79.9063 162.945 80.7117 163.348 81.334C163.751 81.8831 164.3 82.4323 164.995 82.9814C165.545 83.5305 165.947 84.0064 166.167 84.3725C166.387 84.702 166.423 85.1047 166.277 85.6538C165.874 86.6789 165.105 87.4111 163.934 87.887C162.762 88.3629 160.968 88.5825 158.552 88.5825H131.828C129.814 88.5825 128.313 88.2531 127.362 87.6307C126.41 86.9351 126.117 86.0199 126.41 84.9217C126.703 83.9698 127.545 83.1644 128.863 82.4689C130.034 81.8465 131.022 81.1144 131.791 80.2357C132.56 79.3938 133.219 78.0026 133.768 76.1356L143.945 42.2725C144.165 41.577 144.311 40.9912 144.311 40.5153C144.311 39.6733 144.128 38.9778 143.726 38.5385C143.323 37.9893 142.737 37.4402 141.969 36.8911C141.2 36.2687 140.651 35.7196 140.321 35.2437C139.992 34.7678 139.955 34.1454 140.211 33.3766C140.687 31.5828 143.14 30.0086 147.606 28.6907C152.073 27.2996 156.722 26.5674 161.554 26.5674L161.591 26.6406ZM169.425 0.758288C172.464 0.758288 174.99 1.78333 177.04 3.79681C179.053 5.73707 180.078 8.15324 180.078 11.0453C180.078 13.0588 179.529 15.0723 178.431 17.0125C177.406 18.9528 175.941 20.5636 173.964 21.8083C172.097 22.9798 169.974 23.5655 167.631 23.5655C164.666 23.5655 162.176 22.5771 160.126 20.6368C158.186 18.6233 157.161 16.0973 157.088 13.132C157.088 11.1918 157.6 9.2515 158.625 7.38446C159.65 5.4442 161.078 3.83342 162.945 2.58872C164.812 1.34403 166.972 0.72168 169.388 0.72168L169.425 0.758288ZM246.193 72.4381C246.047 72.7676 245.974 73.2069 245.974 73.8292C245.974 74.3784 246.084 74.8177 246.34 75.1105C246.633 75.44 247.035 75.5864 247.511 75.5864C248.463 75.5864 249.232 75.1837 249.854 74.415C250.55 73.573 251.026 73.1337 251.245 73.1337C251.648 73.1337 251.941 73.3899 252.197 73.9391C252.417 74.415 252.563 75.0007 252.563 75.6963C252.637 77.966 251.904 80.1991 250.33 82.3591C248.756 84.4824 246.45 86.2396 243.411 87.6307C240.446 88.9486 236.858 89.6076 232.648 89.6076C227.486 89.6076 223.386 88.4361 220.348 86.0931C217.309 83.677 215.735 80.4554 215.662 76.5017C215.662 73.6096 216.357 70.388 217.785 66.7638L224.228 49.8871C224.631 48.8621 224.814 48.0567 224.814 47.4344C224.814 46.4093 224.448 45.6405 223.752 45.0914C223.13 44.4691 222.361 44.1396 221.409 44.1396C219.689 44.1396 218.041 44.945 216.504 46.5924C214.93 48.1665 213.795 50.1068 213.099 52.4498L205.851 76.3552C205.521 77.1972 205.375 78.0392 205.375 78.808C205.375 79.7598 205.558 80.5286 205.96 81.151C206.363 81.7001 206.912 82.2858 207.608 82.9082C208.157 83.3841 208.56 83.8234 208.779 84.1895C208.999 84.5922 209.036 85.0315 208.889 85.5806C208.56 86.6057 207.828 87.3378 206.656 87.8138C205.485 88.2897 203.654 88.5093 201.165 88.5093H174.44C172.427 88.5093 170.963 88.1798 170.121 87.5575C169.169 86.8619 168.839 85.9467 169.059 84.8484C169.388 83.8966 170.194 83.0912 171.512 82.3957C172.683 81.7733 173.672 81.0411 174.44 80.1625C175.209 79.3205 175.868 77.9294 176.417 76.0624L186.851 42.1993C186.997 41.7966 187.07 41.2475 187.07 40.5519C187.07 39.7099 186.887 39.0144 186.485 38.5751C186.155 38.0991 185.643 37.5134 184.837 36.8178C184.068 36.1955 183.519 35.6464 183.19 35.1705C182.86 34.6945 182.824 34.0722 183.08 33.3034C183.556 31.5096 186.009 29.9354 190.475 28.6175C194.941 27.2264 199.554 26.4942 204.423 26.4942C208.34 26.4942 211.415 27.5925 213.685 29.789C215.955 31.9123 216.98 34.8776 216.723 38.6849C219.908 34.0722 223.313 30.9238 226.901 29.2032C230.488 27.4094 234.405 26.4942 238.615 26.4942C243.375 26.4942 247.218 27.9219 250.111 30.814C253.076 33.7061 254.577 37.4402 254.577 42.0529C254.577 44.4691 254.174 46.8486 253.405 49.1916L246.267 72.2551L246.193 72.4381ZM328.856 36.1589C329.039 36.4151 329.222 36.708 329.405 36.9643C330.796 39.2706 331.345 42.0163 331.345 44.7985C331.345 46.2995 331.162 48.0933 330.759 50.18C329.808 54.2436 327.758 57.9411 324.536 61.3091C321.424 64.6771 317.361 67.3129 312.345 69.2897C307.44 71.1568 301.985 72.1086 296.054 72.1086C291.515 72.1086 287.268 71.7791 283.278 71.1568C282.107 72.1818 281.521 73.4265 281.521 74.8909C281.521 75.9159 281.997 76.7579 282.912 77.4535C283.864 78.0758 285.401 78.4053 287.598 78.4053H305.17C311.174 78.4053 315.86 79.467 319.228 81.5537C322.596 83.5671 324.28 86.4958 324.28 90.3397C324.28 91.7309 324.06 93.1952 323.584 94.6596C322.632 97.6981 320.509 100.517 317.141 103.08C313.846 105.752 309.197 107.875 303.193 109.523C297.189 111.17 289.868 111.975 281.301 111.975C273.65 111.975 267.17 111.317 261.862 109.999C256.554 108.681 252.6 106.85 250.037 104.507C247.365 102.238 246.047 99.7116 246.047 96.8927C246.047 96.2704 246.193 95.3185 246.523 94.0738C247.218 91.8041 248.829 89.9737 251.319 88.5825C253.735 87.0816 257.762 86.1297 263.4 85.6538C261.532 83.86 260.581 81.7001 260.581 79.2107C260.581 78.3687 260.69 77.4535 260.947 76.5017C262.191 72.4381 265.852 69.4362 271.966 67.4959C266.109 64.311 263.18 59.6251 263.18 53.4382C263.18 51.7176 263.399 49.9238 263.875 48.0567C264.827 43.9931 266.877 40.3323 270.099 37.0375C273.284 33.6695 277.384 31.0337 282.399 29.0568C287.415 27.1165 292.87 26.1281 298.8 26.1281C304.145 26.1281 309.6 26.4942 314.798 27.7755C318.056 28.5809 321.314 29.8256 324.133 31.656C325.964 32.8275 327.611 34.3285 328.892 36.1223L328.856 36.1589ZM303.12 49.155C304.365 45.1646 304.987 42.1261 304.987 40.0028C304.987 37.3304 303.852 36.0125 301.582 36.0125C299.642 36.0125 297.922 37.0009 296.421 38.9411C295.029 40.8082 293.565 44.2128 292.101 49.1184C290.856 53.1819 290.234 56.2571 290.234 58.3804C290.234 60.943 291.332 62.2609 293.528 62.2609C295.469 62.2609 297.189 61.2724 298.69 59.3322C300.155 57.3919 301.656 53.9873 303.157 49.155H303.12ZM279.8 90.2665C277.604 90.2665 275.627 90.1567 273.833 89.9004C272.881 91.0719 272.442 92.6461 272.442 94.5864C272.515 96.5266 273.284 97.9544 274.785 98.7964C276.359 99.6384 278.739 100.078 281.923 100.078C285.841 100.078 288.989 99.4919 291.405 98.3204C293.895 97.149 295.139 95.465 295.139 93.2684C295.139 92.3166 294.773 91.5844 294.078 91.0353C293.382 90.4862 292.357 90.2299 291.039 90.2299H279.8V90.2665ZM370.443 25.5424C376.923 25.5424 382.524 26.1281 387.21 27.2996C391.969 28.4711 395.593 30.1185 398.119 32.2052C400.682 34.3285 402 36.708 402 39.3438C402 41.9797 400.902 44.286 398.705 46.0066C396.582 47.7272 393.617 48.5692 389.809 48.5692C386.002 48.5692 382.597 47.5808 379.852 45.6405C377.216 43.7003 375.861 41.2109 375.861 38.2456C375.861 37.2205 376.008 36.2687 376.337 35.3169C374.946 34.9142 373.665 34.7311 372.603 34.7311C370.663 34.7311 369.016 35.2071 367.698 36.1223C366.453 37.0741 365.867 38.392 365.94 40.1126C365.94 42.1261 366.966 43.8467 368.979 45.2745C370.992 46.6656 374.287 48.4228 378.827 50.5461C382.744 52.2667 385.929 53.8775 388.418 55.3418C390.981 56.733 393.141 58.5268 394.861 60.7233C396.655 62.9198 397.57 65.4824 397.57 68.4478C397.57 69.0701 397.424 70.2416 397.094 71.9622C395.85 77.1972 392.372 81.334 386.661 84.3725C380.95 87.4111 373.445 88.9486 364.183 88.9486C353.713 88.9486 345.403 87.5575 339.216 84.7386C333.139 81.9198 330.064 78.0758 330.064 73.1337C330.064 69.7657 331.089 67.2397 333.102 65.5191C335.116 63.7985 337.825 62.9564 341.193 62.9564C345.11 62.9564 348.405 64.1645 351.151 66.5807C353.969 68.9969 355.361 72.072 355.361 75.8427C355.361 76.8678 355.251 77.9294 354.994 78.9911C356.862 79.467 358.655 79.6866 360.376 79.6866C362.389 79.6866 364.073 79.1375 365.428 78.0392C366.746 76.941 367.405 75.44 367.405 73.4631C367.332 71.6693 366.416 70.1318 364.696 68.8871C362.975 67.5691 360.229 65.995 356.495 64.2011C352.981 62.5538 350.089 61.0528 347.819 59.6251C345.549 58.1241 343.609 56.2937 341.962 54.1338C340.388 51.9372 339.619 49.3746 339.619 46.4093C339.619 40.0028 342.291 34.9142 347.599 31.1801C352.981 27.3362 360.596 25.4325 370.443 25.4325V25.5424Z" fill="#333333"/>
<path d="M12.6099 139.416C12.6099 140.662 12.7862 141.908 13.1388 143.153C13.4915 144.399 13.9852 145.587 14.6199 146.715C15.2546 147.843 15.9952 148.878 16.8415 149.818C17.7113 150.759 18.6516 151.523 19.6625 152.11L18.4636 153.556C16.912 152.616 15.5485 151.299 14.373 149.607C13.1976 147.89 12.3278 146.01 11.7636 143.965C11.1994 146.198 10.306 148.22 9.08357 150.03C7.86112 151.84 6.43884 153.239 4.81673 154.226L3.58252 152.816C4.61691 152.228 5.56901 151.452 6.43884 150.488C7.33217 149.524 8.10796 148.455 8.7662 147.279C9.42445 146.08 9.92989 144.811 10.2825 143.471C10.6587 142.131 10.8467 140.791 10.8467 139.451V133.033H12.6099V139.416ZM22.0604 130.741H23.8588V159.621H22.0604V143.189H16.1715V141.602H22.0604V130.741ZM30.2767 129.965V161.279H28.4783V129.965H30.2767Z" fill="#333333"/>
<path d="M67.0534 146.715C66.1836 146.362 65.3491 145.928 64.5498 145.41C63.7505 144.893 63.0099 144.305 62.3282 143.647C61.6464 142.965 61.0352 142.237 60.4945 141.461C59.9773 140.662 59.5659 139.815 59.2603 138.922C58.9312 139.933 58.4963 140.885 57.9556 141.778C57.4384 142.648 56.8389 143.459 56.1571 144.211C55.4754 144.94 54.7113 145.598 53.865 146.186C53.0422 146.75 52.1724 147.22 51.2556 147.597L50.2682 146.08C51.3731 145.634 52.4075 145.046 53.3713 144.317C54.3587 143.588 55.205 142.742 55.9103 141.778C56.6391 140.814 57.215 139.756 57.6382 138.605C58.0613 137.453 58.2729 136.242 58.2729 134.972V131.481H60.0713V135.043C60.0713 136.171 60.2829 137.265 60.7061 138.322C61.1527 139.38 61.7405 140.356 62.4692 141.249C63.198 142.143 64.0443 142.93 65.0082 143.612C65.9956 144.294 67.0182 144.834 68.0761 145.234L67.0534 146.715ZM64.444 159.657C65.7134 159.657 66.8536 159.563 67.8645 159.375C68.8754 159.186 69.7452 158.928 70.474 158.599C71.2027 158.246 71.7552 157.835 72.1313 157.365C72.531 156.871 72.7308 156.318 72.7308 155.707C72.7308 155.096 72.531 154.543 72.1313 154.05C71.7552 153.556 71.2027 153.145 70.474 152.816C69.7452 152.463 68.8754 152.193 67.8645 152.005C66.8536 151.816 65.7134 151.722 64.444 151.722C63.198 151.722 62.0578 151.816 61.0234 152.005C60.0126 152.193 59.1427 152.463 58.414 152.816C57.7087 153.145 57.1562 153.556 56.7566 154.05C56.3805 154.543 56.1924 155.096 56.1924 155.707C56.1924 156.318 56.3805 156.871 56.7566 157.365C57.1562 157.835 57.7087 158.246 58.414 158.599C59.1427 158.928 60.0126 159.186 61.0234 159.375C62.0578 159.563 63.198 159.657 64.444 159.657ZM64.444 150.206C67.6177 150.206 70.0978 150.688 71.8845 151.652C73.6712 152.592 74.5645 153.944 74.5645 155.707C74.5645 157.47 73.6712 158.822 71.8845 159.762C70.0978 160.703 67.6177 161.173 64.444 161.173C61.2703 161.173 58.7901 160.703 57.0034 159.762C55.2403 158.822 54.3587 157.47 54.3587 155.707C54.3587 153.944 55.2403 152.592 57.0034 151.652C58.7901 150.688 61.2703 150.206 64.444 150.206ZM79.2192 138.534V140.156H74.3177V149.254H72.4487V129.93H74.3177V138.534H79.2192Z" fill="#333333"/>
<path d="M103.619 152.322C104.347 152.322 105.006 152.11 105.593 151.687C106.205 151.24 106.722 150.629 107.145 149.853C107.568 149.054 107.897 148.114 108.132 147.032C108.367 145.928 108.485 144.717 108.485 143.4C108.485 142.107 108.367 140.92 108.132 139.839C107.897 138.734 107.568 137.782 107.145 136.982C106.722 136.183 106.205 135.572 105.593 135.149C105.006 134.702 104.347 134.479 103.619 134.479C102.89 134.479 102.22 134.702 101.609 135.149C101.021 135.572 100.515 136.183 100.092 136.982C99.6691 137.782 99.34 138.734 99.1049 139.839C98.8698 140.92 98.7523 142.107 98.7523 143.4C98.7523 144.717 98.8698 145.928 99.1049 147.032C99.34 148.114 99.6691 149.054 100.092 149.853C100.515 150.629 101.021 151.24 101.609 151.687C102.22 152.11 102.89 152.322 103.619 152.322ZM115.079 130.706H116.878V159.586H115.079V144.106H110.248C110.201 145.634 110.001 147.009 109.649 148.231C109.319 149.454 108.873 150.5 108.309 151.37C107.744 152.216 107.063 152.874 106.263 153.345C105.464 153.791 104.582 154.015 103.619 154.015C102.631 154.015 101.726 153.768 100.903 153.274C100.104 152.78 99.4105 152.075 98.8228 151.158C98.2586 150.218 97.8119 149.101 97.4828 147.808C97.1772 146.492 97.0244 145.022 97.0244 143.4C97.0244 141.778 97.1772 140.321 97.4828 139.028C97.8119 137.711 98.2586 136.595 98.8228 135.678C99.4105 134.737 100.104 134.02 100.903 133.527C101.726 133.033 102.631 132.786 103.619 132.786C104.582 132.786 105.452 133.021 106.228 133.491C107.027 133.938 107.709 134.585 108.273 135.431C108.861 136.277 109.319 137.3 109.649 138.499C109.978 139.698 110.178 141.038 110.248 142.519H115.079V130.706ZM123.013 129.93V161.279H121.215V129.93H123.013Z" fill="#333333"/>
<path d="M183.299 145.728C182.171 145.939 181.066 146.127 179.985 146.292C178.903 146.433 177.775 146.55 176.599 146.645C175.447 146.715 174.213 146.774 172.897 146.821C171.604 146.844 170.17 146.856 168.595 146.856H166.267V132.751H180.02V134.338H168.136V145.234H168.595C170.146 145.234 171.568 145.222 172.861 145.199C174.154 145.152 175.365 145.093 176.493 145.022C177.645 144.928 178.75 144.811 179.808 144.67C180.866 144.529 181.959 144.352 183.088 144.141L183.299 145.728ZM171.557 158.916H190.352V160.503H169.688V150.453H171.557V158.916ZM193.702 139.662V141.285H188.8V152.639H186.931V129.895H188.8V139.662H193.702Z" fill="#333333"/>
<path d="M242.104 152.322C242.927 152.322 243.679 152.181 244.361 151.899C245.066 151.617 245.666 151.24 246.159 150.77C246.677 150.277 247.076 149.701 247.358 149.042C247.64 148.384 247.782 147.667 247.782 146.891C247.782 146.116 247.64 145.399 247.358 144.74C247.076 144.082 246.677 143.506 246.159 143.012C245.666 142.519 245.066 142.143 244.361 141.884C243.679 141.602 242.927 141.461 242.104 141.461C241.281 141.461 240.517 141.602 239.812 141.884C239.13 142.143 238.531 142.519 238.014 143.012C237.52 143.506 237.132 144.082 236.85 144.74C236.568 145.399 236.427 146.116 236.427 146.891C236.427 147.667 236.568 148.384 236.85 149.042C237.132 149.701 237.52 150.277 238.014 150.77C238.531 151.24 239.13 151.617 239.812 151.899C240.517 152.181 241.281 152.322 242.104 152.322ZM242.104 139.839C243.186 139.839 244.185 140.015 245.102 140.368C246.018 140.72 246.806 141.214 247.464 141.849C248.122 142.46 248.628 143.2 248.98 144.07C249.357 144.917 249.545 145.857 249.545 146.891C249.545 147.926 249.357 148.878 248.98 149.748C248.628 150.618 248.122 151.358 247.464 151.969C246.806 152.58 246.018 153.062 245.102 153.415C244.185 153.744 243.186 153.909 242.104 153.909C241.023 153.909 240.024 153.744 239.107 153.415C238.19 153.062 237.402 152.58 236.744 151.969C236.086 151.358 235.569 150.618 235.193 149.748C234.84 148.878 234.664 147.926 234.664 146.891C234.664 145.857 234.84 144.917 235.193 144.07C235.569 143.2 236.086 142.46 236.744 141.849C237.402 141.214 238.19 140.72 239.107 140.368C240.024 140.015 241.023 139.839 242.104 139.839ZM242.986 135.149H251.202V136.736H232.583V135.149H241.117V130.247H242.986V135.149ZM262.098 144.811H256.597V161.243H254.728V129.93H256.597V143.224H262.098V144.811Z" fill="#333333"/>
<path d="M282.936 151.546C285.311 151.546 287.685 151.452 290.059 151.264C292.457 151.052 294.973 150.676 297.606 150.136L297.888 151.722C295.161 152.263 292.598 152.639 290.2 152.851C287.802 153.062 285.381 153.168 282.936 153.168H280.574V132.998H282.442V151.546H282.936ZM308.396 144.423H302.966V161.279H301.097V129.93H302.966V142.801H308.396V144.423Z" fill="#333333"/>
<path d="M349.158 136.912H342.881V141.743H349.158V136.912ZM350.991 143.33H341.047V130.882H342.881V135.36H349.158V130.882H350.991V143.33ZM336.498 136.912H330.186V141.743H336.498V136.912ZM338.297 143.33H328.388V130.882H330.186V135.36H336.498V130.882H338.297V143.33ZM331.103 159.163H350.744V160.75H329.269V152.287H331.103V159.163ZM353.918 146.927V148.513H340.73V155.249H338.861V148.513H325.461V146.927H353.918Z" fill="#333333"/>
<path d="M397.36 153.098H395.491V130H397.36V153.098ZM374.58 139.803C374.58 140.65 374.732 141.437 375.038 142.166C375.367 142.895 375.802 143.53 376.343 144.07C376.883 144.588 377.53 144.999 378.282 145.305C379.034 145.61 379.846 145.763 380.715 145.763C381.585 145.763 382.396 145.61 383.149 145.305C383.901 144.999 384.547 144.588 385.088 144.07C385.629 143.53 386.052 142.895 386.357 142.166C386.687 141.437 386.851 140.65 386.851 139.803C386.851 138.957 386.687 138.181 386.357 137.476C386.052 136.747 385.629 136.124 385.088 135.607C384.547 135.066 383.901 134.655 383.149 134.373C382.396 134.067 381.585 133.915 380.715 133.915C379.846 133.915 379.034 134.067 378.282 134.373C377.53 134.655 376.883 135.066 376.343 135.607C375.802 136.124 375.367 136.747 375.038 137.476C374.732 138.181 374.58 138.957 374.58 139.803ZM388.65 139.803C388.65 140.932 388.45 141.966 388.05 142.907C387.65 143.823 387.098 144.623 386.393 145.305C385.688 145.963 384.853 146.48 383.889 146.856C382.925 147.232 381.867 147.42 380.715 147.42C379.563 147.42 378.506 147.232 377.542 146.856C376.578 146.48 375.743 145.963 375.038 145.305C374.333 144.623 373.78 143.823 373.381 142.907C372.981 141.966 372.781 140.932 372.781 139.803C372.781 138.699 372.981 137.688 373.381 136.771C373.78 135.83 374.333 135.031 375.038 134.373C375.743 133.691 376.578 133.174 377.542 132.821C378.506 132.445 379.563 132.257 380.715 132.257C381.867 132.257 382.925 132.445 383.889 132.821C384.853 133.174 385.688 133.691 386.393 134.373C387.098 135.031 387.65 135.83 388.05 136.771C388.45 137.688 388.65 138.699 388.65 139.803ZM398.417 158.916V160.503H377.683V150.665H379.552V158.916H398.417Z" fill="#333333"/>
</svg>
