<svg width="320" height="514" viewBox="0 0 320 514" fill="none" xmlns="http://www.w3.org/2000/svg">
<path d="M9.60328 9.376C9.61261 9.16133 9.61728 8.956 9.61728 8.76C9.61728 8.55467 9.61728 8.354 9.61728 8.158V8.018H2.14128V7.08H10.7513V8.158C10.7513 8.73667 10.7373 9.35733 10.7093 10.02C10.6813 10.6827 10.5786 11.4433 10.4013 12.302L9.26728 12.218C9.34194 11.8447 9.40261 11.4993 9.44928 11.182C9.49594 10.8553 9.52861 10.5427 9.54728 10.244L2.00128 10.594L1.83328 9.628L9.60328 9.376ZM3.38728 17.902H11.0173V18.84H2.23928V15.144H3.38728V17.902ZM12.1373 13.142V14.066H0.811275V13.142H5.41728V11.322H6.56528V13.142H12.1373ZM24.2042 15.9H23.0982V6.492H24.2042V15.9ZM20.6762 10.972H19.0102V10.034H20.6762V6.744H21.7682V15.578H20.6762V10.972ZM19.5982 13.478C19.2342 13.5527 18.8842 13.6133 18.5482 13.66C18.2122 13.6973 17.8622 13.73 17.4982 13.758C17.1342 13.7767 16.7468 13.7907 16.3362 13.8C15.9348 13.8093 15.4822 13.814 14.9782 13.814H14.1802V7.528H18.9262V8.452H15.2862V10.174H18.4222V11.07H15.2862V12.89C15.7248 12.89 16.1308 12.8853 16.5042 12.876C16.8775 12.8667 17.2275 12.848 17.5542 12.82C17.8902 12.792 18.2122 12.7593 18.5202 12.722C18.8375 12.6753 19.1595 12.6193 19.4862 12.554L19.5982 13.478ZM24.5682 17.818V18.756H16.0422V14.864H17.1902V17.818H24.5682ZM27.1011 13.45C27.6984 13.3473 28.2631 13.1747 28.7951 12.932C29.3364 12.6893 29.8078 12.3953 30.2091 12.05C30.6198 11.6953 30.9418 11.2987 31.1751 10.86C31.4084 10.412 31.5251 9.93133 31.5251 9.418H27.4791V8.494H31.5251V6.786H32.6871V8.494H36.7191V9.418H32.6871C32.6871 9.93133 32.8038 10.412 33.0371 10.86C33.2704 11.2987 33.5878 11.6953 33.9891 12.05C34.3998 12.3953 34.8711 12.6893 35.4031 12.932C35.9351 13.1747 36.5044 13.3473 37.1111 13.45L36.6491 14.388C36.1544 14.2853 35.6738 14.1453 35.2071 13.968C34.7498 13.7813 34.3204 13.562 33.9191 13.31C33.5271 13.0487 33.1771 12.75 32.8691 12.414C32.5611 12.078 32.3091 11.7093 32.1131 11.308C31.9171 11.7093 31.6604 12.078 31.3431 12.414C31.0351 12.75 30.6804 13.0487 30.2791 13.31C29.8871 13.562 29.4578 13.7813 28.9911 13.968C28.5338 14.1453 28.0531 14.2853 27.5491 14.388L27.1011 13.45ZM37.8111 16.488V17.426H26.4151V16.488H37.8111ZM52.5749 12.988H51.4269V6.492H52.5749V12.988ZM49.3129 12.624C48.5849 12.372 47.9455 11.9987 47.3949 11.504C46.8535 11 46.4382 10.412 46.1489 9.74C45.8782 10.468 45.4629 11.1027 44.9029 11.644C44.3522 12.1853 43.7035 12.5913 42.9569 12.862L42.3689 11.966C42.8449 11.798 43.2789 11.574 43.6709 11.294C44.0629 11.014 44.3989 10.692 44.6789 10.328C44.9589 9.964 45.1735 9.56733 45.3229 9.138C45.4815 8.70867 45.5609 8.26533 45.5609 7.808V6.856H46.7089V7.808C46.7089 8.24667 46.7882 8.66667 46.9469 9.068C47.1055 9.46933 47.3249 9.84267 47.6049 10.188C47.8849 10.5333 48.2162 10.8413 48.5989 11.112C48.9909 11.3733 49.4202 11.5787 49.8869 11.728L49.3129 12.624ZM53.0089 17.986V18.896H44.4829V15.774H51.4549V14.528H44.4549V13.618H52.5889V16.642H45.6169V17.986H53.0089ZM63.8438 7.808H57.6838V9.81H63.8438V7.808ZM64.9778 10.72H56.5638V6.898H64.9778V10.72ZM61.3378 12.694V13.926H64.9918V16.754H57.6138V18H65.3698V18.896H56.4938V15.914H63.8578V14.794H56.4518V13.926H60.1898V12.694H55.0798V11.77H66.4478V12.694H61.3378ZM74.3095 15.186C74.6082 15.186 74.8835 15.1067 75.1355 14.948C75.3875 14.7893 75.6022 14.5653 75.7795 14.276C75.9662 13.9773 76.1109 13.6227 76.2135 13.212C76.3162 12.8013 76.3675 12.3393 76.3675 11.826C76.3675 11.322 76.3162 10.8647 76.2135 10.454C76.1109 10.034 75.9662 9.67933 75.7795 9.39C75.6022 9.10067 75.3875 8.87667 75.1355 8.718C74.8835 8.55933 74.6082 8.48 74.3095 8.48C74.0015 8.48 73.7215 8.55933 73.4695 8.718C73.2175 8.87667 72.9982 9.10067 72.8115 9.39C72.6342 9.67933 72.4942 10.034 72.3915 10.454C72.2889 10.8647 72.2375 11.322 72.2375 11.826C72.2375 12.3393 72.2889 12.8013 72.3915 13.212C72.4942 13.6227 72.6342 13.9773 72.8115 14.276C72.9982 14.5653 73.2175 14.7893 73.4695 14.948C73.7215 15.1067 74.0015 15.186 74.3095 15.186ZM74.3095 7.444C74.7669 7.444 75.1869 7.54667 75.5695 7.752C75.9615 7.95733 76.2975 8.25133 76.5775 8.634C76.8575 9.01667 77.0722 9.47867 77.2215 10.02C77.3802 10.552 77.4595 11.154 77.4595 11.826C77.4595 12.498 77.3802 13.1047 77.2215 13.646C77.0722 14.178 76.8575 14.6353 76.5775 15.018C76.2975 15.4007 75.9615 15.6947 75.5695 15.9C75.1869 16.1053 74.7669 16.208 74.3095 16.208C73.8429 16.208 73.4135 16.1053 73.0215 15.9C72.6389 15.6947 72.3075 15.4007 72.0275 15.018C71.7475 14.6353 71.5282 14.178 71.3695 13.646C71.2202 13.1047 71.1455 12.498 71.1455 11.826C71.1455 11.154 71.2202 10.552 71.3695 10.02C71.5282 9.47867 71.7475 9.01667 72.0275 8.634C72.3075 8.25133 72.6389 7.95733 73.0215 7.752C73.4135 7.54667 73.8429 7.444 74.3095 7.444ZM82.6955 12.456H80.6235V19.036H79.4755V6.492H80.6235V11.49H82.6955V12.456ZM94.0484 6.478V19.064H92.9004V6.478H94.0484ZM87.4264 7.444C87.8931 7.444 88.3224 7.54667 88.7144 7.752C89.1064 7.95733 89.4424 8.25133 89.7224 8.634C90.0024 9.01667 90.2218 9.47867 90.3804 10.02C90.5391 10.552 90.6184 11.154 90.6184 11.826C90.6184 12.498 90.5391 13.1047 90.3804 13.646C90.2218 14.178 90.0024 14.6353 89.7224 15.018C89.4424 15.4007 89.1064 15.6947 88.7144 15.9C88.3224 16.1053 87.8931 16.208 87.4264 16.208C86.9598 16.208 86.5304 16.1053 86.1384 15.9C85.7464 15.6947 85.4104 15.4007 85.1304 15.018C84.8504 14.6353 84.6311 14.178 84.4724 13.646C84.3138 13.1047 84.2344 12.498 84.2344 11.826C84.2344 11.154 84.3138 10.552 84.4724 10.02C84.6311 9.47867 84.8504 9.01667 85.1304 8.634C85.4104 8.25133 85.7464 7.95733 86.1384 7.752C86.5304 7.54667 86.9598 7.444 87.4264 7.444ZM87.4264 8.48C87.1184 8.48 86.8338 8.55933 86.5724 8.718C86.3204 8.87667 86.1011 9.10067 85.9144 9.39C85.7278 9.67933 85.5831 10.034 85.4804 10.454C85.3778 10.8647 85.3264 11.322 85.3264 11.826C85.3264 12.3393 85.3778 12.8013 85.4804 13.212C85.5831 13.6227 85.7278 13.9773 85.9144 14.276C86.1011 14.5653 86.3204 14.7893 86.5724 14.948C86.8338 15.1067 87.1184 15.186 87.4264 15.186C87.7344 15.186 88.0144 15.1067 88.2664 14.948C88.5184 14.7893 88.7378 14.5653 88.9244 14.276C89.1111 13.9773 89.2558 13.6227 89.3584 13.212C89.4611 12.8013 89.5124 12.3393 89.5124 11.826C89.5124 11.322 89.4611 10.8647 89.3584 10.454C89.2558 10.034 89.1111 9.67933 88.9244 9.39C88.7378 9.10067 88.5184 8.87667 88.2664 8.718C88.0144 8.55933 87.7344 8.48 87.4264 8.48ZM103.651 10.566H101.985V9.642H103.651V6.688H104.743V13.912H103.651V10.566ZM102.573 12.946C102.219 13.0207 101.869 13.0813 101.523 13.128C101.187 13.1653 100.837 13.198 100.473 13.226C100.109 13.2447 99.722 13.2587 99.3113 13.268C98.91 13.2773 98.4573 13.282 97.9533 13.282H97.1553V7.29H101.901V8.214H98.2613V9.768H101.411V10.664H98.2613V12.358C98.7093 12.358 99.1153 12.3533 99.4793 12.344C99.8527 12.3347 100.207 12.316 100.543 12.288C100.879 12.26 101.201 12.2273 101.509 12.19C101.827 12.1433 102.149 12.0873 102.475 12.022L102.573 12.946ZM100.053 17.944H106.059V15.55H100.053V17.944ZM98.9333 14.64H107.179V18.868H98.9333V14.64ZM107.179 6.478V14.038H106.073V6.478H107.179ZM115.195 12.862C115.522 12.8527 115.853 12.8433 116.189 12.834C116.525 12.8247 116.861 12.8107 117.197 12.792V8.578H115.195V12.862ZM120.221 13.408C119.596 13.5107 118.947 13.59 118.275 13.646C117.612 13.702 116.95 13.7487 116.287 13.786C115.634 13.814 114.994 13.8327 114.369 13.842C113.744 13.8513 113.16 13.856 112.619 13.856L112.493 12.904C112.736 12.904 112.988 12.904 113.249 12.904C113.52 12.904 113.795 12.8993 114.075 12.89V8.578H112.843V7.654H119.549V8.578H118.303V12.722C118.938 12.694 119.549 12.638 120.137 12.554L120.221 13.408ZM115.531 17.818H122.755V18.756H114.383V14.864H115.531V17.818ZM124.057 10.3V11.252H122.195V15.732H121.047V6.478H122.195V10.3H124.057ZM126.786 14.752H129.418V8.844H126.786V14.752ZM125.708 7.934H130.482V15.662H125.708V7.934ZM135.928 6.478V19.022H134.836V12.386H133.142V18.406H132.064V6.758H133.142V11.448H134.836V6.478H135.928ZM139.693 14.92H143.207V8.662H139.693V14.92ZM138.573 7.738H144.327V15.844H138.573V7.738ZM149.801 12.456H147.729V19.036H146.581V6.492H147.729V11.49H149.801V12.456ZM161.518 15.004H160.426V6.492H161.518V15.004ZM155.666 11.084C155.283 11.812 154.756 12.4747 154.084 13.072C153.421 13.66 152.581 14.178 151.564 14.626L151.004 13.786C151.919 13.394 152.675 12.946 153.272 12.442C153.869 11.938 154.331 11.378 154.658 10.762L151.172 11.126L150.99 10.188L155.036 9.922C155.111 9.68867 155.171 9.45533 155.218 9.222C155.265 8.97933 155.297 8.732 155.316 8.48H151.578V7.542H156.45C156.45 8.00867 156.417 8.46133 156.352 8.9C156.287 9.32933 156.189 9.74933 156.058 10.16H157.948V6.702H159.026V13.884H157.948V11.084H155.666ZM157.878 14.668C157.878 15.088 157.995 15.4847 158.228 15.858C158.471 16.2313 158.793 16.572 159.194 16.88C159.595 17.1787 160.053 17.4353 160.566 17.65C161.079 17.8553 161.616 18 162.176 18.084L161.714 18.994C161.247 18.91 160.79 18.784 160.342 18.616C159.894 18.4573 159.479 18.2613 159.096 18.028C158.713 17.804 158.368 17.5427 158.06 17.244C157.752 16.9453 157.5 16.6187 157.304 16.264C157.108 16.6187 156.856 16.9453 156.548 17.244C156.249 17.5427 155.909 17.804 155.526 18.028C155.143 18.2613 154.728 18.4573 154.28 18.616C153.841 18.784 153.384 18.91 152.908 18.994L152.46 18.084C153.011 18 153.543 17.8553 154.056 17.65C154.569 17.4353 155.022 17.1787 155.414 16.88C155.815 16.572 156.133 16.2313 156.366 15.858C156.609 15.4847 156.73 15.088 156.73 14.668V14.276H157.878V14.668Z" fill="#333333"/>
<rect x="171" y="11.5" width="68" height="1" fill="#333333"/>
<path d="M256.014 6.92925C256.28 6.92925 256.486 6.98848 256.633 7.10036C256.792 7.21224 256.865 7.37019 256.865 7.56104C256.865 7.62027 256.852 7.71241 256.826 7.85719C256.639 8.47581 256.214 8.78513 255.549 8.78513H254.313L252.717 13.9842C252.644 14.1948 252.611 14.412 252.611 14.6357C252.611 14.8858 252.684 15.0635 252.824 15.1622C252.963 15.2609 253.163 15.307 253.422 15.307C253.648 15.307 253.934 15.2807 254.273 15.2215C254.446 15.182 254.592 15.1556 254.718 15.1556C254.818 15.1556 254.891 15.1885 254.931 15.2609C254.991 15.3202 255.017 15.3926 255.017 15.4913C255.031 15.7743 254.818 16.1165 254.379 16.5245C253.954 16.9194 253.375 17.2616 252.637 17.5577C251.899 17.8407 251.082 17.9789 250.191 17.9789C249.227 17.9789 248.456 17.7618 247.871 17.3274C247.286 16.8931 247 16.2942 247 15.5373C247 15.1885 247.06 14.8463 247.173 14.5239L248.536 10.3514C248.609 10.1145 248.642 9.92366 248.642 9.78546C248.642 9.50247 248.569 9.26555 248.429 9.06811C248.303 8.87068 248.117 8.66667 247.878 8.45607C247.665 8.25864 247.519 8.10069 247.432 7.96907C247.346 7.83087 247.326 7.66634 247.366 7.48207C247.425 7.2978 247.545 7.15959 247.725 7.06088C247.911 6.96216 248.197 6.91609 248.595 6.91609H249.785L251.128 5.58671C251.594 5.12603 252.019 4.80355 252.405 4.61928C252.804 4.43501 253.315 4.34288 253.934 4.34288C254.825 4.34288 255.277 4.67851 255.277 5.35637C255.277 5.56696 255.25 5.7644 255.19 5.94867L254.891 6.91609H256.021L256.014 6.92925ZM268.685 14.8924C268.659 14.9516 268.645 15.0306 268.645 15.1425C268.645 15.2412 268.665 15.3202 268.712 15.3728C268.772 15.432 268.838 15.4584 268.925 15.4584C269.097 15.4584 269.237 15.386 269.35 15.2478C269.476 15.0964 269.563 15.0174 269.603 15.0174C269.676 15.0174 269.729 15.0635 269.776 15.1622C269.815 15.2478 269.842 15.3531 269.842 15.4781C269.855 15.8861 269.722 16.2876 269.436 16.6759C269.151 17.0576 268.732 17.3735 268.18 17.6236C267.642 17.8605 266.99 17.9789 266.226 17.9789C265.288 17.9789 264.544 17.7683 263.992 17.3472C263.44 16.9128 263.154 16.3337 263.141 15.6229C263.141 15.103 263.267 14.5239 263.527 13.8723L264.697 10.8384C264.77 10.6542 264.803 10.5094 264.803 10.3975C264.803 10.2132 264.736 10.075 264.61 9.97631C264.497 9.86443 264.358 9.8052 264.185 9.8052C263.919 9.8052 263.64 9.93024 263.354 10.1869C263.088 10.4238 262.862 10.8187 262.696 11.3649V11.3254L261.353 15.6032C261.313 15.7743 261.286 15.9191 261.286 16.0441C261.286 16.2284 261.319 16.3731 261.393 16.485C261.466 16.5837 261.565 16.6825 261.692 16.7812C261.791 16.8799 261.865 16.9654 261.904 17.0313C261.944 17.0905 261.951 17.1629 261.924 17.2616C261.851 17.4459 261.712 17.5775 261.499 17.663C261.286 17.7486 260.96 17.7881 260.522 17.7881H255.669C255.303 17.7881 255.031 17.7289 254.858 17.617C254.685 17.4919 254.632 17.3274 254.685 17.13C254.745 16.9589 254.891 16.8141 255.13 16.689C255.343 16.5772 255.523 16.4455 255.662 16.2876C255.802 16.1362 255.928 15.8861 256.021 15.5505L259.252 5.04047C259.292 4.91543 259.318 4.81013 259.318 4.72458C259.318 4.57321 259.279 4.44159 259.192 4.34288C259.119 4.24416 259.019 4.14544 258.893 4.04673C258.753 3.93485 258.647 3.83613 258.574 3.75058C258.514 3.66502 258.507 3.55314 258.554 3.41494C258.64 3.09246 259.086 2.80948 259.897 2.57256C260.708 2.33564 261.552 2.21718 262.43 2.21718C263.254 2.21718 263.852 2.36854 264.238 2.67785C264.637 2.98717 264.836 3.40836 264.836 3.94143C264.836 4.25074 264.783 4.55347 264.69 4.84962L263.54 8.55479C264.092 7.83745 264.677 7.33728 265.282 7.06088C265.906 6.77789 266.578 6.63968 267.303 6.63968C268.167 6.63968 268.865 6.89635 269.39 7.41625C269.928 7.93616 270.201 8.60744 270.201 9.43666C270.201 9.87101 270.128 10.2988 269.988 10.72L268.692 14.8661L268.685 14.8924ZM276.344 6.65943C277.168 6.65943 277.766 6.81079 278.152 7.12011C278.537 7.42942 278.724 7.85061 278.724 8.38368C278.724 8.70615 278.677 9.01547 278.577 9.31162L276.623 15.6097C276.583 15.7808 276.556 15.9256 276.556 16.0507C276.556 16.2349 276.59 16.3797 276.663 16.4916C276.736 16.5903 276.836 16.689 276.962 16.7878C277.062 16.8865 277.135 16.972 277.175 17.0378C277.214 17.0971 277.221 17.1695 277.195 17.2682C277.121 17.4525 276.982 17.5841 276.769 17.6696C276.556 17.7552 276.231 17.7947 275.792 17.7947H270.939C270.573 17.7947 270.301 17.7354 270.128 17.6236C269.955 17.4985 269.902 17.334 269.955 17.1366C270.008 16.9654 270.161 16.8207 270.4 16.6956C270.613 16.5837 270.793 16.4521 270.932 16.2942C271.072 16.1428 271.192 15.8927 271.291 15.5571L273.139 9.46956C273.179 9.34452 273.206 9.23922 273.206 9.15367C273.206 9.0023 273.173 8.87726 273.099 8.79829C273.026 8.69957 272.92 8.60086 272.78 8.50214C272.641 8.39026 272.541 8.29154 272.481 8.20599C272.421 8.12043 272.415 8.00856 272.461 7.87035C272.548 7.54788 272.993 7.26489 273.804 7.02797C274.615 6.77789 275.459 6.64627 276.337 6.64627L276.344 6.65943ZM277.766 2.00658C278.318 2.00658 278.777 2.19085 279.149 2.55281C279.515 2.90161 279.701 3.33597 279.701 3.85587C279.701 4.21783 279.601 4.5798 279.402 4.92859C279.215 5.27739 278.95 5.56696 278.591 5.79072C278.252 6.00132 277.866 6.10661 277.44 6.10661C276.902 6.10661 276.45 5.92892 276.078 5.58013C275.725 5.21816 275.539 4.76407 275.526 4.231C275.526 3.8822 275.619 3.5334 275.805 3.19776C275.991 2.84896 276.251 2.55939 276.59 2.33564C276.929 2.11188 277.321 2 277.76 2L277.766 2.00658ZM291.707 14.8924C291.68 14.9516 291.667 15.0306 291.667 15.1425C291.667 15.2412 291.687 15.3202 291.733 15.3728C291.787 15.432 291.86 15.4584 291.946 15.4584C292.119 15.4584 292.259 15.386 292.372 15.2478C292.498 15.0964 292.584 15.0174 292.624 15.0174C292.697 15.0174 292.75 15.0635 292.797 15.1622C292.837 15.2478 292.863 15.3531 292.863 15.4781C292.877 15.8861 292.744 16.2876 292.458 16.6759C292.172 17.0576 291.753 17.3735 291.202 17.6236C290.663 17.8605 290.012 17.9789 289.247 17.9789C288.31 17.9789 287.565 17.7683 287.013 17.3472C286.462 16.9128 286.176 16.3337 286.162 15.6229C286.162 15.103 286.289 14.5239 286.548 13.8723L287.718 10.8384C287.791 10.6542 287.824 10.5094 287.824 10.3975C287.824 10.2132 287.758 10.075 287.632 9.97631C287.519 9.86443 287.379 9.8052 287.206 9.8052C286.894 9.8052 286.595 9.94998 286.315 10.2461C286.03 10.5291 285.823 10.8779 285.697 11.2991L284.381 15.5966C284.321 15.7479 284.294 15.8993 284.294 16.0375C284.294 16.2086 284.328 16.3468 284.401 16.4587C284.474 16.5574 284.574 16.6627 284.7 16.7746C284.8 16.8602 284.873 16.9391 284.913 17.0049C284.953 17.0773 284.959 17.1563 284.933 17.255C284.873 17.4393 284.74 17.5709 284.527 17.6565C284.314 17.742 283.982 17.7815 283.53 17.7815H278.677C278.311 17.7815 278.045 17.7223 277.893 17.6104C277.72 17.4854 277.66 17.3208 277.7 17.1234C277.76 16.9523 277.906 16.8075 278.145 16.6825C278.358 16.5706 278.537 16.439 278.677 16.281C278.817 16.1296 278.936 15.8796 279.036 15.5439L280.931 9.4564C280.957 9.38401 280.97 9.28529 280.97 9.16025C280.97 9.00888 280.937 8.88384 280.864 8.80487C280.804 8.71932 280.711 8.61402 280.565 8.48898C280.425 8.3771 280.326 8.27838 280.266 8.19283C280.206 8.10727 280.199 7.99539 280.246 7.85719C280.332 7.53472 280.778 7.25173 281.589 7.01481C282.4 6.76473 283.237 6.6331 284.122 6.6331C284.833 6.6331 285.391 6.83054 285.803 7.2254C286.216 7.60711 286.402 8.14018 286.355 8.82461C286.934 7.99539 287.552 7.42942 288.203 7.12011C288.855 6.79763 289.566 6.6331 290.331 6.6331C291.195 6.6331 291.893 6.88977 292.418 7.40967C292.957 7.92958 293.229 8.60086 293.229 9.43008C293.229 9.86443 293.156 10.2922 293.016 10.7134L291.72 14.8595L291.707 14.8924ZM306.718 8.37052C306.751 8.41658 306.784 8.46923 306.817 8.5153C307.07 8.92991 307.17 9.42349 307.17 9.92366C307.17 10.1935 307.136 10.516 307.063 10.8911C306.89 11.6216 306.518 12.2863 305.933 12.8917C305.368 13.4972 304.63 13.971 303.719 14.3264C302.829 14.6621 301.838 14.8332 300.761 14.8332C299.937 14.8332 299.166 14.7739 298.441 14.6621C298.228 14.8463 298.122 15.0701 298.122 15.3333C298.122 15.5176 298.208 15.669 298.375 15.794C298.547 15.9059 298.827 15.9651 299.225 15.9651H302.416C303.507 15.9651 304.358 16.156 304.969 16.5311C305.581 16.8931 305.887 17.4195 305.887 18.1106C305.887 18.3606 305.847 18.6239 305.76 18.8871C305.587 19.4334 305.202 19.9401 304.59 20.4008C303.992 20.8812 303.148 21.2629 302.057 21.5591C300.967 21.8552 299.638 22 298.082 22C296.693 22 295.516 21.8815 294.552 21.6446C293.588 21.4077 292.87 21.0786 292.405 20.6575C291.919 20.2494 291.68 19.7953 291.68 19.2886C291.68 19.1767 291.707 19.0056 291.767 18.7818C291.893 18.3738 292.185 18.0448 292.637 17.7947C293.076 17.5248 293.807 17.3537 294.831 17.2682C294.492 16.9457 294.319 16.5574 294.319 16.1099C294.319 15.9585 294.339 15.794 294.386 15.6229C294.612 14.8924 295.277 14.3527 296.387 14.0039C295.323 13.4314 294.791 12.589 294.791 11.4768C294.791 11.1675 294.831 10.845 294.918 10.5094C295.091 9.77887 295.463 9.12076 296.048 8.52846C296.626 7.923 297.371 7.44916 298.281 7.09378C299.192 6.74498 300.183 6.56729 301.26 6.56729C302.23 6.56729 303.221 6.6331 304.165 6.86344C304.756 7.00823 305.348 7.23198 305.86 7.56104C306.192 7.77164 306.492 8.04146 306.724 8.36394L306.718 8.37052ZM302.044 10.7068C302.27 9.98947 302.383 9.44324 302.383 9.06153C302.383 8.58111 302.177 8.34419 301.765 8.34419C301.413 8.34419 301.1 8.52188 300.828 8.87068C300.575 9.20632 300.309 9.81836 300.043 10.7002C299.817 11.4307 299.704 11.9835 299.704 12.3653C299.704 12.8259 299.904 13.0628 300.302 13.0628C300.655 13.0628 300.967 12.8852 301.24 12.5364C301.506 12.1876 301.778 11.5755 302.051 10.7068H302.044ZM297.809 18.0974C297.411 18.0974 297.052 18.0777 296.726 18.0316C296.553 18.2422 296.473 18.5252 296.473 18.874C296.487 19.2228 296.626 19.4794 296.899 19.6308C297.185 19.7822 297.617 19.8611 298.195 19.8611C298.906 19.8611 299.478 19.7558 299.917 19.5452C300.369 19.3347 300.595 19.0319 300.595 18.6371C300.595 18.4659 300.528 18.3343 300.402 18.2356C300.276 18.1369 300.09 18.0908 299.85 18.0908H297.809V18.0974ZM314.27 6.46199C315.446 6.46199 316.463 6.56729 317.314 6.77789C318.178 6.98848 318.837 7.28463 319.295 7.65976C319.761 8.04146 320 8.46923 320 8.94307C320 9.41691 319.801 9.83152 319.402 10.1408C319.016 10.4501 318.478 10.6015 317.786 10.6015C317.095 10.6015 316.477 10.4238 315.978 10.075C315.499 9.72623 315.253 9.27871 315.253 8.74564C315.253 8.56137 315.28 8.39026 315.34 8.21915C315.087 8.14676 314.855 8.11385 314.662 8.11385C314.309 8.11385 314.01 8.19941 313.771 8.36394C313.545 8.53504 313.439 8.77196 313.452 9.08128C313.452 9.44324 313.638 9.75255 314.004 10.0092C314.369 10.2593 314.968 10.5752 315.792 10.9569C316.503 11.2662 317.082 11.5558 317.534 11.819C317.999 12.0691 318.391 12.3916 318.704 12.7864C319.029 13.1813 319.196 13.642 319.196 14.1751C319.196 14.2869 319.169 14.4975 319.109 14.8068C318.883 15.7479 318.252 16.4916 317.215 17.0378C316.177 17.5841 314.815 17.8605 313.133 17.8605C311.231 17.8605 309.722 17.6104 308.599 17.1037C307.495 16.5969 306.937 15.9059 306.937 15.0174C306.937 14.412 307.123 13.9579 307.489 13.6486C307.854 13.3393 308.346 13.1879 308.958 13.1879C309.669 13.1879 310.268 13.4051 310.766 13.8394C311.278 14.2738 311.531 14.8266 311.531 15.5044C311.531 15.6887 311.511 15.8796 311.464 16.0704C311.803 16.156 312.129 16.1955 312.441 16.1955C312.807 16.1955 313.113 16.0967 313.359 15.8993C313.598 15.7019 313.718 15.4321 313.718 15.0767C313.704 14.7542 313.538 14.4778 313.226 14.254C312.913 14.0171 312.415 13.7341 311.737 13.4116C311.099 13.1155 310.573 12.8457 310.161 12.589C309.749 12.3192 309.397 11.9901 309.098 11.6018C308.812 11.207 308.672 10.7463 308.672 10.2132C308.672 9.06153 309.157 8.14676 310.121 7.47549C311.099 6.78447 312.481 6.44225 314.27 6.44225V6.46199Z" fill="#333333"/>
<path d="M13.48 85.8C13.48 87.2933 13.5867 88.7867 13.8 90.28C14.0133 91.7467 14.3733 93.16 14.88 94.52C15.4133 95.8533 16.0933 97.0933 16.92 98.24C17.7733 99.3867 18.8267 100.373 20.08 101.2L17.2 105.28C15.6267 104.32 14.3333 103.093 13.32 101.6C12.3333 100.08 11.5467 98.3867 10.96 96.52C10.32 98.5733 9.45333 100.44 8.36 102.12C7.26667 103.773 5.88 105.107 4.2 106.12L1.04 102.16C2.4 101.333 3.54667 100.32 4.48 99.12C5.41333 97.92 6.16 96.6133 6.72 95.2C7.30667 93.7867 7.73333 92.2933 8 90.72C8.26667 89.1467 8.4 87.5733 8.4 86V79.8H13.48V85.8ZM20.84 77.2H25.76V111.8H20.84V93.32H16.24V89.04H20.84V77.2ZM33.32 76.6V113.44H28.32V76.6H33.32ZM57.2769 97C55.3302 96.36 53.6769 95.4533 52.3169 94.28C50.9835 93.08 49.9302 91.6933 49.1569 90.12C48.3569 91.96 47.2369 93.56 45.7969 94.92C44.3835 96.28 42.6235 97.32 40.5169 98.04L37.7569 93.88C39.3035 93.3733 40.6235 92.7067 41.7169 91.88C42.8102 91.0267 43.7035 90.08 44.3969 89.04C45.0902 87.9733 45.5969 86.84 45.9169 85.64C46.2369 84.4133 46.3969 83.1733 46.3969 81.92V78.6H51.7569V82.36C51.7569 83.48 51.9169 84.5733 52.2369 85.64C52.5569 86.7067 53.0502 87.7067 53.7169 88.64C54.3835 89.5733 55.2369 90.4133 56.2769 91.16C57.3435 91.88 58.5969 92.4667 60.0369 92.92L57.2769 97ZM55.2769 109.36C57.6235 109.36 59.4102 109.12 60.6369 108.64C61.8635 108.133 62.4769 107.36 62.4769 106.32C62.4769 105.307 61.8635 104.56 60.6369 104.08C59.4102 103.573 57.6235 103.32 55.2769 103.32C52.9035 103.32 51.1035 103.573 49.8769 104.08C48.6502 104.56 48.0369 105.307 48.0369 106.32C48.0369 107.36 48.6502 108.133 49.8769 108.64C51.1035 109.12 52.9035 109.36 55.2769 109.36ZM55.2769 99.24C57.1969 99.24 58.9169 99.4 60.4369 99.72C61.9835 100.04 63.2902 100.507 64.3569 101.12C65.4502 101.733 66.2769 102.48 66.8369 103.36C67.4235 104.213 67.7169 105.2 67.7169 106.32C67.7169 107.44 67.4235 108.44 66.8369 109.32C66.2769 110.2 65.4502 110.947 64.3569 111.56C63.2902 112.173 61.9835 112.64 60.4369 112.96C58.9169 113.28 57.1969 113.44 55.2769 113.44C53.3569 113.44 51.6235 113.28 50.0769 112.96C48.5302 112.64 47.2102 112.173 46.1169 111.56C45.0502 110.947 44.2235 110.2 43.6369 109.32C43.0769 108.44 42.7969 107.44 42.7969 106.32C42.7969 105.2 43.0769 104.213 43.6369 103.36C44.2235 102.48 45.0502 101.733 46.1169 101.12C47.2102 100.507 48.5302 100.04 50.0769 99.72C51.6235 99.4 53.3569 99.24 55.2769 99.24ZM72.1969 85.16V89.52H67.3169V98.4H62.0369V76.64H67.3169V85.16H72.1969ZM83.1937 101C84.2071 101 84.9937 100.307 85.5537 98.92C86.1137 97.5333 86.3937 95.4133 86.3937 92.56C86.3937 89.7333 86.1137 87.6267 85.5537 86.24C84.9937 84.8533 84.2071 84.16 83.1937 84.16C82.1804 84.16 81.3937 84.8533 80.8337 86.24C80.2737 87.6267 79.9937 89.7333 79.9937 92.56C79.9937 95.4133 80.2737 97.5333 80.8337 98.92C81.3937 100.307 82.1804 101 83.1937 101ZM94.0337 77.2H98.9538V111.8H94.0337V94.44H91.1537C90.9137 98.0667 90.0871 100.893 88.6737 102.92C87.2871 104.947 85.4604 105.96 83.1937 105.96C81.9671 105.96 80.8604 105.653 79.8737 105.04C78.9137 104.427 78.0871 103.547 77.3937 102.4C76.7004 101.253 76.1671 99.8533 75.7937 98.2C75.4204 96.52 75.2337 94.64 75.2337 92.56C75.2337 90.48 75.4204 88.6133 75.7937 86.96C76.1671 85.3067 76.7004 83.9067 77.3937 82.76C78.0871 81.6133 78.9137 80.7333 79.8737 80.12C80.8604 79.5067 81.9671 79.2 83.1937 79.2C85.3804 79.2 87.1671 80.16 88.5537 82.08C89.9671 84 90.8204 86.6933 91.1137 90.16H94.0337V77.2ZM106.514 76.56V113.4H101.514V76.56H106.514ZM141.733 96.04C140.613 96.28 139.48 96.48 138.333 96.64C137.213 96.8 135.986 96.9333 134.653 97.04C133.346 97.12 131.893 97.1733 130.293 97.2C128.693 97.2267 126.88 97.24 124.853 97.24H121.773V79.52H138.253V83.72H127.013V93C128.64 93 130.106 92.9867 131.413 92.96C132.746 92.9067 133.96 92.84 135.053 92.76C136.173 92.6533 137.226 92.5333 138.213 92.4C139.2 92.2667 140.2 92.0933 141.213 91.88L141.733 96.04ZM130.893 108.6H150.693V112.8H125.613V100.44H130.893V108.6ZM154.253 86.64V90.96H149.373V103.24H144.093V76.6H149.373V86.64H154.253ZM176.473 101.6C177.726 101.6 178.753 101.213 179.553 100.44C180.353 99.64 180.753 98.52 180.753 97.08C180.753 95.6933 180.353 94.6 179.553 93.8C178.753 93 177.726 92.6 176.473 92.6C175.219 92.6 174.179 93 173.353 93.8C172.553 94.6 172.153 95.7067 172.153 97.12C172.153 98.5333 172.553 99.64 173.353 100.44C174.179 101.213 175.219 101.6 176.473 101.6ZM176.473 88.32C177.806 88.32 179.033 88.5333 180.153 88.96C181.299 89.3867 182.286 90 183.113 90.8C183.939 91.5733 184.579 92.4933 185.033 93.56C185.513 94.6267 185.753 95.8 185.753 97.08C185.753 98.3867 185.513 99.5867 185.033 100.68C184.579 101.747 183.939 102.68 183.113 103.48C182.286 104.253 181.299 104.853 180.153 105.28C179.033 105.707 177.806 105.92 176.473 105.92C175.139 105.92 173.899 105.707 172.753 105.28C171.606 104.853 170.606 104.253 169.753 103.48C168.926 102.68 168.273 101.747 167.793 100.68C167.339 99.5867 167.113 98.3867 167.113 97.08C167.113 95.8 167.339 94.6267 167.793 93.56C168.273 92.4933 168.926 91.5733 169.753 90.8C170.606 90 171.606 89.3867 172.753 88.96C173.899 88.5333 175.139 88.32 176.473 88.32ZM179.073 82.04H187.073V86.24H165.633V82.04H173.793V77.24H179.073V82.04ZM200.033 95.36H194.753V113.44H189.473V76.6H194.753V91H200.033V95.36ZM208.829 100C211.176 99.9467 213.576 99.8133 216.029 99.6C218.509 99.36 221.043 98.9867 223.629 98.48L224.149 102.8C221.083 103.44 218.083 103.867 215.149 104.08C212.243 104.293 209.443 104.4 206.749 104.4H203.549V80.08H208.829V100ZM236.429 94.84H231.269V113.36H225.989V76.56H231.269V90.48H236.429V94.84ZM273.609 85.44H270.489V88.72H273.609V85.44ZM278.569 92.92H265.569V77.84H270.489V81.4H273.609V77.84H278.569V92.92ZM258.609 85.44H255.409V88.72H258.609V85.44ZM263.529 92.92H250.449V77.84H255.409V81.4H258.609V77.84H263.529V92.92ZM257.009 108.68H277.529V112.92H251.729V102.88H257.009V108.68ZM281.249 95.56V99.72H267.649V105.64H262.369V99.72H247.849V95.56H281.249ZM315.086 103.08H309.766V76.64H315.086V103.08ZM290.166 88.32C290.166 89.8133 290.632 90.9867 291.566 91.84C292.526 92.6667 293.686 93.08 295.046 93.08C296.432 93.08 297.579 92.6667 298.486 91.84C299.419 90.9867 299.886 89.8133 299.886 88.32C299.886 86.8 299.419 85.6267 298.486 84.8C297.579 83.9467 296.432 83.52 295.046 83.52C293.686 83.52 292.526 83.9467 291.566 84.8C290.632 85.6267 290.166 86.8 290.166 88.32ZM305.046 88.32C305.046 89.6533 304.792 90.8933 304.286 92.04C303.779 93.1867 303.072 94.1733 302.166 95C301.259 95.8267 300.192 96.48 298.966 96.96C297.766 97.4133 296.459 97.64 295.046 97.64C293.632 97.64 292.312 97.4133 291.086 96.96C289.859 96.48 288.792 95.8267 287.886 95C287.006 94.1733 286.299 93.1867 285.766 92.04C285.259 90.8933 285.006 89.6533 285.006 88.32C285.006 86.96 285.259 85.7067 285.766 84.56C286.299 83.4133 287.006 82.4267 287.886 81.6C288.792 80.7733 289.859 80.1333 291.086 79.68C292.312 79.2 293.632 78.96 295.046 78.96C296.459 78.96 297.766 79.2 298.966 79.68C300.192 80.1333 301.259 80.7733 302.166 81.6C303.072 82.4267 303.779 83.4133 304.286 84.56C304.792 85.7067 305.046 86.96 305.046 88.32ZM316.006 108.6V112.8H290.566V100.48H295.846V108.6H316.006Z" fill="#333333"/>
<path d="M25.96 143.88C25.9867 143.427 26 142.987 26 142.56C26 142.107 26 141.653 26 141.2H5.48V137H31.24V140.48C31.24 142.293 31.1867 144.173 31.08 146.12C31 148.04 30.7067 150.2 30.2 152.6L25 152.24C25.16 151.413 25.2933 150.64 25.4 149.92C25.5333 149.173 25.64 148.453 25.72 147.76L5.12 148.68L4.52 144.32L25.96 143.88ZM10.92 167.68H31.84V171.92H5.64V160.96H10.92V167.68ZM34.96 154.48V158.64H1.8V154.48H14.08V150H19.36V154.48H34.96ZM69.7169 163.12H64.7169V135.6H69.7169V163.12ZM57.4769 149.84H53.8769V145.64H57.4769V136.32H62.3969V162.32H57.4769V149.84ZM55.3569 157.16C54.3169 157.347 53.3035 157.493 52.3169 157.6C51.3302 157.707 50.3169 157.8 49.2769 157.88C48.2635 157.933 47.1835 157.973 46.0369 158C44.8902 158 43.6369 158 42.2769 158H39.7569V138.44H53.5969V142.6H44.8369V146.16H52.3169V150.12H44.8369V153.84C46.7835 153.813 48.5302 153.747 50.0769 153.64C51.6502 153.533 53.2635 153.333 54.9169 153.04L55.3569 157.16ZM70.6369 167.6V171.8H45.1969V160.2H50.4769V167.6H70.6369ZM76.0337 154.88C78.1137 154.587 79.9404 154.107 81.5137 153.44C83.0871 152.773 84.3937 151.987 85.4337 151.08C86.5004 150.173 87.3137 149.187 87.8737 148.12C88.4604 147.053 88.7937 145.973 88.8737 144.88H77.7937V140.68H88.9537V136.16H94.2337V140.68H105.394V144.88H94.3137C94.3937 145.973 94.7137 147.053 95.2738 148.12C95.8604 149.187 96.6737 150.173 97.7137 151.08C98.7804 151.987 100.087 152.773 101.634 153.44C103.207 154.107 105.034 154.587 107.114 154.88L105.194 159.16C101.914 158.68 99.1271 157.747 96.8337 156.36C94.5671 154.973 92.8204 153.28 91.5937 151.28C90.3671 153.28 88.6071 154.973 86.3137 156.36C84.0471 157.747 81.2737 158.68 77.9937 159.16L76.0337 154.88ZM108.274 163.92V168.2H74.9137V163.92H108.274ZM135.591 139.8H115.591V136.24H140.791V144.92H120.871V146.84H141.431V150.4H115.671V141.6H135.591V139.8ZM120.551 168.56H141.911V172.12H115.311V163.24H135.671V161.36H115.271V157.8H140.911V166.56H120.551V168.56ZM144.871 152.16V155.96H111.511V152.16H144.871ZM176.01 138.36C176.01 140.867 175.623 143.173 174.85 145.28C174.103 147.387 172.997 149.28 171.53 150.96C170.09 152.64 168.303 154.107 166.17 155.36C164.063 156.613 161.637 157.64 158.89 158.44L156.69 154.24C160.823 153.12 164.01 151.547 166.25 149.52C168.517 147.467 169.863 145.147 170.29 142.56H158.29V138.36H176.01ZM167.45 167.6H187.21V171.8H162.17V159.32H167.45V167.6ZM190.85 145.88V150.2H185.93V161.96H180.65V135.6H185.93V145.88H190.85ZM213.847 156.56C211.794 155.92 210.06 154.973 208.647 153.72C207.26 152.467 206.14 151.013 205.287 149.36C204.46 151.173 203.314 152.773 201.847 154.16C200.38 155.52 198.567 156.547 196.407 157.24L193.727 153.12C195.22 152.64 196.514 152 197.607 151.2C198.7 150.4 199.607 149.507 200.327 148.52C201.047 147.533 201.58 146.48 201.927 145.36C202.3 144.24 202.5 143.107 202.527 141.96H195.127V137.8H215.167V141.96H207.887C207.914 143.053 208.1 144.133 208.447 145.2C208.794 146.24 209.327 147.227 210.047 148.16C210.767 149.067 211.66 149.907 212.727 150.68C213.794 151.427 215.06 152.04 216.527 152.52L213.847 156.56ZM199.087 159.44H224.167V172.48H218.847V163.64H199.087V159.44ZM224.167 135.6V157.8H218.847V135.6H224.167ZM240.804 160.6C242.057 160.6 243.084 160.213 243.884 159.44C244.684 158.64 245.084 157.52 245.084 156.08C245.084 154.693 244.684 153.6 243.884 152.8C243.084 152 242.057 151.6 240.804 151.6C239.55 151.6 238.51 152 237.684 152.8C236.884 153.6 236.484 154.707 236.484 156.12C236.484 157.533 236.884 158.64 237.684 159.44C238.51 160.213 239.55 160.6 240.804 160.6ZM240.804 147.32C242.137 147.32 243.364 147.533 244.484 147.96C245.63 148.387 246.617 149 247.444 149.8C248.27 150.573 248.91 151.493 249.364 152.56C249.844 153.627 250.084 154.8 250.084 156.08C250.084 157.387 249.844 158.587 249.364 159.68C248.91 160.747 248.27 161.68 247.444 162.48C246.617 163.253 245.63 163.853 244.484 164.28C243.364 164.707 242.137 164.92 240.804 164.92C239.47 164.92 238.23 164.707 237.084 164.28C235.937 163.853 234.937 163.253 234.084 162.48C233.257 161.68 232.604 160.747 232.124 159.68C231.67 158.587 231.444 157.387 231.444 156.08C231.444 154.8 231.67 153.627 232.124 152.56C232.604 151.493 233.257 150.573 234.084 149.8C234.937 149 235.937 148.387 237.084 147.96C238.23 147.533 239.47 147.32 240.804 147.32ZM243.404 141.04H251.404V145.24H229.964V141.04H238.124V136.24H243.404V141.04ZM264.364 154.36H259.084V172.44H253.804V135.6H259.084V150H264.364V154.36ZM296.441 149.76H270.881V136.92H276.161V145.56H296.441V149.76ZM275.841 167.44H296.641V171.68H270.521V160.68H275.841V167.44ZM300.121 153.52V157.76H266.761V153.52H300.121Z" fill="#333333"/>
<path d="M33.32 194.56H34.32V193.56H33.32V194.56ZM33.32 231.4V232.4H34.32V231.4H33.32ZM28.32 231.4H27.32V232.4H28.32V231.4ZM28.32 213.16H29.32V212.16H28.32V213.16ZM25.36 213.16V212.16H24.36V213.16H25.36ZM25.36 229.76V230.76H26.36V229.76H25.36ZM20.44 229.76H19.44V230.76H20.44V229.76ZM20.44 218.88H21.44V215.864L19.6381 218.283L20.44 218.88ZM17.4 222.96L16.9118 223.833L17.6776 224.261L18.2019 223.557L17.4 222.96ZM13.48 219.52L12.6622 220.095L12.6683 220.104L12.6746 220.113L13.48 219.52ZM11.04 214.64L11.9873 214.32L11.0074 211.422L10.0864 214.339L11.04 214.64ZM8.44 220.12L9.26567 220.684L9.26995 220.678L8.44 220.12ZM4.32 224.04L3.55632 224.686L4.11058 225.341L4.84256 224.893L4.32 224.04ZM1.04 220.16L0.527935 219.301L-0.485051 219.905L0.276315 220.806L1.04 220.16ZM4.52 217.12L3.73906 216.495L3.73065 216.506L4.52 217.12ZM6.84 213.2L7.76361 213.583L7.76609 213.577L6.84 213.2ZM8.12 208.72L9.10546 208.89L9.10594 208.887L8.12 208.72ZM8.52 197.8V196.8H7.52V197.8H8.52ZM13.64 197.8H14.64V196.8H13.64V197.8ZM13.96 208.28L12.9697 208.419L12.9711 208.429L12.9727 208.439L13.96 208.28ZM15.12 212.52L16.0485 212.149V212.149L15.12 212.52ZM17.2 216.12L16.4191 216.745L16.4238 216.751L16.4286 216.756L17.2 216.12ZM20.44 218.8L19.9497 219.672L21.44 220.51V218.8H20.44ZM20.44 195.2V194.2H19.44V195.2H20.44ZM25.36 195.2H26.36V194.2H25.36V195.2ZM25.36 208.92H24.36V209.92H25.36V208.92ZM28.32 208.92V209.92H29.32V208.92H28.32ZM28.32 194.56V193.56H27.32V194.56H28.32ZM32.32 194.56V231.4H34.32V194.56H32.32ZM33.32 230.4H28.32V232.4H33.32V230.4ZM29.32 231.4V213.16H27.32V231.4H29.32ZM28.32 212.16H25.36V214.16H28.32V212.16ZM24.36 213.16V229.76H26.36V213.16H24.36ZM25.36 228.76H20.44V230.76H25.36V228.76ZM21.44 229.76V218.88H19.44V229.76H21.44ZM19.6381 218.283L16.5981 222.363L18.2019 223.557L21.2419 219.477L19.6381 218.283ZM17.8882 222.087C16.4359 221.275 15.2385 220.223 14.2854 218.927L12.6746 220.113C13.8015 221.644 15.2175 222.885 16.9118 223.833L17.8882 222.087ZM14.2978 218.945C13.3442 217.589 12.5726 216.05 11.9873 214.32L10.0927 214.96C10.7341 216.857 11.5891 218.571 12.6622 220.095L14.2978 218.945ZM10.0864 214.339C9.47275 216.282 8.64584 218.021 7.61005 219.562L9.26995 220.678C10.4208 218.966 11.3272 217.051 11.9936 214.941L10.0864 214.339ZM7.61436 219.556C6.60064 221.039 5.33062 222.248 3.79744 223.187L4.84256 224.893C6.61605 223.806 8.0927 222.401 9.26565 220.684L7.61436 219.556ZM5.08368 223.394L1.80368 219.514L0.276315 220.806L3.55632 224.686L5.08368 223.394ZM1.55206 221.019C3.03891 220.133 4.295 219.038 5.30935 217.734L3.73065 216.506C2.87834 217.602 1.81442 218.534 0.527935 219.301L1.55206 221.019ZM5.30087 217.745C6.31929 216.472 7.14076 215.084 7.76359 213.583L5.91641 212.817C5.3659 214.143 4.64071 215.368 3.73913 216.495L5.30087 217.745ZM7.76609 213.577C8.38022 212.07 8.82666 210.507 9.10546 208.89L7.13454 208.55C6.88001 210.026 6.47311 211.45 5.91391 212.823L7.76609 213.577ZM9.10594 208.887C9.38183 207.259 9.52 205.63 9.52 204H7.52C7.52 205.517 7.3915 207.034 7.13406 208.553L9.10594 208.887ZM9.52 204V197.8H7.52V204H9.52ZM8.52 198.8H13.64V196.8H8.52V198.8ZM12.64 197.8V203.6H14.64V197.8H12.64ZM12.64 203.6C12.64 205.245 12.7496 206.851 12.9697 208.419L14.9503 208.141C14.7437 206.669 14.64 205.155 14.64 203.6H12.64ZM12.9727 208.439C13.2238 210.001 13.6294 211.486 14.1915 212.891L16.0485 212.149C15.544 210.887 15.1762 209.546 14.9473 208.121L12.9727 208.439ZM14.1915 212.891C14.7595 214.311 15.5013 215.597 16.4191 216.745L17.9809 215.495C17.192 214.509 16.5472 213.395 16.0485 212.149L14.1915 212.891ZM16.4286 216.756C17.3918 217.924 18.5691 218.895 19.9497 219.672L20.9303 217.928C19.7509 217.265 18.7682 216.449 17.9714 215.484L16.4286 216.756ZM21.44 218.8V195.2H19.44V218.8H21.44ZM20.44 196.2H25.36V194.2H20.44V196.2ZM24.36 195.2V208.92H26.36V195.2H24.36ZM25.36 209.92H28.32V207.92H25.36V209.92ZM29.32 208.92V194.56H27.32V208.92H29.32ZM28.32 195.56H33.32V193.56H28.32V195.56ZM71.6769 223.08H72.6769V222.08H71.6769V223.08ZM71.6769 227.4V228.4H72.6769V227.4H71.6769ZM38.3169 227.4H37.3169V228.4H38.3169V227.4ZM38.3169 223.08V222.08H37.3169V223.08H38.3169ZM52.3169 223.08V224.08H53.3169V223.08H52.3169ZM52.3169 217.6H53.3169V216.6H52.3169V217.6ZM42.1569 217.6H41.1569V218.6H42.1569V217.6ZM42.1569 205.12V204.12H41.1569V205.12H42.1569ZM62.7169 205.12V206.12H63.7169V205.12H62.7169ZM62.7169 201.16H63.7169V200.16H62.7169V201.16ZM42.1169 201.16H41.1169V202.16H42.1169V201.16ZM42.1169 196.96V195.96H41.1169V196.96H42.1169ZM67.9169 196.96H68.9169V195.96H67.9169V196.96ZM67.9169 209.24V210.24H68.9169V209.24H67.9169ZM47.3969 209.24V208.24H46.3969V209.24H47.3969ZM47.3969 213.36H46.3969V214.36H47.3969V213.36ZM68.7569 213.36H69.7569V212.36H68.7569V213.36ZM68.7569 217.6V218.6H69.7569V217.6H68.7569ZM57.5969 217.6V216.6H56.5969V217.6H57.5969ZM57.5969 223.08H56.5969V224.08H57.5969V223.08ZM70.6769 223.08V227.4H72.6769V223.08H70.6769ZM71.6769 226.4H38.3169V228.4H71.6769V226.4ZM39.3169 227.4V223.08H37.3169V227.4H39.3169ZM38.3169 224.08H52.3169V222.08H38.3169V224.08ZM53.3169 223.08V217.6H51.3169V223.08H53.3169ZM52.3169 216.6H42.1569V218.6H52.3169V216.6ZM43.1569 217.6V205.12H41.1569V217.6H43.1569ZM42.1569 206.12H62.7169V204.12H42.1569V206.12ZM63.7169 205.12V201.16H61.7169V205.12H63.7169ZM62.7169 200.16H42.1169V202.16H62.7169V200.16ZM43.1169 201.16V196.96H41.1169V201.16H43.1169ZM42.1169 197.96H67.9169V195.96H42.1169V197.96ZM66.9169 196.96V209.24H68.9169V196.96H66.9169ZM67.9169 208.24H47.3969V210.24H67.9169V208.24ZM46.3969 209.24V213.36H48.3969V209.24H46.3969ZM47.3969 214.36H68.7569V212.36H47.3969V214.36ZM67.7569 213.36V217.6H69.7569V213.36H67.7569ZM68.7569 216.6H57.5969V218.6H68.7569V216.6ZM56.5969 217.6V223.08H58.5969V217.6H56.5969ZM57.5969 224.08H71.6769V222.08H57.5969V224.08ZM86.0338 200.36L86.421 201.282L86.4298 201.278L86.0338 200.36ZM86.0338 205.52L85.631 206.435L85.6419 206.44L85.653 206.445L86.0338 205.52ZM97.0737 205.52L97.461 206.442L97.4698 206.438L97.0737 205.52ZM97.0737 200.36L96.671 201.275L96.6819 201.28L96.693 201.285L97.0737 200.36ZM86.1537 210.04L85.9301 211.015L85.9377 211.016L85.9453 211.018L86.1537 210.04ZM81.9538 208.52L81.4511 209.385L81.4629 209.391L81.4749 209.398L81.9538 208.52ZM79.2738 206.12L78.4416 206.675L78.449 206.686L79.2738 206.12ZM79.2738 199.8L80.0985 200.366L80.1058 200.355L79.2738 199.8ZM81.9538 197.36L81.4597 196.49L81.4511 196.495L81.9538 197.36ZM86.1537 195.84L86.3622 196.818L86.3698 196.816L86.3774 196.815L86.1537 195.84ZM96.9938 195.84L96.7701 196.815L96.7777 196.816L96.7853 196.818L96.9938 195.84ZM101.154 197.36L100.651 198.225L100.66 198.229L101.154 197.36ZM103.834 199.8L102.991 200.338L103 200.352L103.009 200.366L103.834 199.8ZM103.834 206.12L103.002 205.565L102.998 205.571L103.834 206.12ZM101.154 208.52L101.641 209.393L101.648 209.389L101.154 208.52ZM96.9938 210.04L97.2022 211.018L97.2098 211.016L97.2174 211.015L96.9938 210.04ZM84.1537 226.6H83.1537V227.6H84.1537V226.6ZM104.634 226.6H105.634V225.6H104.634V226.6ZM104.634 230.8V231.8H105.634V230.8H104.634ZM78.7937 230.8H77.7937V231.8H78.7937V230.8ZM78.7937 219.76V218.76H77.7937V219.76H78.7937ZM84.1537 219.76H85.1537V218.76H84.1537V219.76ZM108.274 212.48H109.274V211.48H108.274V212.48ZM108.274 216.68V217.68H109.274V216.68H108.274ZM94.5938 216.68V215.68H93.5938V216.68H94.5938ZM94.5938 223V224H95.5938V223H94.5938ZM89.1937 223H88.1937V224H89.1937V223ZM89.1937 216.68H90.1937V215.68H89.1937V216.68ZM74.9137 216.68H73.9137V217.68H74.9137V216.68ZM74.9137 212.48V211.48H73.9137V212.48H74.9137ZM91.5537 198.48C89.1663 198.48 87.1734 198.779 85.6377 199.442L86.4298 201.278C87.6141 200.767 89.3012 200.48 91.5537 200.48V198.48ZM85.6465 199.438C84.8732 199.763 84.2137 200.205 83.7457 200.804C83.2666 201.418 83.0338 202.138 83.0338 202.92H85.0338C85.0338 202.556 85.1342 202.276 85.3218 202.036C85.5204 201.781 85.861 201.517 86.421 201.282L85.6465 199.438ZM83.0338 202.92C83.0338 203.702 83.2665 204.423 83.7411 205.04C84.2051 205.643 84.8599 206.096 85.631 206.435L86.4365 204.605C85.8742 204.357 85.5291 204.084 85.3264 203.82C85.1344 203.571 85.0338 203.284 85.0338 202.92H83.0338ZM85.653 206.445C87.1832 207.075 89.17 207.36 91.5537 207.36V205.36C89.2975 205.36 87.6043 205.085 86.4145 204.595L85.653 206.445ZM91.5537 207.36C93.9607 207.36 95.9522 207.076 97.461 206.442L96.6865 204.598C95.5286 205.084 93.8401 205.36 91.5537 205.36V207.36ZM97.4698 206.438C98.2525 206.101 98.918 205.649 99.3905 205.047C99.8746 204.43 100.114 203.707 100.114 202.92H98.1137C98.1137 203.279 98.0129 203.563 97.817 203.813C97.6095 204.077 97.255 204.353 96.6777 204.602L97.4698 206.438ZM100.114 202.92C100.114 202.133 99.8745 201.41 99.3858 200.797C98.9093 200.199 98.2392 199.758 97.4545 199.435L96.693 201.285C97.2683 201.522 97.6182 201.788 97.8217 202.043C98.013 202.283 98.1137 202.561 98.1137 202.92H100.114ZM97.4765 199.445C95.9621 198.778 93.9643 198.48 91.5537 198.48V200.48C93.8365 200.48 95.5187 200.768 96.671 201.275L97.4765 199.445ZM91.5537 209.56C89.6379 209.56 87.909 209.392 86.3622 209.062L85.9453 211.018C87.6518 211.382 89.5229 211.56 91.5537 211.56V209.56ZM86.3774 209.065C84.8188 208.708 83.5087 208.229 82.4326 207.642L81.4749 209.398C82.7455 210.091 84.2354 210.626 85.9301 211.015L86.3774 209.065ZM82.4564 207.655C81.416 207.051 80.6414 206.346 80.0985 205.554L78.449 206.686C79.1861 207.76 80.1982 208.656 81.4511 209.385L82.4564 207.655ZM80.1058 205.565C79.5773 204.773 79.3138 203.899 79.3138 202.92H77.3138C77.3138 204.287 77.6902 205.547 78.4417 206.675L80.1058 205.565ZM79.3138 202.92C79.3138 201.972 79.5742 201.13 80.0985 200.366L78.449 199.234C77.6932 200.337 77.3138 201.574 77.3138 202.92H79.3138ZM80.1058 200.355C80.6492 199.54 81.422 198.826 82.4564 198.225L81.4511 196.495C80.1922 197.227 79.1782 198.14 78.4417 199.245L80.1058 200.355ZM82.4478 198.229C83.5141 197.624 84.8134 197.148 86.3622 196.818L85.9453 194.862C84.2408 195.225 82.74 195.763 81.4597 196.491L82.4478 198.229ZM86.3774 196.815C87.9189 196.461 89.6425 196.28 91.5537 196.28V194.28C89.5184 194.28 87.642 194.472 85.9301 194.865L86.3774 196.815ZM91.5537 196.28C93.4928 196.28 95.2295 196.461 96.7701 196.815L97.2174 194.865C95.5046 194.472 93.6147 194.28 91.5537 194.28V196.28ZM96.7853 196.818C98.3336 197.148 99.6157 197.623 100.651 198.225L101.656 196.495C100.398 195.764 98.9072 195.225 97.2022 194.862L96.7853 196.818ZM100.66 198.229C101.718 198.831 102.48 199.539 102.991 200.338L104.676 199.262C103.961 198.141 102.936 197.223 101.648 196.491L100.66 198.229ZM103.009 200.366C103.533 201.13 103.794 201.972 103.794 202.92H105.794C105.794 201.574 105.414 200.337 104.658 199.234L103.009 200.366ZM103.794 202.92C103.794 203.899 103.53 204.773 103.002 205.565L104.666 206.675C105.417 205.547 105.794 204.287 105.794 202.92H103.794ZM102.998 205.571C102.488 206.347 101.724 207.046 100.66 207.651L101.648 209.389C102.93 208.661 103.953 207.76 104.669 206.669L102.998 205.571ZM100.666 207.647C99.6212 208.23 98.3281 208.708 96.7701 209.065L97.2174 211.015C98.9127 210.626 100.393 210.09 101.641 209.393L100.666 207.647ZM96.7853 209.062C95.2393 209.391 93.4973 209.56 91.5537 209.56V211.56C93.6102 211.56 95.4949 211.382 97.2022 211.018L96.7853 209.062ZM84.1537 227.6H104.634V225.6H84.1537V227.6ZM103.634 226.6V230.8H105.634V226.6H103.634ZM104.634 229.8H78.7937V231.8H104.634V229.8ZM79.7937 230.8V219.76H77.7937V230.8H79.7937ZM78.7937 220.76H84.1537V218.76H78.7937V220.76ZM83.1537 219.76V226.6H85.1537V219.76H83.1537ZM107.274 212.48V216.68H109.274V212.48H107.274ZM108.274 215.68H94.5938V217.68H108.274V215.68ZM93.5938 216.68V223H95.5938V216.68H93.5938ZM94.5938 222H89.1937V224H94.5938V222ZM90.1937 223V216.68H88.1937V223H90.1937ZM89.1937 215.68H74.9137V217.68H89.1937V215.68ZM75.9137 216.68V212.48H73.9137V216.68H75.9137ZM74.9137 213.48H108.274V211.48H74.9137V213.48Z" fill="#333333"/>
<path d="M135.24 205.56H128V210.12H135.24V205.56ZM140.44 214.24H122.8V196.96H128V201.52H135.24V196.96H140.44V214.24ZM138.64 227.4C141.013 227.4 142.813 227.147 144.04 226.64C145.267 226.133 145.88 225.36 145.88 224.32C145.88 223.28 145.267 222.507 144.04 222C142.813 221.493 141.013 221.24 138.64 221.24C136.293 221.24 134.507 221.493 133.28 222C132.053 222.507 131.44 223.28 131.44 224.32C131.44 225.36 132.053 226.133 133.28 226.64C134.507 227.147 136.293 227.4 138.64 227.4ZM138.64 217.12C140.56 217.12 142.28 217.28 143.8 217.6C145.347 217.92 146.653 218.4 147.72 219.04C148.813 219.653 149.653 220.413 150.24 221.32C150.827 222.2 151.12 223.2 151.12 224.32C151.12 225.44 150.827 226.453 150.24 227.36C149.653 228.24 148.813 228.987 147.72 229.6C146.653 230.213 145.347 230.68 143.8 231C142.28 231.347 140.56 231.52 138.64 231.52C136.72 231.52 134.987 231.347 133.44 231C131.92 230.68 130.613 230.213 129.52 229.6C128.453 228.987 127.627 228.24 127.04 227.36C126.48 226.453 126.2 225.44 126.2 224.32C126.2 223.2 126.48 222.2 127.04 221.32C127.627 220.413 128.453 219.653 129.52 219.04C130.613 218.4 131.92 217.92 133.44 217.6C134.987 217.28 136.72 217.12 138.64 217.12ZM155.6 203.2V207.52H150.72V216.32H145.44V194.64H150.72V203.2H155.6ZM178.317 214.8C176.237 214.133 174.49 213.187 173.077 211.96C171.664 210.707 170.544 209.24 169.717 207.56C168.864 209.347 167.69 210.933 166.197 212.32C164.73 213.68 162.917 214.707 160.757 215.4L158.157 211.24C159.704 210.76 161.024 210.12 162.117 209.32C163.237 208.493 164.157 207.573 164.877 206.56C165.597 205.52 166.117 204.427 166.437 203.28C166.784 202.133 166.957 200.973 166.957 199.8V196.28H172.317V199.8C172.317 200.947 172.477 202.08 172.797 203.2C173.144 204.293 173.664 205.32 174.357 206.28C175.05 207.213 175.93 208.067 176.997 208.84C178.09 209.587 179.384 210.187 180.877 210.64L178.317 214.8ZM163.797 218.16H188.917V231.48H183.597V222.4H163.797V218.16ZM188.917 194.6V216.56H183.597V194.6H188.917Z" fill="#333333"/>
<path d="M9.60328 282.376C9.61261 282.161 9.61728 281.956 9.61728 281.76C9.61728 281.555 9.61728 281.354 9.61728 281.158V281.018H2.14128V280.08H10.7513V281.158C10.7513 281.737 10.7373 282.357 10.7093 283.02C10.6813 283.683 10.5786 284.443 10.4013 285.302L9.26728 285.218C9.34194 284.845 9.40261 284.499 9.44928 284.182C9.49594 283.855 9.52861 283.543 9.54728 283.244L2.00128 283.594L1.83328 282.628L9.60328 282.376ZM3.38728 290.902H11.0173V291.84H2.23928V288.144H3.38728V290.902ZM12.1373 286.142V287.066H0.811275V286.142H5.41728V284.322H6.56528V286.142H12.1373ZM24.2042 288.9H23.0982V279.492H24.2042V288.9ZM20.6762 283.972H19.0102V283.034H20.6762V279.744H21.7682V288.578H20.6762V283.972ZM19.5982 286.478C19.2342 286.553 18.8842 286.613 18.5482 286.66C18.2122 286.697 17.8622 286.73 17.4982 286.758C17.1342 286.777 16.7468 286.791 16.3362 286.8C15.9348 286.809 15.4822 286.814 14.9782 286.814H14.1802V280.528H18.9262V281.452H15.2862V283.174H18.4222V284.07H15.2862V285.89C15.7248 285.89 16.1308 285.885 16.5042 285.876C16.8775 285.867 17.2275 285.848 17.5542 285.82C17.8902 285.792 18.2122 285.759 18.5202 285.722C18.8375 285.675 19.1595 285.619 19.4862 285.554L19.5982 286.478ZM24.5682 290.818V291.756H16.0422V287.864H17.1902V290.818H24.5682ZM27.1011 286.45C27.6984 286.347 28.2631 286.175 28.7951 285.932C29.3364 285.689 29.8078 285.395 30.2091 285.05C30.6198 284.695 30.9418 284.299 31.1751 283.86C31.4084 283.412 31.5251 282.931 31.5251 282.418H27.4791V281.494H31.5251V279.786H32.6871V281.494H36.7191V282.418H32.6871C32.6871 282.931 32.8038 283.412 33.0371 283.86C33.2704 284.299 33.5878 284.695 33.9891 285.05C34.3998 285.395 34.8711 285.689 35.4031 285.932C35.9351 286.175 36.5044 286.347 37.1111 286.45L36.6491 287.388C36.1544 287.285 35.6738 287.145 35.2071 286.968C34.7498 286.781 34.3204 286.562 33.9191 286.31C33.5271 286.049 33.1771 285.75 32.8691 285.414C32.5611 285.078 32.3091 284.709 32.1131 284.308C31.9171 284.709 31.6604 285.078 31.3431 285.414C31.0351 285.75 30.6804 286.049 30.2791 286.31C29.8871 286.562 29.4578 286.781 28.9911 286.968C28.5338 287.145 28.0531 287.285 27.5491 287.388L27.1011 286.45ZM37.8111 289.488V290.426H26.4151V289.488H37.8111ZM52.5749 285.988H51.4269V279.492H52.5749V285.988ZM49.3129 285.624C48.5849 285.372 47.9455 284.999 47.3949 284.504C46.8535 284 46.4382 283.412 46.1489 282.74C45.8782 283.468 45.4629 284.103 44.9029 284.644C44.3522 285.185 43.7035 285.591 42.9569 285.862L42.3689 284.966C42.8449 284.798 43.2789 284.574 43.6709 284.294C44.0629 284.014 44.3989 283.692 44.6789 283.328C44.9589 282.964 45.1735 282.567 45.3229 282.138C45.4815 281.709 45.5609 281.265 45.5609 280.808V279.856H46.7089V280.808C46.7089 281.247 46.7882 281.667 46.9469 282.068C47.1055 282.469 47.3249 282.843 47.6049 283.188C47.8849 283.533 48.2162 283.841 48.5989 284.112C48.9909 284.373 49.4202 284.579 49.8869 284.728L49.3129 285.624ZM53.0089 290.986V291.896H44.4829V288.774H51.4549V287.528H44.4549V286.618H52.5889V289.642H45.6169V290.986H53.0089ZM63.8438 280.808H57.6838V282.81H63.8438V280.808ZM64.9778 283.72H56.5638V279.898H64.9778V283.72ZM61.3378 285.694V286.926H64.9918V289.754H57.6138V291H65.3698V291.896H56.4938V288.914H63.8578V287.794H56.4518V286.926H60.1898V285.694H55.0798V284.77H66.4478V285.694H61.3378ZM74.3095 288.186C74.6082 288.186 74.8835 288.107 75.1355 287.948C75.3875 287.789 75.6022 287.565 75.7795 287.276C75.9662 286.977 76.1109 286.623 76.2135 286.212C76.3162 285.801 76.3675 285.339 76.3675 284.826C76.3675 284.322 76.3162 283.865 76.2135 283.454C76.1109 283.034 75.9662 282.679 75.7795 282.39C75.6022 282.101 75.3875 281.877 75.1355 281.718C74.8835 281.559 74.6082 281.48 74.3095 281.48C74.0015 281.48 73.7215 281.559 73.4695 281.718C73.2175 281.877 72.9982 282.101 72.8115 282.39C72.6342 282.679 72.4942 283.034 72.3915 283.454C72.2889 283.865 72.2375 284.322 72.2375 284.826C72.2375 285.339 72.2889 285.801 72.3915 286.212C72.4942 286.623 72.6342 286.977 72.8115 287.276C72.9982 287.565 73.2175 287.789 73.4695 287.948C73.7215 288.107 74.0015 288.186 74.3095 288.186ZM74.3095 280.444C74.7669 280.444 75.1869 280.547 75.5695 280.752C75.9615 280.957 76.2975 281.251 76.5775 281.634C76.8575 282.017 77.0722 282.479 77.2215 283.02C77.3802 283.552 77.4595 284.154 77.4595 284.826C77.4595 285.498 77.3802 286.105 77.2215 286.646C77.0722 287.178 76.8575 287.635 76.5775 288.018C76.2975 288.401 75.9615 288.695 75.5695 288.9C75.1869 289.105 74.7669 289.208 74.3095 289.208C73.8429 289.208 73.4135 289.105 73.0215 288.9C72.6389 288.695 72.3075 288.401 72.0275 288.018C71.7475 287.635 71.5282 287.178 71.3695 286.646C71.2202 286.105 71.1455 285.498 71.1455 284.826C71.1455 284.154 71.2202 283.552 71.3695 283.02C71.5282 282.479 71.7475 282.017 72.0275 281.634C72.3075 281.251 72.6389 280.957 73.0215 280.752C73.4135 280.547 73.8429 280.444 74.3095 280.444ZM82.6955 285.456H80.6235V292.036H79.4755V279.492H80.6235V284.49H82.6955V285.456ZM94.0484 279.478V292.064H92.9004V279.478H94.0484ZM87.4264 280.444C87.8931 280.444 88.3224 280.547 88.7144 280.752C89.1064 280.957 89.4424 281.251 89.7224 281.634C90.0024 282.017 90.2218 282.479 90.3804 283.02C90.5391 283.552 90.6184 284.154 90.6184 284.826C90.6184 285.498 90.5391 286.105 90.3804 286.646C90.2218 287.178 90.0024 287.635 89.7224 288.018C89.4424 288.401 89.1064 288.695 88.7144 288.9C88.3224 289.105 87.8931 289.208 87.4264 289.208C86.9598 289.208 86.5304 289.105 86.1384 288.9C85.7464 288.695 85.4104 288.401 85.1304 288.018C84.8504 287.635 84.6311 287.178 84.4724 286.646C84.3138 286.105 84.2344 285.498 84.2344 284.826C84.2344 284.154 84.3138 283.552 84.4724 283.02C84.6311 282.479 84.8504 282.017 85.1304 281.634C85.4104 281.251 85.7464 280.957 86.1384 280.752C86.5304 280.547 86.9598 280.444 87.4264 280.444ZM87.4264 281.48C87.1184 281.48 86.8338 281.559 86.5724 281.718C86.3204 281.877 86.1011 282.101 85.9144 282.39C85.7278 282.679 85.5831 283.034 85.4804 283.454C85.3778 283.865 85.3264 284.322 85.3264 284.826C85.3264 285.339 85.3778 285.801 85.4804 286.212C85.5831 286.623 85.7278 286.977 85.9144 287.276C86.1011 287.565 86.3204 287.789 86.5724 287.948C86.8338 288.107 87.1184 288.186 87.4264 288.186C87.7344 288.186 88.0144 288.107 88.2664 287.948C88.5184 287.789 88.7378 287.565 88.9244 287.276C89.1111 286.977 89.2558 286.623 89.3584 286.212C89.4611 285.801 89.5124 285.339 89.5124 284.826C89.5124 284.322 89.4611 283.865 89.3584 283.454C89.2558 283.034 89.1111 282.679 88.9244 282.39C88.7378 282.101 88.5184 281.877 88.2664 281.718C88.0144 281.559 87.7344 281.48 87.4264 281.48ZM103.651 283.566H101.985V282.642H103.651V279.688H104.743V286.912H103.651V283.566ZM102.573 285.946C102.219 286.021 101.869 286.081 101.523 286.128C101.187 286.165 100.837 286.198 100.473 286.226C100.109 286.245 99.722 286.259 99.3113 286.268C98.91 286.277 98.4573 286.282 97.9533 286.282H97.1553V280.29H101.901V281.214H98.2613V282.768H101.411V283.664H98.2613V285.358C98.7093 285.358 99.1153 285.353 99.4793 285.344C99.8527 285.335 100.207 285.316 100.543 285.288C100.879 285.26 101.201 285.227 101.509 285.19C101.827 285.143 102.149 285.087 102.475 285.022L102.573 285.946ZM100.053 290.944H106.059V288.55H100.053V290.944ZM98.9333 287.64H107.179V291.868H98.9333V287.64ZM107.179 279.478V287.038H106.073V279.478H107.179ZM115.195 285.862C115.522 285.853 115.853 285.843 116.189 285.834C116.525 285.825 116.861 285.811 117.197 285.792V281.578H115.195V285.862ZM120.221 286.408C119.596 286.511 118.947 286.59 118.275 286.646C117.612 286.702 116.95 286.749 116.287 286.786C115.634 286.814 114.994 286.833 114.369 286.842C113.744 286.851 113.16 286.856 112.619 286.856L112.493 285.904C112.736 285.904 112.988 285.904 113.249 285.904C113.52 285.904 113.795 285.899 114.075 285.89V281.578H112.843V280.654H119.549V281.578H118.303V285.722C118.938 285.694 119.549 285.638 120.137 285.554L120.221 286.408ZM115.531 290.818H122.755V291.756H114.383V287.864H115.531V290.818ZM124.057 283.3V284.252H122.195V288.732H121.047V279.478H122.195V283.3H124.057ZM126.786 287.752H129.418V281.844H126.786V287.752ZM125.708 280.934H130.482V288.662H125.708V280.934ZM135.928 279.478V292.022H134.836V285.386H133.142V291.406H132.064V279.758H133.142V284.448H134.836V279.478H135.928ZM139.693 287.92H143.207V281.662H139.693V287.92ZM138.573 280.738H144.327V288.844H138.573V280.738ZM149.801 285.456H147.729V292.036H146.581V279.492H147.729V284.49H149.801V285.456ZM161.518 288.004H160.426V279.492H161.518V288.004ZM155.666 284.084C155.283 284.812 154.756 285.475 154.084 286.072C153.421 286.66 152.581 287.178 151.564 287.626L151.004 286.786C151.919 286.394 152.675 285.946 153.272 285.442C153.869 284.938 154.331 284.378 154.658 283.762L151.172 284.126L150.99 283.188L155.036 282.922C155.111 282.689 155.171 282.455 155.218 282.222C155.265 281.979 155.297 281.732 155.316 281.48H151.578V280.542H156.45C156.45 281.009 156.417 281.461 156.352 281.9C156.287 282.329 156.189 282.749 156.058 283.16H157.948V279.702H159.026V286.884H157.948V284.084H155.666ZM157.878 287.668C157.878 288.088 157.995 288.485 158.228 288.858C158.471 289.231 158.793 289.572 159.194 289.88C159.595 290.179 160.053 290.435 160.566 290.65C161.079 290.855 161.616 291 162.176 291.084L161.714 291.994C161.247 291.91 160.79 291.784 160.342 291.616C159.894 291.457 159.479 291.261 159.096 291.028C158.713 290.804 158.368 290.543 158.06 290.244C157.752 289.945 157.5 289.619 157.304 289.264C157.108 289.619 156.856 289.945 156.548 290.244C156.249 290.543 155.909 290.804 155.526 291.028C155.143 291.261 154.728 291.457 154.28 291.616C153.841 291.784 153.384 291.91 152.908 291.994L152.46 291.084C153.011 291 153.543 290.855 154.056 290.65C154.569 290.435 155.022 290.179 155.414 289.88C155.815 289.572 156.133 289.231 156.366 288.858C156.609 288.485 156.73 288.088 156.73 287.668V287.276H157.878V287.668Z" fill="white"/>
<rect x="171" y="284.5" width="68" height="1" fill="white"/>
<path d="M256.014 279.929C256.28 279.929 256.486 279.988 256.633 280.1C256.792 280.212 256.865 280.37 256.865 280.561C256.865 280.62 256.852 280.712 256.826 280.857C256.639 281.476 256.214 281.785 255.549 281.785H254.313L252.717 286.984C252.644 287.195 252.611 287.412 252.611 287.636C252.611 287.886 252.684 288.064 252.824 288.162C252.963 288.261 253.163 288.307 253.422 288.307C253.648 288.307 253.934 288.281 254.273 288.221C254.446 288.182 254.592 288.156 254.718 288.156C254.818 288.156 254.891 288.189 254.931 288.261C254.991 288.32 255.017 288.393 255.017 288.491C255.031 288.774 254.818 289.116 254.379 289.525C253.954 289.919 253.375 290.262 252.637 290.558C251.899 290.841 251.082 290.979 250.191 290.979C249.227 290.979 248.456 290.762 247.871 290.327C247.286 289.893 247 289.294 247 288.537C247 288.189 247.06 287.846 247.173 287.524L248.536 283.351C248.609 283.115 248.642 282.924 248.642 282.785C248.642 282.502 248.569 282.266 248.429 282.068C248.303 281.871 248.117 281.667 247.878 281.456C247.665 281.259 247.519 281.101 247.432 280.969C247.346 280.831 247.326 280.666 247.366 280.482C247.425 280.298 247.545 280.16 247.725 280.061C247.911 279.962 248.197 279.916 248.595 279.916H249.785L251.128 278.587C251.594 278.126 252.019 277.804 252.405 277.619C252.804 277.435 253.315 277.343 253.934 277.343C254.825 277.343 255.277 277.679 255.277 278.356C255.277 278.567 255.25 278.764 255.19 278.949L254.891 279.916H256.021L256.014 279.929ZM268.685 287.892C268.659 287.952 268.645 288.031 268.645 288.142C268.645 288.241 268.665 288.32 268.712 288.373C268.772 288.432 268.838 288.458 268.925 288.458C269.097 288.458 269.237 288.386 269.35 288.248C269.476 288.096 269.563 288.017 269.603 288.017C269.676 288.017 269.729 288.064 269.776 288.162C269.815 288.248 269.842 288.353 269.842 288.478C269.855 288.886 269.722 289.288 269.436 289.676C269.151 290.058 268.732 290.373 268.18 290.624C267.642 290.86 266.99 290.979 266.226 290.979C265.288 290.979 264.544 290.768 263.992 290.347C263.44 289.913 263.154 289.334 263.141 288.623C263.141 288.103 263.267 287.524 263.527 286.872L264.697 283.838C264.77 283.654 264.803 283.509 264.803 283.397C264.803 283.213 264.736 283.075 264.61 282.976C264.497 282.864 264.358 282.805 264.185 282.805C263.919 282.805 263.64 282.93 263.354 283.187C263.088 283.424 262.862 283.819 262.696 284.365V284.325L261.353 288.603C261.313 288.774 261.286 288.919 261.286 289.044C261.286 289.228 261.319 289.373 261.393 289.485C261.466 289.584 261.565 289.682 261.692 289.781C261.791 289.88 261.865 289.965 261.904 290.031C261.944 290.09 261.951 290.163 261.924 290.262C261.851 290.446 261.712 290.577 261.499 290.663C261.286 290.749 260.96 290.788 260.522 290.788H255.669C255.303 290.788 255.031 290.729 254.858 290.617C254.685 290.492 254.632 290.327 254.685 290.13C254.745 289.959 254.891 289.814 255.13 289.689C255.343 289.577 255.523 289.446 255.662 289.288C255.802 289.136 255.928 288.886 256.021 288.551L259.252 278.04C259.292 277.915 259.318 277.81 259.318 277.725C259.318 277.573 259.279 277.442 259.192 277.343C259.119 277.244 259.019 277.145 258.893 277.047C258.753 276.935 258.647 276.836 258.574 276.751C258.514 276.665 258.507 276.553 258.554 276.415C258.64 276.092 259.086 275.809 259.897 275.573C260.708 275.336 261.552 275.217 262.43 275.217C263.254 275.217 263.852 275.369 264.238 275.678C264.637 275.987 264.836 276.408 264.836 276.941C264.836 277.251 264.783 277.553 264.69 277.85L263.54 281.555C264.092 280.837 264.677 280.337 265.282 280.061C265.906 279.778 266.578 279.64 267.303 279.64C268.167 279.64 268.865 279.896 269.39 280.416C269.928 280.936 270.201 281.607 270.201 282.437C270.201 282.871 270.128 283.299 269.988 283.72L268.692 287.866L268.685 287.892ZM276.344 279.659C277.168 279.659 277.766 279.811 278.152 280.12C278.537 280.429 278.724 280.851 278.724 281.384C278.724 281.706 278.677 282.015 278.577 282.312L276.623 288.61C276.583 288.781 276.556 288.926 276.556 289.051C276.556 289.235 276.59 289.38 276.663 289.492C276.736 289.59 276.836 289.689 276.962 289.788C277.062 289.886 277.135 289.972 277.175 290.038C277.214 290.097 277.221 290.169 277.195 290.268C277.121 290.452 276.982 290.584 276.769 290.67C276.556 290.755 276.231 290.795 275.792 290.795H270.939C270.573 290.795 270.301 290.735 270.128 290.624C269.955 290.499 269.902 290.334 269.955 290.137C270.008 289.965 270.161 289.821 270.4 289.696C270.613 289.584 270.793 289.452 270.932 289.294C271.072 289.143 271.192 288.893 271.291 288.557L273.139 282.47C273.179 282.345 273.206 282.239 273.206 282.154C273.206 282.002 273.173 281.877 273.099 281.798C273.026 281.7 272.92 281.601 272.78 281.502C272.641 281.39 272.541 281.292 272.481 281.206C272.421 281.12 272.415 281.009 272.461 280.87C272.548 280.548 272.993 280.265 273.804 280.028C274.615 279.778 275.459 279.646 276.337 279.646L276.344 279.659ZM277.766 275.007C278.318 275.007 278.777 275.191 279.149 275.553C279.515 275.902 279.701 276.336 279.701 276.856C279.701 277.218 279.601 277.58 279.402 277.929C279.215 278.277 278.95 278.567 278.591 278.791C278.252 279.001 277.866 279.107 277.44 279.107C276.902 279.107 276.45 278.929 276.078 278.58C275.725 278.218 275.539 277.764 275.526 277.231C275.526 276.882 275.619 276.533 275.805 276.198C275.991 275.849 276.251 275.559 276.59 275.336C276.929 275.112 277.321 275 277.76 275L277.766 275.007ZM291.707 287.892C291.68 287.952 291.667 288.031 291.667 288.142C291.667 288.241 291.687 288.32 291.733 288.373C291.787 288.432 291.86 288.458 291.946 288.458C292.119 288.458 292.259 288.386 292.372 288.248C292.498 288.096 292.584 288.017 292.624 288.017C292.697 288.017 292.75 288.064 292.797 288.162C292.837 288.248 292.863 288.353 292.863 288.478C292.877 288.886 292.744 289.288 292.458 289.676C292.172 290.058 291.753 290.373 291.202 290.624C290.663 290.86 290.012 290.979 289.247 290.979C288.31 290.979 287.565 290.768 287.013 290.347C286.462 289.913 286.176 289.334 286.162 288.623C286.162 288.103 286.289 287.524 286.548 286.872L287.718 283.838C287.791 283.654 287.824 283.509 287.824 283.397C287.824 283.213 287.758 283.075 287.632 282.976C287.519 282.864 287.379 282.805 287.206 282.805C286.894 282.805 286.595 282.95 286.315 283.246C286.03 283.529 285.823 283.878 285.697 284.299L284.381 288.597C284.321 288.748 284.294 288.899 284.294 289.038C284.294 289.209 284.328 289.347 284.401 289.459C284.474 289.557 284.574 289.663 284.7 289.775C284.8 289.86 284.873 289.939 284.913 290.005C284.953 290.077 284.959 290.156 284.933 290.255C284.873 290.439 284.74 290.571 284.527 290.656C284.314 290.742 283.982 290.782 283.53 290.782H278.677C278.311 290.782 278.045 290.722 277.893 290.61C277.72 290.485 277.66 290.321 277.7 290.123C277.76 289.952 277.906 289.808 278.145 289.682C278.358 289.571 278.537 289.439 278.677 289.281C278.817 289.13 278.936 288.88 279.036 288.544L280.931 282.456C280.957 282.384 280.97 282.285 280.97 282.16C280.97 282.009 280.937 281.884 280.864 281.805C280.804 281.719 280.711 281.614 280.565 281.489C280.425 281.377 280.326 281.278 280.266 281.193C280.206 281.107 280.199 280.995 280.246 280.857C280.332 280.535 280.778 280.252 281.589 280.015C282.4 279.765 283.237 279.633 284.122 279.633C284.833 279.633 285.391 279.831 285.803 280.225C286.216 280.607 286.402 281.14 286.355 281.825C286.934 280.995 287.552 280.429 288.203 280.12C288.855 279.798 289.566 279.633 290.331 279.633C291.195 279.633 291.893 279.89 292.418 280.41C292.957 280.93 293.229 281.601 293.229 282.43C293.229 282.864 293.156 283.292 293.016 283.713L291.72 287.859L291.707 287.892ZM306.718 281.371C306.751 281.417 306.784 281.469 306.817 281.515C307.07 281.93 307.17 282.423 307.17 282.924C307.17 283.193 307.136 283.516 307.063 283.891C306.89 284.622 306.518 285.286 305.933 285.892C305.368 286.497 304.63 286.971 303.719 287.326C302.829 287.662 301.838 287.833 300.761 287.833C299.937 287.833 299.166 287.774 298.441 287.662C298.228 287.846 298.122 288.07 298.122 288.333C298.122 288.518 298.208 288.669 298.375 288.794C298.547 288.906 298.827 288.965 299.225 288.965H302.416C303.507 288.965 304.358 289.156 304.969 289.531C305.581 289.893 305.887 290.42 305.887 291.111C305.887 291.361 305.847 291.624 305.76 291.887C305.587 292.433 305.202 292.94 304.59 293.401C303.992 293.881 303.148 294.263 302.057 294.559C300.967 294.855 299.638 295 298.082 295C296.693 295 295.516 294.882 294.552 294.645C293.588 294.408 292.87 294.079 292.405 293.657C291.919 293.249 291.68 292.795 291.68 292.289C291.68 292.177 291.707 292.006 291.767 291.782C291.893 291.374 292.185 291.045 292.637 290.795C293.076 290.525 293.807 290.354 294.831 290.268C294.492 289.946 294.319 289.557 294.319 289.11C294.319 288.959 294.339 288.794 294.386 288.623C294.612 287.892 295.277 287.353 296.387 287.004C295.323 286.431 294.791 285.589 294.791 284.477C294.791 284.167 294.831 283.845 294.918 283.509C295.091 282.779 295.463 282.121 296.048 281.528C296.626 280.923 297.371 280.449 298.281 280.094C299.192 279.745 300.183 279.567 301.26 279.567C302.23 279.567 303.221 279.633 304.165 279.863C304.756 280.008 305.348 280.232 305.86 280.561C306.192 280.772 306.492 281.041 306.724 281.364L306.718 281.371ZM302.044 283.707C302.27 282.989 302.383 282.443 302.383 282.062C302.383 281.581 302.177 281.344 301.765 281.344C301.413 281.344 301.1 281.522 300.828 281.871C300.575 282.206 300.309 282.818 300.043 283.7C299.817 284.431 299.704 284.984 299.704 285.365C299.704 285.826 299.904 286.063 300.302 286.063C300.655 286.063 300.967 285.885 301.24 285.536C301.506 285.188 301.778 284.576 302.051 283.707H302.044ZM297.809 291.097C297.411 291.097 297.052 291.078 296.726 291.032C296.553 291.242 296.473 291.525 296.473 291.874C296.487 292.223 296.626 292.479 296.899 292.631C297.185 292.782 297.617 292.861 298.195 292.861C298.906 292.861 299.478 292.756 299.917 292.545C300.369 292.335 300.595 292.032 300.595 291.637C300.595 291.466 300.528 291.334 300.402 291.236C300.276 291.137 300.09 291.091 299.85 291.091H297.809V291.097ZM314.27 279.462C315.446 279.462 316.463 279.567 317.314 279.778C318.178 279.988 318.837 280.285 319.295 280.66C319.761 281.041 320 281.469 320 281.943C320 282.417 319.801 282.832 319.402 283.141C319.016 283.45 318.478 283.602 317.786 283.602C317.095 283.602 316.477 283.424 315.978 283.075C315.499 282.726 315.253 282.279 315.253 281.746C315.253 281.561 315.28 281.39 315.34 281.219C315.087 281.147 314.855 281.114 314.662 281.114C314.309 281.114 314.01 281.199 313.771 281.364C313.545 281.535 313.439 281.772 313.452 282.081C313.452 282.443 313.638 282.753 314.004 283.009C314.369 283.259 314.968 283.575 315.792 283.957C316.503 284.266 317.082 284.556 317.534 284.819C317.999 285.069 318.391 285.392 318.704 285.786C319.029 286.181 319.196 286.642 319.196 287.175C319.196 287.287 319.169 287.498 319.109 287.807C318.883 288.748 318.252 289.492 317.215 290.038C316.177 290.584 314.815 290.86 313.133 290.86C311.231 290.86 309.722 290.61 308.599 290.104C307.495 289.597 306.937 288.906 306.937 288.017C306.937 287.412 307.123 286.958 307.489 286.649C307.854 286.339 308.346 286.188 308.958 286.188C309.669 286.188 310.268 286.405 310.766 286.839C311.278 287.274 311.531 287.827 311.531 288.504C311.531 288.689 311.511 288.88 311.464 289.07C311.803 289.156 312.129 289.195 312.441 289.195C312.807 289.195 313.113 289.097 313.359 288.899C313.598 288.702 313.718 288.432 313.718 288.077C313.704 287.754 313.538 287.478 313.226 287.254C312.913 287.017 312.415 286.734 311.737 286.412C311.099 286.115 310.573 285.846 310.161 285.589C309.749 285.319 309.397 284.99 309.098 284.602C308.812 284.207 308.672 283.746 308.672 283.213C308.672 282.062 309.157 281.147 310.121 280.475C311.099 279.784 312.481 279.442 314.27 279.442V279.462Z" fill="white"/>
<path d="M13.48 358.8C13.48 360.293 13.5867 361.787 13.8 363.28C14.0133 364.747 14.3733 366.16 14.88 367.52C15.4133 368.853 16.0933 370.093 16.92 371.24C17.7733 372.387 18.8267 373.373 20.08 374.2L17.2 378.28C15.6267 377.32 14.3333 376.093 13.32 374.6C12.3333 373.08 11.5467 371.387 10.96 369.52C10.32 371.573 9.45333 373.44 8.36 375.12C7.26667 376.773 5.88 378.107 4.2 379.12L1.04 375.16C2.4 374.333 3.54667 373.32 4.48 372.12C5.41333 370.92 6.16 369.613 6.72 368.2C7.30667 366.787 7.73333 365.293 8 363.72C8.26667 362.147 8.4 360.573 8.4 359V352.8H13.48V358.8ZM20.84 350.2H25.76V384.8H20.84V366.32H16.24V362.04H20.84V350.2ZM33.32 349.6V386.44H28.32V349.6H33.32ZM57.2769 370C55.3302 369.36 53.6769 368.453 52.3169 367.28C50.9835 366.08 49.9302 364.693 49.1569 363.12C48.3569 364.96 47.2369 366.56 45.7969 367.92C44.3835 369.28 42.6235 370.32 40.5169 371.04L37.7569 366.88C39.3035 366.373 40.6235 365.707 41.7169 364.88C42.8102 364.027 43.7035 363.08 44.3969 362.04C45.0902 360.973 45.5969 359.84 45.9169 358.64C46.2369 357.413 46.3969 356.173 46.3969 354.92V351.6H51.7569V355.36C51.7569 356.48 51.9169 357.573 52.2369 358.64C52.5569 359.707 53.0502 360.707 53.7169 361.64C54.3835 362.573 55.2369 363.413 56.2769 364.16C57.3435 364.88 58.5969 365.467 60.0369 365.92L57.2769 370ZM55.2769 382.36C57.6235 382.36 59.4102 382.12 60.6369 381.64C61.8635 381.133 62.4769 380.36 62.4769 379.32C62.4769 378.307 61.8635 377.56 60.6369 377.08C59.4102 376.573 57.6235 376.32 55.2769 376.32C52.9035 376.32 51.1035 376.573 49.8769 377.08C48.6502 377.56 48.0369 378.307 48.0369 379.32C48.0369 380.36 48.6502 381.133 49.8769 381.64C51.1035 382.12 52.9035 382.36 55.2769 382.36ZM55.2769 372.24C57.1969 372.24 58.9169 372.4 60.4369 372.72C61.9835 373.04 63.2902 373.507 64.3569 374.12C65.4502 374.733 66.2769 375.48 66.8369 376.36C67.4235 377.213 67.7169 378.2 67.7169 379.32C67.7169 380.44 67.4235 381.44 66.8369 382.32C66.2769 383.2 65.4502 383.947 64.3569 384.56C63.2902 385.173 61.9835 385.64 60.4369 385.96C58.9169 386.28 57.1969 386.44 55.2769 386.44C53.3569 386.44 51.6235 386.28 50.0769 385.96C48.5302 385.64 47.2102 385.173 46.1169 384.56C45.0502 383.947 44.2235 383.2 43.6369 382.32C43.0769 381.44 42.7969 380.44 42.7969 379.32C42.7969 378.2 43.0769 377.213 43.6369 376.36C44.2235 375.48 45.0502 374.733 46.1169 374.12C47.2102 373.507 48.5302 373.04 50.0769 372.72C51.6235 372.4 53.3569 372.24 55.2769 372.24ZM72.1969 358.16V362.52H67.3169V371.4H62.0369V349.64H67.3169V358.16H72.1969ZM83.1937 374C84.2071 374 84.9937 373.307 85.5537 371.92C86.1137 370.533 86.3937 368.413 86.3937 365.56C86.3937 362.733 86.1137 360.627 85.5537 359.24C84.9937 357.853 84.2071 357.16 83.1937 357.16C82.1804 357.16 81.3937 357.853 80.8337 359.24C80.2737 360.627 79.9937 362.733 79.9937 365.56C79.9937 368.413 80.2737 370.533 80.8337 371.92C81.3937 373.307 82.1804 374 83.1937 374ZM94.0337 350.2H98.9538V384.8H94.0337V367.44H91.1537C90.9137 371.067 90.0871 373.893 88.6737 375.92C87.2871 377.947 85.4604 378.96 83.1937 378.96C81.9671 378.96 80.8604 378.653 79.8737 378.04C78.9137 377.427 78.0871 376.547 77.3937 375.4C76.7004 374.253 76.1671 372.853 75.7937 371.2C75.4204 369.52 75.2337 367.64 75.2337 365.56C75.2337 363.48 75.4204 361.613 75.7937 359.96C76.1671 358.307 76.7004 356.907 77.3937 355.76C78.0871 354.613 78.9137 353.733 79.8737 353.12C80.8604 352.507 81.9671 352.2 83.1937 352.2C85.3804 352.2 87.1671 353.16 88.5537 355.08C89.9671 357 90.8204 359.693 91.1137 363.16H94.0337V350.2ZM106.514 349.56V386.4H101.514V349.56H106.514ZM141.733 369.04C140.613 369.28 139.48 369.48 138.333 369.64C137.213 369.8 135.986 369.933 134.653 370.04C133.346 370.12 131.893 370.173 130.293 370.2C128.693 370.227 126.88 370.24 124.853 370.24H121.773V352.52H138.253V356.72H127.013V366C128.64 366 130.106 365.987 131.413 365.96C132.746 365.907 133.96 365.84 135.053 365.76C136.173 365.653 137.226 365.533 138.213 365.4C139.2 365.267 140.2 365.093 141.213 364.88L141.733 369.04ZM130.893 381.6H150.693V385.8H125.613V373.44H130.893V381.6ZM154.253 359.64V363.96H149.373V376.24H144.093V349.6H149.373V359.64H154.253ZM176.473 374.6C177.726 374.6 178.753 374.213 179.553 373.44C180.353 372.64 180.753 371.52 180.753 370.08C180.753 368.693 180.353 367.6 179.553 366.8C178.753 366 177.726 365.6 176.473 365.6C175.219 365.6 174.179 366 173.353 366.8C172.553 367.6 172.153 368.707 172.153 370.12C172.153 371.533 172.553 372.64 173.353 373.44C174.179 374.213 175.219 374.6 176.473 374.6ZM176.473 361.32C177.806 361.32 179.033 361.533 180.153 361.96C181.299 362.387 182.286 363 183.113 363.8C183.939 364.573 184.579 365.493 185.033 366.56C185.513 367.627 185.753 368.8 185.753 370.08C185.753 371.387 185.513 372.587 185.033 373.68C184.579 374.747 183.939 375.68 183.113 376.48C182.286 377.253 181.299 377.853 180.153 378.28C179.033 378.707 177.806 378.92 176.473 378.92C175.139 378.92 173.899 378.707 172.753 378.28C171.606 377.853 170.606 377.253 169.753 376.48C168.926 375.68 168.273 374.747 167.793 373.68C167.339 372.587 167.113 371.387 167.113 370.08C167.113 368.8 167.339 367.627 167.793 366.56C168.273 365.493 168.926 364.573 169.753 363.8C170.606 363 171.606 362.387 172.753 361.96C173.899 361.533 175.139 361.32 176.473 361.32ZM179.073 355.04H187.073V359.24H165.633V355.04H173.793V350.24H179.073V355.04ZM200.033 368.36H194.753V386.44H189.473V349.6H194.753V364H200.033V368.36ZM208.829 373C211.176 372.947 213.576 372.813 216.029 372.6C218.509 372.36 221.043 371.987 223.629 371.48L224.149 375.8C221.083 376.44 218.083 376.867 215.149 377.08C212.243 377.293 209.443 377.4 206.749 377.4H203.549V353.08H208.829V373ZM236.429 367.84H231.269V386.36H225.989V349.56H231.269V363.48H236.429V367.84ZM273.609 358.44H270.489V361.72H273.609V358.44ZM278.569 365.92H265.569V350.84H270.489V354.4H273.609V350.84H278.569V365.92ZM258.609 358.44H255.409V361.72H258.609V358.44ZM263.529 365.92H250.449V350.84H255.409V354.4H258.609V350.84H263.529V365.92ZM257.009 381.68H277.529V385.92H251.729V375.88H257.009V381.68ZM281.249 368.56V372.72H267.649V378.64H262.369V372.72H247.849V368.56H281.249ZM315.086 376.08H309.766V349.64H315.086V376.08ZM290.166 361.32C290.166 362.813 290.632 363.987 291.566 364.84C292.526 365.667 293.686 366.08 295.046 366.08C296.432 366.08 297.579 365.667 298.486 364.84C299.419 363.987 299.886 362.813 299.886 361.32C299.886 359.8 299.419 358.627 298.486 357.8C297.579 356.947 296.432 356.52 295.046 356.52C293.686 356.52 292.526 356.947 291.566 357.8C290.632 358.627 290.166 359.8 290.166 361.32ZM305.046 361.32C305.046 362.653 304.792 363.893 304.286 365.04C303.779 366.187 303.072 367.173 302.166 368C301.259 368.827 300.192 369.48 298.966 369.96C297.766 370.413 296.459 370.64 295.046 370.64C293.632 370.64 292.312 370.413 291.086 369.96C289.859 369.48 288.792 368.827 287.886 368C287.006 367.173 286.299 366.187 285.766 365.04C285.259 363.893 285.006 362.653 285.006 361.32C285.006 359.96 285.259 358.707 285.766 357.56C286.299 356.413 287.006 355.427 287.886 354.6C288.792 353.773 289.859 353.133 291.086 352.68C292.312 352.2 293.632 351.96 295.046 351.96C296.459 351.96 297.766 352.2 298.966 352.68C300.192 353.133 301.259 353.773 302.166 354.6C303.072 355.427 303.779 356.413 304.286 357.56C304.792 358.707 305.046 359.96 305.046 361.32ZM316.006 381.6V385.8H290.566V373.48H295.846V381.6H316.006Z" fill="white"/>
<path d="M23.12 426.8C22 427.04 20.8667 427.24 19.72 427.4C18.5733 427.56 17.3333 427.68 16 427.76C14.6933 427.84 13.2267 427.907 11.6 427.96C10 427.987 8.17333 428 6.12 428H3V411.08H19.52V415.28H8.24V423.76C9.92 423.76 11.4133 423.733 12.72 423.68C14.0533 423.627 15.28 423.56 16.4 423.48C17.5467 423.4 18.6133 423.293 19.6 423.16C20.5867 423 21.5867 422.813 22.6 422.6L23.12 426.8ZM18.64 441.28C20.9867 441.28 22.7867 441.013 24.04 440.48C25.2933 439.947 25.92 439.12 25.92 438C25.92 436.88 25.2933 436.053 24.04 435.52C22.7867 434.987 20.9867 434.72 18.64 434.72C16.2933 434.72 14.4933 434.987 13.24 435.52C12.0133 436.053 11.4 436.88 11.4 438C11.4 439.12 12.0133 439.947 13.24 440.48C14.4933 441.013 16.2933 441.28 18.64 441.28ZM18.64 430.52C20.56 430.52 22.28 430.693 23.8 431.04C25.3467 431.387 26.6533 431.88 27.72 432.52C28.8133 433.16 29.6533 433.947 30.24 434.88C30.8267 435.787 31.12 436.827 31.12 438C31.12 439.173 30.8267 440.227 30.24 441.16C29.6533 442.067 28.8133 442.84 27.72 443.48C26.6533 444.12 25.3467 444.613 23.8 444.96C22.28 445.307 20.56 445.48 18.64 445.48C16.7467 445.48 15.0267 445.307 13.48 444.96C11.96 444.613 10.6533 444.12 9.56 443.48C8.49333 442.84 7.66667 442.067 7.08 441.16C6.49333 440.227 6.2 439.173 6.2 438C6.2 436.827 6.49333 435.787 7.08 434.88C7.66667 433.947 8.49333 433.16 9.56 432.52C10.6533 431.88 11.96 431.387 13.48 431.04C15.0267 430.693 16.7467 430.52 18.64 430.52ZM35.6 417.32V421.6H30.8V429.88H25.48V408.56H30.8V417.32H35.6ZM68.9169 435.48H63.5969V408.64H68.9169V435.48ZM58.1969 429.92C56.1435 429.227 54.4102 428.227 52.9969 426.92C51.6102 425.613 50.5169 424.093 49.7169 422.36C48.8635 424.227 47.7169 425.88 46.2769 427.32C44.8369 428.733 43.0369 429.813 40.8769 430.56L38.1969 426.36C39.7169 425.853 41.0235 425.16 42.1169 424.28C43.2369 423.4 44.1569 422.427 44.8769 421.36C45.5969 420.267 46.1169 419.12 46.4369 417.92C46.7835 416.693 46.9569 415.467 46.9569 414.24V410.64H52.3169V414.24C52.3169 415.44 52.4769 416.627 52.7969 417.8C53.1435 418.973 53.6635 420.067 54.3569 421.08C55.0502 422.093 55.9302 423 56.9969 423.8C58.0902 424.6 59.3835 425.24 60.8769 425.72L58.1969 429.92ZM69.8369 440.6V444.8H44.3969V432.92H49.6769V440.6H69.8369ZM105.434 408.56V445.52H100.154V408.56H105.434ZM85.6337 411.16C87.0204 411.16 88.3004 411.467 89.4737 412.08C90.6737 412.693 91.7004 413.573 92.5537 414.72C93.4071 415.84 94.0737 417.213 94.5538 418.84C95.0604 420.44 95.3137 422.253 95.3137 424.28C95.3137 426.307 95.0604 428.133 94.5538 429.76C94.0737 431.387 93.4071 432.773 92.5537 433.92C91.7004 435.067 90.6737 435.947 89.4737 436.56C88.3004 437.173 87.0204 437.48 85.6337 437.48C84.2471 437.48 82.9537 437.173 81.7537 436.56C80.5804 435.947 79.5671 435.067 78.7137 433.92C77.8604 432.773 77.1804 431.387 76.6737 429.76C76.1937 428.133 75.9537 426.307 75.9537 424.28C75.9537 422.253 76.1937 420.44 76.6737 418.84C77.1804 417.213 77.8604 415.84 78.7137 414.72C79.5671 413.573 80.5804 412.693 81.7537 412.08C82.9537 411.467 84.2471 411.16 85.6337 411.16ZM85.6337 415.92C84.2737 415.92 83.1671 416.627 82.3137 418.04C81.4604 419.453 81.0337 421.533 81.0337 424.28C81.0337 427.027 81.4604 429.12 82.3137 430.56C83.1671 431.973 84.2737 432.68 85.6337 432.68C86.9937 432.68 88.1004 431.973 88.9537 430.56C89.8071 429.12 90.2337 427.027 90.2337 424.28C90.2337 421.533 89.8071 419.453 88.9537 418.04C88.1004 416.627 86.9937 415.92 85.6337 415.92Z" fill="white"/>
<path d="M146.32 435.24V436.24H147.32V435.24H146.32ZM141 435.24H140V436.24H141V435.24ZM141 408.6V407.6H140V408.6H141ZM146.32 408.6H147.32V407.6H146.32V408.6ZM136 430.68L135.702 431.635L136.419 431.858L136.833 431.233L136 430.68ZM130.8 427.84L130.129 428.582L130.137 428.588L130.8 427.84ZM127.44 423.48L128.329 423.021L127.384 421.192L126.53 423.065L127.44 423.48ZM124 428.24L123.32 427.507L124 428.24ZM118.56 431.32L117.722 431.865L118.138 432.506L118.866 432.272L118.56 431.32ZM115.88 427.2L115.579 426.246L114.324 426.643L115.042 427.745L115.88 427.2ZM119.8 425.28L120.391 426.087L120.394 426.085L119.8 425.28ZM122.56 422.52L123.375 423.099L122.56 422.52ZM124.16 419.28L123.203 418.991L124.16 419.28ZM124.68 415.4H125.68V414.4H124.68V415.4ZM117.28 415.4H116.28V416.4H117.28V415.4ZM117.28 411.24V410.24H116.28V411.24H117.28ZM137.32 411.24H138.32V410.24H137.32V411.24ZM137.32 415.4V416.4H138.32V415.4H137.32ZM130.04 415.4V414.4H129.04V415.4H130.04ZM130.56 419.08L131.511 418.771L130.56 419.08ZM132.12 422.12L131.309 422.705L131.315 422.713L131.32 422.72L132.12 422.12ZM134.8 424.76L134.2 425.56L134.211 425.568L134.223 425.576L134.8 424.76ZM138.68 426.64L139.513 427.193L140.243 426.092L138.986 425.688L138.68 426.64ZM147.24 440.6H148.24V439.6H147.24V440.6ZM147.24 444.8V445.8H148.24V444.8H147.24ZM121.8 444.8H120.8V445.8H121.8V444.8ZM121.8 432.84V431.84H120.8V432.84H121.8ZM127.08 432.84H128.08V431.84H127.08V432.84ZM127.08 440.6H126.08V441.6H127.08V440.6ZM146.32 434.24H141V436.24H146.32V434.24ZM142 435.24V408.6H140V435.24H142ZM141 409.6H146.32V407.6H141V409.6ZM145.32 408.6V435.24H147.32V408.6H145.32ZM136.298 429.725C134.361 429.122 132.757 428.239 131.463 427.092L130.137 428.588C131.67 429.948 133.533 430.958 135.702 431.635L136.298 429.725ZM131.471 427.098C130.173 425.925 129.127 424.567 128.329 423.021L126.551 423.939C127.46 425.699 128.654 427.248 130.129 428.582L131.471 427.098ZM126.53 423.065C125.758 424.758 124.69 426.236 123.32 427.507L124.68 428.973C126.243 427.524 127.468 425.829 128.35 423.895L126.53 423.065ZM123.32 427.507C121.974 428.755 120.294 429.713 118.254 430.368L118.866 432.272C121.146 431.54 123.092 430.445 124.68 428.973L123.32 427.507ZM119.398 430.775L116.718 426.655L115.042 427.745L117.722 431.865L119.398 430.775ZM116.181 428.154C117.787 427.646 119.195 426.962 120.391 426.087L119.209 424.473C118.218 425.198 117.013 425.794 115.579 426.246L116.181 428.154ZM120.394 426.085C121.589 425.202 122.587 424.209 123.375 423.099L121.745 421.941C121.093 422.858 120.251 423.704 119.206 424.475L120.394 426.085ZM123.375 423.099C124.156 422.001 124.738 420.824 125.117 419.569L123.203 418.991C122.889 420.03 122.404 421.012 121.745 421.941L123.375 423.099ZM125.117 419.569C125.491 418.333 125.68 417.089 125.68 415.84H123.68C123.68 416.884 123.522 417.934 123.203 418.991L125.117 419.569ZM125.68 415.84V415.4H123.68V415.84H125.68ZM124.68 414.4H117.28V416.4H124.68V414.4ZM118.28 415.4V411.24H116.28V415.4H118.28ZM117.28 412.24H137.32V410.24H117.28V412.24ZM136.32 411.24V415.4H138.32V411.24H136.32ZM137.32 414.4H130.04V416.4H137.32V414.4ZM129.04 415.4V415.84H131.04V415.4H129.04ZM129.04 415.84C129.04 417.041 129.231 418.225 129.609 419.389L131.511 418.771C131.196 417.801 131.04 416.826 131.04 415.84H129.04ZM129.609 419.389C129.99 420.56 130.559 421.666 131.309 422.705L132.931 421.535C132.295 420.654 131.824 419.733 131.511 418.771L129.609 419.389ZM131.32 422.72C132.103 423.764 133.066 424.709 134.2 425.56L135.4 423.96C134.401 423.211 133.577 422.396 132.92 421.52L131.32 422.72ZM134.223 425.576C135.412 426.418 136.8 427.086 138.374 427.592L138.986 425.688C137.573 425.234 136.375 424.649 135.377 423.944L134.223 425.576ZM137.847 426.087L135.167 430.127L136.833 431.233L139.513 427.193L137.847 426.087ZM146.24 440.6V444.8H148.24V440.6H146.24ZM147.24 443.8H121.8V445.8H147.24V443.8ZM122.8 444.8V432.84H120.8V444.8H122.8ZM121.8 433.84H127.08V431.84H121.8V433.84ZM126.08 432.84V440.6H128.08V432.84H126.08ZM127.08 441.6H147.24V439.6H127.08V441.6ZM186.437 426.8V427.8H187.437V426.8H186.437ZM182.397 426.8V425.8H181.397V426.8H182.397ZM182.397 445.44V446.44H183.397V445.44H182.397ZM177.157 445.44H176.157V446.44H177.157V445.44ZM177.157 433.96H178.157V431.257L176.398 433.309L177.157 433.96ZM174.037 437.6L173.414 438.383L174.169 438.983L174.796 438.251L174.037 437.6ZM171.197 434.24L170.317 434.715L170.321 434.723L171.197 434.24ZM169.477 429.84L170.443 429.582L169.51 426.084L168.515 429.565L169.477 429.84ZM167.517 434.48L166.654 433.975L166.651 433.98L167.517 434.48ZM164.397 437.96L163.808 438.768L164.397 439.198L164.986 438.768L164.397 437.96ZM161.237 434.48L160.371 434.98L160.374 434.986L160.378 434.992L161.237 434.48ZM159.357 429.92L160.321 429.656L159.352 426.119L158.392 429.658L159.357 429.92ZM157.597 434.24L156.729 433.744L156.725 433.751L156.721 433.757L157.597 434.24ZM154.757 437.6L153.996 438.249L154.623 438.984L155.379 438.383L154.757 437.6ZM151.517 433.8L150.908 433.007L150.073 433.648L150.756 434.449L151.517 433.8ZM154.237 430.68L153.366 430.188L153.363 430.194L154.237 430.68ZM155.797 426.72L154.83 426.465L154.828 426.473L154.826 426.482L155.797 426.72ZM156.517 422.32L155.521 422.234L155.52 422.242L155.519 422.25L156.517 422.32ZM156.717 416H157.717V415H156.717V416ZM152.917 416H151.917V417H152.917V416ZM152.917 411.8V410.8H151.917V411.8H152.917ZM163.717 411.8H164.717V410.8H163.717V411.8ZM163.717 416V417H164.717V416H163.717ZM161.677 416V415H160.677V416H161.677ZM161.757 421.04L160.758 421.086L160.758 421.098L160.759 421.11L161.757 421.04ZM162.157 424.48L161.17 424.641L161.172 424.654L161.175 424.667L162.157 424.48ZM162.997 427.8L162.044 428.102L162.997 427.8ZM164.397 430.88L163.544 431.401L164.397 432.798L165.25 431.401L164.397 430.88ZM165.797 427.84L166.748 428.149L166.75 428.142L165.797 427.84ZM166.597 424.52L165.614 424.337L165.612 424.346L165.61 424.356L166.597 424.52ZM166.997 421.08L165.999 421.01L165.998 421.022L165.998 421.034L166.997 421.08ZM167.117 416H168.117V415H167.117V416ZM165.037 416H164.037V417H165.037V416ZM165.037 411.8V410.8H164.037V411.8H165.037ZM175.277 411.8H176.277V410.8H175.277V411.8ZM175.277 416V417H176.277V416H175.277ZM172.117 416V415H171.117V416H172.117ZM172.277 422.28L173.274 422.21V422.21L172.277 422.28ZM172.957 426.64L171.987 426.883L171.989 426.891L171.991 426.9L172.957 426.64ZM174.517 430.56L173.638 431.038L173.643 431.046L174.517 430.56ZM177.157 433.68L176.53 434.459L178.157 435.769V433.68H177.157ZM177.157 408.6V407.6H176.157V408.6H177.157ZM182.397 408.6H183.397V407.6H182.397V408.6ZM182.397 422.4H181.397V423.4H182.397V422.4ZM186.437 422.4H187.437V421.4H186.437V422.4ZM186.437 425.8H182.397V427.8H186.437V425.8ZM181.397 426.8V445.44H183.397V426.8H181.397ZM182.397 444.44H177.157V446.44H182.397V444.44ZM178.157 445.44V433.96H176.157V445.44H178.157ZM176.398 433.309L173.278 436.949L174.796 438.251L177.916 434.611L176.398 433.309ZM174.659 436.817C173.589 435.966 172.729 434.948 172.073 433.757L170.321 434.723C171.105 436.146 172.138 437.367 173.414 438.383L174.659 436.817ZM172.077 433.765C171.397 432.506 170.851 431.114 170.443 429.582L168.511 430.098C168.956 431.766 169.557 433.307 170.317 434.715L172.077 433.765ZM168.515 429.565C168.057 431.17 167.435 432.639 166.654 433.975L168.38 434.985C169.252 433.495 169.937 431.87 170.438 430.115L168.515 429.565ZM166.651 433.98C165.92 435.247 164.974 436.302 163.808 437.152L164.986 438.768C166.38 437.751 167.514 436.486 168.383 434.98L166.651 433.98ZM164.986 437.152C163.817 436.3 162.855 435.241 162.096 433.968L160.378 434.992C161.272 436.492 162.417 437.754 163.808 438.768L164.986 437.152ZM162.103 433.98C161.349 432.673 160.754 431.232 160.321 429.656L158.392 430.184C158.867 431.914 159.525 433.514 160.371 434.98L162.103 433.98ZM158.392 429.658C157.985 431.156 157.43 432.517 156.729 433.744L158.465 434.736C159.257 433.35 159.875 431.83 160.322 430.182L158.392 429.658ZM156.721 433.757C156.065 434.948 155.205 435.966 154.134 436.817L155.379 438.383C156.656 437.367 157.689 436.146 158.473 434.723L156.721 433.757ZM155.518 436.951L152.278 433.151L150.756 434.449L153.996 438.249L155.518 436.951ZM152.126 434.593C153.375 433.634 154.374 432.492 155.111 431.166L153.363 430.194C152.766 431.268 151.952 432.206 150.908 433.007L152.126 434.593ZM155.107 431.172C155.847 429.863 156.4 428.457 156.768 426.958L154.826 426.482C154.5 427.809 154.013 429.043 153.366 430.188L155.107 431.172ZM156.764 426.975C157.154 425.499 157.404 423.97 157.514 422.39L155.519 422.25C155.417 423.71 155.187 425.114 154.83 426.465L156.764 426.975ZM157.513 422.406C157.649 420.831 157.717 419.269 157.717 417.72H155.717C155.717 419.211 155.651 420.715 155.521 422.234L157.513 422.406ZM157.717 417.72V416H155.717V417.72H157.717ZM156.717 415H152.917V417H156.717V415ZM153.917 416V411.8H151.917V416H153.917ZM152.917 412.8H163.717V410.8H152.917V412.8ZM162.717 411.8V416H164.717V411.8H162.717ZM163.717 415H161.677V417H163.717V415ZM160.677 416V417.72H162.677V416H160.677ZM160.677 417.72C160.677 418.803 160.704 419.925 160.758 421.086L162.756 420.994C162.703 419.861 162.677 418.77 162.677 417.72H160.677ZM160.759 421.11C160.841 422.287 160.978 423.464 161.17 424.641L163.144 424.319C162.962 423.203 162.832 422.086 162.754 420.97L160.759 421.11ZM161.175 424.667C161.395 425.826 161.685 426.971 162.044 428.102L163.95 427.498C163.615 426.442 163.345 425.374 163.139 424.293L161.175 424.667ZM162.044 428.102C162.414 429.271 162.914 430.371 163.544 431.401L165.25 430.359C164.706 429.469 164.273 428.516 163.95 427.498L162.044 428.102ZM165.25 431.401C165.877 430.375 166.377 429.29 166.748 428.149L164.846 427.531C164.523 428.523 164.09 429.465 163.544 430.359L165.25 431.401ZM166.75 428.142C167.111 427.004 167.389 425.852 167.583 424.684L165.61 424.356C165.432 425.428 165.176 426.489 164.844 427.538L166.75 428.142ZM167.58 424.703C167.802 423.512 167.94 422.32 167.996 421.126L165.998 421.034C165.947 422.134 165.819 423.235 165.614 424.337L167.58 424.703ZM167.994 421.15C168.076 419.981 168.117 418.838 168.117 417.72H166.117C166.117 418.789 166.078 419.886 165.999 421.01L167.994 421.15ZM168.117 417.72V416H166.117V417.72H168.117ZM167.117 415H165.037V417H167.117V415ZM166.037 416V411.8H164.037V416H166.037ZM165.037 412.8H175.277V410.8H165.037V412.8ZM174.277 411.8V416H176.277V411.8H174.277ZM175.277 415H172.117V417H175.277V415ZM171.117 416V417.72H173.117V416H171.117ZM171.117 417.72C171.117 419.263 171.171 420.807 171.279 422.35L173.274 422.21C173.169 420.713 173.117 419.217 173.117 417.72H171.117ZM171.279 422.35C171.39 423.924 171.625 425.436 171.987 426.883L173.927 426.397C173.595 425.071 173.377 423.676 173.274 422.21L171.279 422.35ZM171.991 426.9C172.384 428.36 172.933 429.74 173.638 431.038L175.396 430.082C174.767 428.927 174.276 427.693 173.922 426.38L171.991 426.9ZM173.643 431.046C174.373 432.361 175.338 433.5 176.53 434.459L177.784 432.901C176.789 432.1 175.994 431.159 175.391 430.074L173.643 431.046ZM178.157 433.68V408.6H176.157V433.68H178.157ZM177.157 409.6H182.397V407.6H177.157V409.6ZM181.397 408.6V422.4H183.397V408.6H181.397ZM182.397 423.4H186.437V421.4H182.397V423.4ZM185.437 422.4V426.8H187.437V422.4H185.437Z" fill="white"/>
<path d="M223.08 437.08V441.4H189.72V437.08H203.72V431.6H193.56V419.12H214.12V415.16H193.52V410.96H219.32V423.24H198.8V427.36H220.16V431.6H209V437.08H223.08Z" fill="white"/>
<path d="M20.76 471.36C20.76 474.133 20.48 476.8 19.92 479.36C19.36 481.893 18.4267 484.293 17.12 486.56C15.84 488.8 14.1467 490.893 12.04 492.84C9.96 494.787 7.38667 496.533 4.32 498.08L1.36 494.04C5.65333 491.827 8.94667 489.24 11.24 486.28C13.56 483.293 14.96 479.747 15.44 475.64H3.4V471.36H20.76ZM35.72 486H30.56V504.36H25.28V467.56H30.56V481.64H35.72V486ZM52.5569 477.52C52.5569 479.013 52.7435 480.52 53.1169 482.04C53.4902 483.533 54.0502 484.947 54.7969 486.28C55.5702 487.613 56.5169 488.813 57.6369 489.88C58.7835 490.947 60.1302 491.8 61.6769 492.44L58.7969 496.6C56.6369 495.667 54.8235 494.347 53.3569 492.64C51.9169 490.933 50.7835 488.96 49.9569 486.72C49.1302 489.147 47.9702 491.307 46.4769 493.2C45.0102 495.093 43.1969 496.533 41.0369 497.52L38.0369 493.32C39.5835 492.627 40.9302 491.707 42.0769 490.56C43.2235 489.413 44.1702 488.147 44.9169 486.76C45.6902 485.347 46.2635 483.853 46.6369 482.28C47.0102 480.68 47.1969 479.093 47.1969 477.52V475.48H39.5169V471.12H60.1569V475.48H52.5569V477.52ZM68.8369 467.6V504.44H63.5569V467.6H68.8369ZM98.3137 491.32C99.0071 487.853 99.4204 484.8 99.5538 482.16C99.7137 479.493 99.7937 477.093 99.7937 474.96H78.3137V470.76H105.074V474.28C105.074 475.427 105.06 476.627 105.034 477.88C105.034 479.133 104.98 480.48 104.874 481.92C104.794 483.333 104.647 484.867 104.434 486.52C104.247 488.173 103.967 489.973 103.594 491.92L98.3137 491.32ZM108.274 495.76V500H74.9537V495.76H86.7137V483.08H91.9937V495.76H108.274ZM150.973 488H145.653V467.6H150.973V488ZM140.453 486.88C138.346 486.267 136.573 485.36 135.133 484.16C133.72 482.933 132.6 481.52 131.773 479.92C130.92 481.68 129.746 483.227 128.253 484.56C126.76 485.867 124.92 486.867 122.733 487.56L120.173 483.4C121.72 482.92 123.04 482.293 124.133 481.52C125.253 480.72 126.173 479.84 126.893 478.88C127.613 477.893 128.146 476.853 128.493 475.76C128.84 474.64 129.013 473.52 129.013 472.4V468.88H134.373V472.4C134.373 473.493 134.533 474.573 134.853 475.64C135.2 476.707 135.72 477.693 136.413 478.6C137.133 479.507 138.026 480.32 139.093 481.04C140.186 481.76 141.48 482.333 142.973 482.76L140.453 486.88ZM135.613 499.88H141.613V493.84H135.613V499.88ZM151.533 499.88V504H125.733V499.88H130.413V493.84H126.053V489.68H151.093V493.84H146.813V499.88H151.533ZM173.61 472.84C171.13 472.84 169.197 473.133 167.81 473.72C166.423 474.307 165.73 475.16 165.73 476.28C165.73 477.427 166.423 478.28 167.81 478.84C169.197 479.4 171.13 479.68 173.61 479.68C176.117 479.68 178.063 479.4 179.45 478.84C180.837 478.28 181.53 477.427 181.53 476.28C181.53 475.16 180.837 474.307 179.45 473.72C178.063 473.133 176.117 472.84 173.61 472.84ZM173.61 483.88C171.61 483.88 169.783 483.707 168.13 483.36C166.503 483.013 165.103 482.507 163.93 481.84C162.783 481.173 161.89 480.373 161.25 479.44C160.61 478.507 160.29 477.453 160.29 476.28C160.29 475.107 160.61 474.053 161.25 473.12C161.89 472.187 162.783 471.387 163.93 470.72C165.103 470.053 166.503 469.547 168.13 469.2C169.783 468.853 171.61 468.68 173.61 468.68C175.61 468.68 177.437 468.853 179.09 469.2C180.743 469.547 182.143 470.053 183.29 470.72C184.463 471.387 185.37 472.187 186.01 473.12C186.65 474.053 186.97 475.107 186.97 476.28C186.97 477.453 186.65 478.507 186.01 479.44C185.37 480.373 184.463 481.173 183.29 481.84C182.143 482.507 180.743 483.013 179.09 483.36C177.437 483.707 175.61 483.88 173.61 483.88ZM166.29 499.6H186.53V503.8H161.01V493.08H166.29V499.6ZM190.25 486.4V490.6H156.97V486.4H190.25ZM227.949 481.64H221.589V477.36H227.949V467.6H233.229V492.08H227.949V481.64ZM221.429 470.36C221.429 475.4 220.083 479.587 217.389 482.92C214.723 486.253 210.616 488.787 205.069 490.52L202.909 486.4C207.016 485.173 210.083 483.56 212.109 481.56C214.163 479.56 215.376 477.24 215.749 474.6H204.789V470.36H221.429ZM223.469 490.56C223.469 491.6 223.696 492.64 224.149 493.68C224.629 494.693 225.336 495.64 226.269 496.52C227.229 497.373 228.429 498.133 229.869 498.8C231.309 499.44 233.003 499.907 234.949 500.2L232.869 504.32C229.963 503.84 227.509 502.973 225.509 501.72C223.509 500.493 221.949 499 220.829 497.24C219.709 499 218.136 500.507 216.109 501.76C214.109 503.013 211.656 503.893 208.749 504.4L206.709 500.24C208.656 499.947 210.349 499.48 211.789 498.84C213.229 498.173 214.429 497.4 215.389 496.52C216.349 495.64 217.056 494.693 217.509 493.68C217.989 492.64 218.229 491.6 218.229 490.56V489.36H223.469V490.56Z" fill="white"/>
</svg>
