<svg width="36" height="36" viewBox="0 0 36 36" fill="none" xmlns="http://www.w3.org/2000/svg">
<g clip-path="url(#clip0_521_36160)">
<path d="M3.6533 34.0001C3.23178 34.0001 2.81027 33.8397 2.49001 33.5171C1.84708 32.8742 1.84708 31.8318 2.49001 31.1889L31.1967 2.4822C31.8396 1.83927 32.882 1.83927 33.5249 2.4822C34.1678 3.12512 34.1678 4.16747 33.5249 4.8108L4.81861 33.5171C4.49594 33.8377 4.07442 34.0001 3.6533 34.0001Z" fill="#333333"/>
<path d="M32.362 34.0001C31.9405 34.0001 31.5194 33.8397 31.1987 33.5171L2.49001 4.8108C1.84708 4.16747 1.84708 3.12512 2.49001 2.4822C3.13293 1.83927 4.17528 1.83927 4.81861 2.4822L33.5249 31.1889C34.1678 31.8318 34.1678 32.8742 33.5249 33.5171C33.2022 33.8377 32.7811 34.0001 32.362 34.0001Z" fill="#333333"/>
</g>
<defs>
<clipPath id="clip0_521_36160">
<rect width="32" height="32" fill="white" transform="translate(2 2)"/>
</clipPath>
</defs>
</svg>
