<svg width="408" height="48" viewBox="0 0 408 48" fill="none" xmlns="http://www.w3.org/2000/svg">
<g clip-path="url(#clip0_502_431)">
<path d="M22.828 24.364L27.778 29.314L26.364 30.728L20 24.364L26.364 18L27.778 19.414L22.828 24.364Z" fill="#FF3D5D"/>
</g>
<path fill-rule="evenodd" clip-rule="evenodd" d="M99.2873 22.1874C99.5083 22.3531 99.553 22.6665 99.3873 22.8874L99.165 23.1839C98.4998 24.0708 97.7726 24.9093 96.9887 25.6931C96.5398 26.1421 95.8014 26.1053 95.3993 25.6139L94.3503 24.3317C93.686 25.0008 93.0768 25.7224 92.5287 26.4897L92.3942 26.6781C92.2337 26.9028 91.9214 26.9548 91.6967 26.7943C91.472 26.6338 91.42 26.3215 91.5805 26.0968L91.715 25.9085C92.307 25.0797 92.9665 24.3012 93.6867 23.581C94.0817 23.186 94.7314 23.2184 95.0852 23.6507L96.1733 24.9806C96.2007 25.0141 96.251 25.0166 96.2816 24.986C97.032 24.2356 97.7282 23.4329 98.365 22.5839L98.5873 22.2874C98.753 22.0665 99.0664 22.0217 99.2873 22.1874Z" fill="#FF3D5D" stroke="#FF3D5D" stroke-width="0.5" stroke-linecap="round" stroke-linejoin="round"/>
<path fill-rule="evenodd" clip-rule="evenodd" d="M96.5127 21.7792C96.5127 21.411 96.8112 21.1125 97.1794 21.1125H99.846C100.214 21.1125 100.513 21.411 100.513 21.7792V24.4459C100.513 24.8141 100.214 25.1125 99.846 25.1125C99.4778 25.1125 99.1794 24.8141 99.1794 24.4459V22.4459H97.1794C96.8112 22.4459 96.5127 22.1474 96.5127 21.7792Z" fill="#FF3D5D"/>
<rect x="88" y="16" width="16" height="16" rx="8" stroke="#FF3D5D" stroke-width="2"/>
<path d="M160 23.5L167.793 15.7071C168.183 15.3166 168.817 15.3166 169.207 15.7071L177 23.5M167 22.5H170M161.5 22.5V30C161.5 31.1046 162.395 32 163.5 32H166.214C166.372 32 166.5 31.8721 166.5 31.7143V28C166.5 26.8954 167.395 26 168.5 26V26C169.605 26 170.5 26.8954 170.5 28V31.7143C170.5 31.8721 170.628 32 170.786 32H173.5C174.605 32 175.5 31.1046 175.5 30V22.5" stroke="#FF3D5D" stroke-width="2" stroke-linecap="round"/>
<g clip-path="url(#clip1_502_431)">
<path d="M240 33C235.029 33 231 28.9707 231 24C231 19.0293 235.029 15 240 15C244.971 15 249 19.0293 249 24C249 28.9707 244.971 33 240 33ZM235.512 29.6304C236.786 30.6489 238.369 31.2026 240 31.2C241.773 31.2 243.396 30.5592 244.65 29.4972C244.064 28.8958 243.363 28.418 242.589 28.0921C241.815 27.7663 240.984 27.5989 240.144 27.6C239.273 27.599 238.412 27.779 237.615 28.1285C236.817 28.478 236.101 28.9895 235.512 29.6304ZM234.254 28.338C235.011 27.5353 235.924 26.8959 236.937 26.4594C237.949 26.0229 239.041 25.7985 240.144 25.8C241.207 25.7986 242.261 26.0073 243.243 26.4141C244.226 26.821 245.119 27.4179 245.87 28.1706C246.64 27.0862 247.095 25.8096 247.184 24.4823C247.273 23.1551 246.993 21.8291 246.374 20.6515C245.756 19.4739 244.823 18.4908 243.679 17.8111C242.536 17.1314 241.226 16.7819 239.896 16.8011C238.566 16.8204 237.267 17.2078 236.144 17.9203C235.021 18.6328 234.117 19.6426 233.532 20.8376C232.948 22.0326 232.706 23.3661 232.834 24.6903C232.961 26.0144 233.453 27.2773 234.254 28.3389V28.338ZM240 24.9C239.045 24.9 238.13 24.5207 237.454 23.8456C236.779 23.1705 236.4 22.2548 236.4 21.3C236.4 20.3452 236.779 19.4295 237.454 18.7544C238.13 18.0793 239.045 17.7 240 17.7C240.955 17.7 241.87 18.0793 242.546 18.7544C243.221 19.4295 243.6 20.3452 243.6 21.3C243.6 22.2548 243.221 23.1705 242.546 23.8456C241.87 24.5207 240.955 24.9 240 24.9ZM240 23.1C240.477 23.1 240.935 22.9104 241.273 22.5728C241.61 22.2352 241.8 21.7774 241.8 21.3C241.8 20.8226 241.61 20.3648 241.273 20.0272C240.935 19.6896 240.477 19.5 240 19.5C239.523 19.5 239.065 19.6896 238.727 20.0272C238.39 20.3648 238.2 20.8226 238.2 21.3C238.2 21.7774 238.39 22.2352 238.727 22.5728C239.065 22.9104 239.523 23.1 240 23.1Z" fill="#FF3D5D"/>
</g>
<g clip-path="url(#clip2_502_431)">
<path d="M302 23.638C302 22.773 302.11 21.935 302.316 21.134C302.868 21.163 303.418 21.0388 303.904 20.7749C304.391 20.511 304.794 20.1178 305.071 19.6387C305.348 19.1597 305.487 18.6135 305.472 18.0604C305.458 17.5074 305.291 16.9691 304.99 16.505C306.199 15.3156 307.691 14.4535 309.325 14C309.576 14.4935 309.959 14.9079 310.431 15.1973C310.903 15.4868 311.445 15.64 311.999 15.64C312.553 15.64 313.095 15.4868 313.567 15.1973C314.039 14.9079 314.422 14.4935 314.673 14C316.307 14.4535 317.799 15.3156 319.008 16.505C318.706 16.9692 318.539 17.5077 318.525 18.061C318.51 18.6143 318.649 19.1608 318.926 19.64C319.203 20.1193 319.607 20.5126 320.094 20.7764C320.58 21.0403 321.13 21.1644 321.683 21.135C321.889 21.935 321.999 22.773 321.999 23.638C321.999 24.503 321.889 25.341 321.683 26.142C321.13 26.1128 320.581 26.2369 320.094 26.5007C319.608 26.7645 319.204 27.1577 318.927 27.6368C318.65 28.1159 318.511 28.6622 318.525 29.2153C318.54 29.7684 318.707 30.3069 319.008 30.771C317.799 31.9604 316.307 32.8225 314.673 33.276C314.422 32.7825 314.039 32.3681 313.567 32.0787C313.095 31.7892 312.553 31.636 311.999 31.636C311.445 31.636 310.903 31.7892 310.431 32.0787C309.959 32.3681 309.576 32.7825 309.325 33.276C307.691 32.8225 306.199 31.9604 304.99 30.771C305.292 30.3068 305.459 29.7683 305.473 29.215C305.488 28.6617 305.349 28.1152 305.072 27.636C304.795 27.1567 304.391 26.7634 303.904 26.4996C303.418 26.2357 302.868 26.1116 302.315 26.141C302.11 25.342 302 24.504 302 23.638ZM306.804 26.638C307.434 27.729 307.614 28.984 307.368 30.162C307.776 30.452 308.21 30.703 308.665 30.912C309.582 30.0908 310.769 29.6371 312 29.638C313.26 29.638 314.438 30.109 315.335 30.912C315.79 30.703 316.224 30.452 316.632 30.162C316.379 28.958 316.58 27.7031 317.196 26.638C317.811 25.5724 318.797 24.7712 319.966 24.388C320.012 23.8891 320.012 23.3869 319.966 22.888C318.797 22.5051 317.81 21.7038 317.195 20.638C316.579 19.5729 316.378 18.318 316.631 17.114C316.223 16.8239 315.789 16.5728 315.334 16.364C314.418 17.1849 313.23 17.6386 312 17.638C310.769 17.6389 309.582 17.1852 308.665 16.364C308.21 16.5728 307.776 16.8239 307.368 17.114C307.621 18.318 307.42 19.5729 306.804 20.638C306.189 21.7036 305.203 22.5048 304.034 22.888C303.988 23.3869 303.988 23.8891 304.034 24.388C305.203 24.7709 306.19 25.5722 306.805 26.638H306.804ZM312 26.638C311.204 26.638 310.441 26.3219 309.879 25.7593C309.316 25.1967 309 24.4337 309 23.638C309 22.8424 309.316 22.0793 309.879 21.5167C310.441 20.9541 311.204 20.638 312 20.638C312.796 20.638 313.559 20.9541 314.121 21.5167C314.684 22.0793 315 22.8424 315 23.638C315 24.4337 314.684 25.1967 314.121 25.7593C313.559 26.3219 312.796 26.638 312 26.638ZM312 24.638C312.265 24.638 312.52 24.5326 312.707 24.3451C312.895 24.1576 313 23.9032 313 23.638C313 23.3728 312.895 23.1184 312.707 22.9309C312.52 22.7434 312.265 22.638 312 22.638C311.735 22.638 311.48 22.7434 311.293 22.9309C311.105 23.1184 311 23.3728 311 23.638C311 23.9032 311.105 24.1576 311.293 24.3451C311.48 24.5326 311.735 24.638 312 24.638Z" fill="#FF3D5D"/>
</g>
<path d="M381.994 21.3403C382.2 21.3403 382.36 21.3867 382.473 21.4744C382.597 21.5621 382.654 21.6859 382.654 21.8354C382.654 21.8818 382.644 21.9541 382.623 22.0675C382.479 22.5523 382.148 22.7947 381.633 22.7947H380.673L379.436 26.8692C379.379 27.0343 379.353 27.2045 379.353 27.3798C379.353 27.5758 379.41 27.7151 379.518 27.7924C379.626 27.8698 379.781 27.9059 379.982 27.9059C380.158 27.9059 380.379 27.8853 380.642 27.8389C380.777 27.8079 380.89 27.7873 380.988 27.7873C381.065 27.7873 381.122 27.8131 381.153 27.8698C381.199 27.9162 381.22 27.973 381.22 28.0503C381.23 28.2721 381.065 28.5403 380.725 28.8601C380.395 29.1695 379.946 29.4377 379.374 29.6698C378.801 29.8916 378.167 29.9999 377.476 29.9999C376.728 29.9999 376.13 29.8297 375.676 29.4893C375.222 29.1489 375 28.6796 375 28.0864C375 27.8131 375.046 27.5449 375.134 27.2922L376.191 24.0222C376.248 23.8366 376.274 23.687 376.274 23.5787C376.274 23.3569 376.217 23.1712 376.109 23.0165C376.011 22.8618 375.866 22.7019 375.681 22.5369C375.516 22.3821 375.402 22.2583 375.335 22.1552C375.268 22.0469 375.253 21.9179 375.284 21.7735C375.33 21.6291 375.423 21.5208 375.562 21.4434C375.707 21.3661 375.928 21.33 376.238 21.33H377.161L378.203 20.2881C378.564 19.9271 378.894 19.6744 379.193 19.53C379.503 19.3856 379.9 19.3134 380.379 19.3134C381.07 19.3134 381.421 19.5764 381.421 20.1076C381.421 20.2727 381.401 20.4274 381.354 20.5718L381.122 21.33H381.999L381.994 21.3403ZM391.824 27.581C391.803 27.6274 391.793 27.6893 391.793 27.777C391.793 27.8543 391.809 27.9162 391.845 27.9575C391.891 28.0039 391.943 28.0245 392.01 28.0245C392.144 28.0245 392.252 27.9678 392.34 27.8595C392.438 27.7409 392.505 27.679 392.536 27.679C392.593 27.679 392.634 27.7151 392.67 27.7924C392.701 27.8595 392.721 27.942 392.721 28.04C392.732 28.3598 392.629 28.6744 392.407 28.9787C392.185 29.2778 391.86 29.5254 391.432 29.7214C391.014 29.9071 390.509 29.9999 389.916 29.9999C389.189 29.9999 388.611 29.8349 388.183 29.5048C387.755 29.1644 387.533 28.7105 387.523 28.1535C387.523 27.746 387.621 27.2922 387.822 26.7816L388.73 24.4039C388.786 24.2595 388.812 24.146 388.812 24.0583C388.812 23.9139 388.76 23.8056 388.662 23.7283C388.575 23.6406 388.466 23.5942 388.332 23.5942C388.126 23.5942 387.909 23.6922 387.688 23.8933C387.481 24.079 387.306 24.3884 387.177 24.8165V24.7856L386.135 28.138C386.104 28.2721 386.084 28.3856 386.084 28.4836C386.084 28.628 386.109 28.7414 386.166 28.8291C386.223 28.9065 386.3 28.9838 386.398 29.0612C386.476 29.1386 386.532 29.2056 386.563 29.2572C386.594 29.3036 386.599 29.3604 386.579 29.4377C386.522 29.5821 386.414 29.6853 386.249 29.7523C386.084 29.8194 385.831 29.8503 385.491 29.8503H381.726C381.442 29.8503 381.23 29.8039 381.096 29.7162C380.962 29.6182 380.921 29.4893 380.962 29.3346C381.009 29.2005 381.122 29.087 381.308 28.989C381.473 28.9013 381.612 28.7982 381.72 28.6744C381.829 28.5558 381.927 28.3598 381.999 28.0967L384.505 19.8601C384.536 19.7621 384.557 19.6796 384.557 19.6125C384.557 19.4939 384.526 19.3907 384.459 19.3134C384.402 19.236 384.325 19.1586 384.227 19.0813C384.119 18.9936 384.036 18.9162 383.979 18.8492C383.933 18.7821 383.928 18.6945 383.964 18.5861C384.031 18.3334 384.377 18.1116 385.006 17.926C385.635 17.7403 386.29 17.6475 386.971 17.6475C387.61 17.6475 388.074 17.7661 388.374 18.0085C388.683 18.2509 388.838 18.581 388.838 18.9988C388.838 19.2412 388.797 19.4784 388.724 19.7105L387.832 22.6142C388.26 22.052 388.714 21.6601 389.183 21.4434C389.668 21.2217 390.189 21.1134 390.751 21.1134C391.422 21.1134 391.963 21.3145 392.371 21.722C392.789 22.1294 393 22.6555 393 23.3053C393 23.6457 392.943 23.981 392.835 24.3111L391.829 27.5604L391.824 27.581Z" fill="#FF3D5D"/>
<rect x="385" y="7.64746" width="18.6667" height="8" rx="4" fill="#FF3D5D"/>
<path d="M389.263 13.6475L389.863 10.3475H390.938L391.718 12.6175L392.133 10.3475L392.688 10.3525L392.078 13.6475H390.933L390.213 11.4625L389.813 13.6475H389.263ZM394.813 12.8025C394.896 12.8591 394.938 12.9508 394.938 13.0775C394.938 13.2008 394.906 13.3025 394.843 13.3825C394.78 13.4625 394.696 13.5291 394.593 13.5825C394.38 13.6925 394.158 13.7475 393.928 13.7475C393.698 13.7475 393.515 13.7225 393.378 13.6725C393.245 13.6225 393.133 13.5508 393.043 13.4575C392.866 13.2808 392.778 13.0308 392.778 12.7075C392.778 12.2041 392.915 11.7991 393.188 11.4925C393.481 11.1625 393.883 10.9975 394.393 10.9975C394.71 10.9975 394.946 11.0641 395.103 11.1975C395.22 11.2975 395.278 11.4291 395.278 11.5925C395.278 12.1791 394.771 12.4725 393.758 12.4725C393.745 12.5591 393.738 12.6391 393.738 12.7125C393.738 12.8658 393.771 12.9725 393.838 13.0325C393.908 13.0891 394.006 13.1175 394.133 13.1175C394.26 13.1175 394.39 13.0891 394.523 13.0325C394.66 12.9725 394.756 12.8958 394.813 12.8025ZM393.793 12.2575C394.03 12.2575 394.216 12.1841 394.353 12.0375C394.49 11.8975 394.558 11.7158 394.558 11.4925C394.558 11.4158 394.543 11.3575 394.513 11.3175C394.486 11.2741 394.445 11.2525 394.388 11.2525C394.331 11.2525 394.278 11.2641 394.228 11.2875C394.181 11.3075 394.133 11.3541 394.083 11.4275C393.96 11.5941 393.863 11.8708 393.793 12.2575ZM399.154 12.8125C398.934 13.1158 398.718 13.3475 398.504 13.5075C398.294 13.6675 398.079 13.7475 397.859 13.7475C397.643 13.7475 397.496 13.7258 397.419 13.6825V12.5825C397.229 13.0891 396.964 13.4408 396.624 13.6375C396.501 13.7108 396.381 13.7475 396.264 13.7475C396.041 13.7475 395.881 13.7258 395.784 13.6825C395.761 12.9191 395.739 12.4325 395.719 12.2225C395.699 12.0091 395.681 11.8375 395.664 11.7075C395.631 11.4475 395.558 11.2641 395.444 11.1575C395.588 11.0508 395.759 10.9975 395.959 10.9975C396.346 10.9975 396.566 11.2375 396.619 11.7175C396.633 11.8308 396.639 11.9475 396.639 12.0675C396.639 12.2475 396.619 12.6508 396.579 13.2775C396.659 13.2408 396.741 13.1575 396.824 13.0275C396.911 12.8941 396.989 12.7375 397.059 12.5575C397.216 12.1408 397.294 11.7525 397.294 11.3925C397.294 11.3358 397.286 11.2775 397.269 11.2175C397.256 11.1575 397.241 11.1191 397.224 11.1025C397.341 11.0325 397.488 10.9975 397.664 10.9975C397.844 10.9975 397.976 11.0591 398.059 11.1825C398.146 11.3025 398.201 11.4741 398.224 11.6975C398.251 11.9808 398.264 12.2075 398.264 12.3775C398.264 12.6141 398.253 12.9075 398.229 13.2575C398.396 13.1375 398.548 12.8808 398.684 12.4875C398.821 12.0941 398.889 11.7575 398.889 11.4775C398.889 11.3541 398.879 11.2558 398.859 11.1825C398.969 11.0591 399.119 10.9975 399.309 10.9975C399.426 10.9975 399.526 11.0291 399.609 11.0925C399.696 11.1558 399.739 11.2475 399.739 11.3675C399.739 11.4841 399.721 11.6058 399.684 11.7325C399.651 11.8591 399.606 11.9875 399.549 12.1175C399.439 12.3775 399.308 12.6091 399.154 12.8125Z" fill="white"/>
<defs>
<clipPath id="clip0_502_431">
<rect width="48" height="48" fill="white"/>
</clipPath>
<clipPath id="clip1_502_431">
<rect width="48" height="48" fill="white" transform="translate(216)"/>
</clipPath>
<clipPath id="clip2_502_431">
<rect width="48" height="48" fill="white" transform="translate(288)"/>
</clipPath>
</defs>
</svg>
