<svg width="16" height="16" viewBox="0 0 16 16" fill="none" xmlns="http://www.w3.org/2000/svg">
<path d="M6.5 0.5C7.05228 0.5 7.5 0.947715 7.5 1.5V1.5C7.5 2.05228 7.05228 2.5 6.5 2.5H2.5V13.5H13.5V9.5C13.5 8.94772 13.9477 8.5 14.5 8.5V8.5C15.0523 8.5 15.5 8.94772 15.5 9.5V14.5C15.5 15.0523 15.0523 15.5 14.5 15.5H1.5C0.94772 15.5 0.5 15.0523 0.5 14.5V1.5C0.5 0.94772 0.94772 0.5 1.5 0.5H6.5ZM14.5 0.5C15.0523 0.5 15.5 0.947715 15.5 1.5V5.5C15.5 6.05228 15.0523 6.5 14.5 6.5V6.5C13.9477 6.5 13.5 6.05231 13.5 5.50004L13.4999 3.913L10.4142 6.99978C10.0237 7.3904 9.39045 7.39046 8.9999 6.9999V6.9999C8.60941 6.60942 8.60938 5.97634 8.99981 5.58581L12.0849 2.5H10.5C9.94772 2.5 9.5 2.05228 9.5 1.5V1.5C9.5 0.947715 9.94772 0.5 10.5 0.5H14.5Z" fill="#333333"/>
</svg>
