<svg width="576" height="78" viewBox="0 0 576 78" fill="none" xmlns="http://www.w3.org/2000/svg">
<path d="M16.4718 51.048C20.0558 51.048 22.8185 49.6293 24.7598 46.792C26.7758 43.88 28.2318 39.512 29.1278 33.688C29.9491 27.5653 29.7251 23.1227 28.4558 20.36C27.2611 17.5973 24.9091 16.216 21.3998 16.216C21.3998 16.216 20.7651 16.216 19.4958 16.216C18.8985 16.216 18.3011 16.2533 17.7038 16.328L12.7758 51.048C14.0451 51.048 15.2771 51.048 16.4718 51.048ZM8.07181 8.15201C8.07181 8.15201 12.5518 8.04001 21.5118 7.81601C25.0958 7.81601 28.1945 8.18934 30.8078 8.93601C33.4958 9.60801 35.6611 10.9147 37.3038 12.856C40.4398 16.7387 41.3731 23.6827 40.1038 33.688C38.2371 47.8 32.8238 56.0133 23.8638 58.328C21.0265 59.0747 17.9651 59.448 14.6798 59.448C11.3945 59.448 8.59447 59.3733 6.27981 59.224C3.96514 59.0747 2.17314 59 0.903809 59L8.07181 8.15201Z" fill="white"/>
<path d="M67.4067 35.816C67.9293 32.008 67.8173 29.3947 67.0707 27.976C66.324 26.5573 65.2413 25.848 63.8227 25.848C62.4787 25.848 61.0973 26.5947 59.6787 28.088C58.3347 29.5067 57.4013 32.0827 56.8787 35.816H67.4067ZM62.4787 52.056C65.764 52.056 69.0493 51.1227 72.3347 49.256L73.4547 56.2C71.6627 57.544 68.676 58.6267 64.4947 59.448C62.9267 59.8213 61.1347 60.008 59.1187 60.008C57.1027 60.008 55.124 59.6347 53.1827 58.888C51.316 58.1413 49.7853 56.984 48.5907 55.416C45.828 51.832 44.932 46.792 45.9027 40.296C46.8733 33.2773 49.188 27.7893 52.8467 23.832C56.2813 20.248 60.3133 18.456 64.9426 18.456C71.9613 18.456 76.1053 21.816 77.3747 28.536C78.0467 32.0453 77.7853 36.0773 76.5907 40.632C76.3667 41.6027 76.18 42.1627 76.0307 42.312H55.9827C55.46 45.7467 55.8333 48.248 57.1027 49.816C58.4467 51.3093 60.2387 52.056 62.4787 52.056Z" fill="white"/>
<path d="M84.0124 49.928C84.2364 50.0027 84.6471 50.1893 85.2444 50.488C85.8417 50.7867 86.5511 51.0853 87.3724 51.384C89.4631 52.056 91.2177 52.392 92.6364 52.392C94.0551 52.392 95.1751 52.168 95.9964 51.72C96.8924 51.1973 97.4151 50.3387 97.5644 49.144C97.7884 47.8747 97.6017 46.8293 97.0044 46.008C96.4071 45.112 95.6231 44.2533 94.6524 43.432C93.7564 42.6107 92.7484 41.7893 91.6284 40.968C90.5084 40.072 89.5004 39.064 88.6044 37.944C86.5137 35.48 85.6924 32.6053 86.1404 29.32C86.5884 26.0347 88.0817 23.4213 90.6204 21.48C93.2337 19.464 96.7057 18.456 101.036 18.456C104.396 18.456 107.644 18.9787 110.78 20.024L109.212 27.64C108.615 27.5653 107.57 27.304 106.076 26.856C104.658 26.408 103.127 26.184 101.484 26.184C98.3484 26.184 96.5937 27.2293 96.2204 29.32C96.0711 30.2907 96.2951 31.1867 96.8924 32.008C97.5644 32.7547 98.3857 33.5387 99.3564 34.36C100.327 35.1067 101.41 35.928 102.604 36.824C103.799 37.6453 104.882 38.5787 105.852 39.624C108.092 42.0133 108.951 44.8507 108.428 48.136C108.13 51.4213 106.711 54.2213 104.172 56.536C101.484 58.8507 97.8257 60.008 93.1964 60.008C90.1351 60.008 87.8204 59.7093 86.2524 59.112C83.5644 58.1413 81.8844 57.3947 81.2124 56.872L84.0124 49.928Z" fill="white"/>
<path d="M127.055 0.872009C128.772 0.872009 130.079 1.46934 130.975 2.66401C131.945 3.85868 132.281 5.38934 131.983 7.25601C131.759 9.04801 131.012 10.5413 129.743 11.736C128.473 12.856 126.98 13.416 125.263 13.416C123.62 13.416 122.313 12.856 121.343 11.736C120.372 10.5413 119.999 9.04801 120.223 7.25601C120.596 5.38934 121.417 3.85868 122.687 2.66401C123.956 1.46934 125.412 0.872009 127.055 0.872009ZM124.031 59H113.615L118.991 20.024L129.743 18.568L124.031 59Z" fill="white"/>
<path d="M147.255 48.696C147.554 49.592 148.039 50.2267 148.711 50.6C149.383 50.8987 150.316 51.048 151.511 51.048C152.706 51.048 153.938 50.6 155.207 49.704C156.476 48.808 157.484 47.912 158.231 47.016L160.359 31.224C159.164 29.7307 158.156 28.7227 157.335 28.2C156.514 27.6773 155.543 27.416 154.423 27.416C151.959 27.416 150.204 28.4613 149.159 30.552C148.188 32.568 147.479 35.592 147.031 39.624C146.359 43.5067 146.434 46.5307 147.255 48.696ZM138.967 68.072C142.327 69.192 145.575 69.752 148.711 69.752C150.802 69.752 152.258 69.4533 153.079 68.856C154.722 67.512 155.692 65.384 155.991 62.472L157.223 54.632H157.111C155.916 55.8267 154.311 57.0213 152.295 58.216C150.354 59.4107 148.338 60.008 146.247 60.008C144.231 60.008 142.476 59.6347 140.983 58.888C139.564 58.0667 138.407 56.8347 137.511 55.192C135.57 51.6827 135.084 46.8293 136.055 40.632C137.026 33.6133 139.154 28.1627 142.439 24.28C145.5 20.6213 148.972 18.792 152.855 18.792C155.095 18.792 156.887 19.352 158.231 20.472C159.65 21.5173 160.956 22.936 162.151 24.728L163.607 19.352H172.343L166.407 62.248C165.66 67.4747 163.943 71.32 161.255 73.784C158.567 76.3227 154.647 77.592 149.495 77.592C146.658 77.592 144.119 77.2933 141.879 76.696C139.714 76.0987 138.034 75.6133 136.839 75.24L138.967 68.072Z" fill="white"/>
<path d="M180.738 19.352H189.922L189.474 24.392H189.698C190.072 24.168 190.594 23.72 191.266 23.048C192.013 22.376 192.946 21.704 194.066 21.032C196.829 19.3147 199.554 18.456 202.242 18.456C205.976 18.456 208.44 19.576 209.634 21.816C210.829 24.056 211.09 27.528 210.418 32.232L206.61 59H196.418L199.666 34.808C200.04 31.9707 200.002 30.0667 199.554 29.096C199.106 28.0507 198.098 27.528 196.53 27.528C195.186 27.528 193.954 27.9387 192.834 28.76C190.744 30.4027 189.586 31.448 189.362 31.896L185.554 59H175.138L180.738 19.352Z" fill="white"/>
<path d="M236.145 35.816C236.668 32.008 236.556 29.3947 235.809 27.976C235.062 26.5573 233.98 25.848 232.561 25.848C231.217 25.848 229.836 26.5947 228.417 28.088C227.073 29.5067 226.14 32.0827 225.617 35.816H236.145ZM231.217 52.056C234.502 52.056 237.788 51.1227 241.073 49.256L242.193 56.2C240.401 57.544 237.414 58.6267 233.233 59.448C231.665 59.8213 229.873 60.008 227.857 60.008C225.841 60.008 223.862 59.6347 221.921 58.888C220.054 58.1413 218.524 56.984 217.329 55.416C214.566 51.832 213.67 46.792 214.641 40.296C215.612 33.2773 217.926 27.7893 221.585 23.832C225.02 20.248 229.052 18.456 233.681 18.456C240.7 18.456 244.844 21.816 246.113 28.536C246.785 32.0453 246.524 36.0773 245.329 40.632C245.105 41.6027 244.918 42.1627 244.769 42.312H224.721C224.198 45.7467 224.572 48.248 225.841 49.816C227.185 51.3093 228.977 52.056 231.217 52.056Z" fill="white"/>
<path d="M260.367 59H249.951L255.551 19.352H264.735L264.399 24.616H264.511C265.631 22.824 267.049 21.3307 268.767 20.136C270.484 18.9413 271.977 18.344 273.247 18.344C274.516 18.344 275.337 18.456 275.711 18.68C276.159 18.8293 276.569 18.9787 276.943 19.128L274.815 28.2C274.367 28.1253 273.769 27.976 273.023 27.752C272.351 27.528 271.567 27.416 270.671 27.416C269.775 27.416 268.841 27.7147 267.871 28.312C266.9 28.9093 265.668 29.88 264.175 31.224L260.367 59Z" fill="white"/>
<path d="M360.199 19.352L344.183 59H334.327L331.751 33.24L321.783 59H312.263L307.783 19.352H318.087L320.103 46.12L329.959 19.352H338.583L341.047 46.12L350.343 19.352H360.199Z" fill="white"/>
<path d="M370.144 3.44801L380.784 1.99201L377.648 24.392H377.76C378.058 24.168 378.544 23.72 379.216 23.048C379.888 22.376 380.709 21.704 381.68 21.032C384.144 19.3147 386.757 18.456 389.52 18.456C393.253 18.456 395.717 19.576 396.912 21.816C398.106 24.056 398.368 27.528 397.696 32.232L394.112 59H383.696L386.944 34.808C387.317 31.9707 387.317 30.0667 386.944 29.096C386.57 28.0507 385.562 27.528 383.92 27.528C382.501 27.528 381.232 27.9387 380.112 28.76C378.32 30.1787 377.162 31.224 376.64 31.896L372.832 59H362.416L370.144 3.44801Z" fill="white"/>
<path d="M417.202 52.392C419.442 52.392 421.197 51.3467 422.466 49.256C423.81 47.1653 424.781 43.8053 425.378 39.176C426.05 34.472 426.013 31.112 425.266 29.096C424.52 27.08 423.064 26.072 420.898 26.072C418.733 26.072 417.016 27.08 415.746 29.096C414.477 31.112 413.506 34.472 412.834 39.176C412.237 43.88 412.274 47.2773 412.946 49.368C413.618 51.384 415.037 52.392 417.202 52.392ZM436.354 29.656C436.802 32.2693 436.728 35.4427 436.13 39.176C435.608 42.9093 434.749 46.0827 433.554 48.696C432.434 51.3093 431.016 53.4747 429.298 55.192C426.088 58.4027 421.72 60.008 416.194 60.008C407.981 60.008 403.24 56.2373 401.97 48.696C401.522 46.0827 401.597 42.872 402.194 39.064C403.016 32.0453 405.293 26.7813 409.026 23.272C412.386 20.0613 416.68 18.456 421.906 18.456C430.269 18.456 435.085 22.1893 436.354 29.656Z" fill="white"/>
<path d="M495.057 27.752C492.593 26.9307 490.503 26.52 488.785 26.52C486.172 26.52 484.119 27.5653 482.625 29.656C481.132 31.672 480.049 34.9573 479.377 39.512C478.78 43.992 478.967 47.1653 479.937 49.032C480.983 50.824 482.439 51.72 484.305 51.72C486.247 51.72 487.927 51.4587 489.345 50.936C490.764 50.3387 491.735 49.9653 492.257 49.816L493.713 56.312C489.607 58.776 485.687 60.008 481.953 60.008C471.201 60.008 466.759 53.2507 468.625 39.736C470.492 25.5493 477.1 18.456 488.449 18.456C491.66 18.456 494.647 18.9787 497.409 20.024L495.057 27.752Z" fill="white"/>
<path d="M525.876 26.856C524.532 26.7067 522.777 26.632 520.612 26.632C518.447 26.632 516.617 27.528 515.124 29.32C513.705 31.112 512.66 34.36 511.988 39.064C511.391 43.6933 511.428 46.8667 512.1 48.584C512.847 50.3013 514.265 51.16 516.356 51.16C517.625 51.16 518.857 50.7867 520.052 50.04C521.321 49.2187 522.329 48.36 523.076 47.464L525.876 26.856ZM523.076 54.296C518.82 58.104 514.676 60.008 510.644 60.008C504.82 60.008 501.497 56.3867 500.676 49.144C500.377 46.6053 500.489 43.4693 501.012 39.736C501.535 35.928 502.431 32.68 503.7 29.992C504.969 27.304 506.463 25.1013 508.18 23.384C511.391 20.248 515.385 18.68 520.164 18.68C525.839 18.68 531.551 19.24 537.3 20.36L531.812 59H523.076V54.296Z" fill="white"/>
<path d="M545.941 19.352H555.125L554.677 24.392H554.901C555.275 24.168 555.797 23.72 556.469 23.048C557.216 22.376 558.149 21.704 559.269 21.032C562.032 19.3147 564.757 18.456 567.445 18.456C571.179 18.456 573.643 19.576 574.837 21.816C576.032 24.056 576.293 27.528 575.621 32.232L571.813 59H561.621L564.869 34.808C565.243 31.9707 565.205 30.0667 564.757 29.096C564.309 28.0507 563.301 27.528 561.733 27.528C560.389 27.528 559.157 27.9387 558.037 28.76C555.947 30.4027 554.789 31.448 554.565 31.896L550.757 59H540.341L545.941 19.352Z" fill="white"/>
</svg>
