<svg width="522" height="76" viewBox="0 0 522 76" fill="none" xmlns="http://www.w3.org/2000/svg">
<path d="M236.552 24.864C235.208 24.7147 233.453 24.64 231.288 24.64C229.123 24.64 227.293 25.536 225.8 27.328C224.381 29.12 223.336 32.368 222.664 37.072C222.067 41.7013 222.104 44.8747 222.776 46.592C223.523 48.3093 224.941 49.168 227.032 49.168C228.301 49.168 229.533 48.7947 230.728 48.048C231.997 47.2267 233.005 46.368 233.752 45.472L236.552 24.864ZM233.752 52.304C229.496 56.112 225.352 58.016 221.32 58.016C215.496 58.016 212.173 54.3947 211.352 47.152C211.053 44.6133 211.165 41.4773 211.688 37.744C212.211 33.936 213.107 30.688 214.376 28C215.645 25.312 217.139 23.1093 218.856 21.392C222.067 18.256 226.061 16.688 230.84 16.688C236.515 16.688 242.227 17.248 247.976 18.368L242.488 57.008H233.752V52.304Z" fill="white"/>
<path d="M256.617 17.36H265.801L265.353 22.4H265.577C265.95 22.176 266.473 21.728 267.145 21.056C267.892 20.384 268.825 19.712 269.945 19.04C272.708 17.3227 275.433 16.464 278.121 16.464C281.854 16.464 284.318 17.584 285.513 19.824C286.708 22.064 286.969 25.536 286.297 30.24L282.489 57.008H272.297L275.545 32.816C275.918 29.9787 275.881 28.0747 275.433 27.104C274.985 26.0587 273.977 25.536 272.409 25.536C271.065 25.536 269.833 25.9467 268.713 26.768C266.622 28.4107 265.465 29.456 265.241 29.904L261.433 57.008H251.017L256.617 17.36Z" fill="white"/>
<path d="M292.536 66.08C295.896 67.2 299.144 67.76 302.28 67.76C304.52 67.76 305.976 67.4613 306.648 66.864C308.067 65.5947 309.037 63.4667 309.56 60.48L310.904 51.968H310.68C306.723 55.9253 302.84 57.904 299.032 57.904C295.224 57.904 292.723 56.784 291.528 54.544C290.333 52.2293 290.035 48.72 290.632 44.016L294.44 17.36H304.968L301.496 41.44C301.197 44.576 301.16 46.48 301.384 47.152C301.907 48.272 302.952 48.832 304.52 48.832C306.312 48.832 308.365 47.7493 310.68 45.584C311.203 45.136 311.613 44.8 311.912 44.576L315.72 17.36H326.136L320.088 60.256C319.341 65.4827 317.624 69.328 314.936 71.792C312.248 74.3307 308.291 75.6 303.064 75.6C299.405 75.6 295.224 74.816 290.52 73.248L292.536 66.08Z" fill="white"/>
<path d="M381.445 17.36L365.429 57.008H355.573L352.997 31.248L343.029 57.008H333.509L329.029 17.36H339.333L341.349 44.128L351.205 17.36H359.829L362.293 44.128L371.589 17.36H381.445Z" fill="white"/>
<path d="M391.39 1.456L402.03 0L398.894 22.4H399.006C399.304 22.176 399.79 21.728 400.462 21.056C401.134 20.384 401.955 19.712 402.926 19.04C405.39 17.3227 408.003 16.464 410.766 16.464C414.499 16.464 416.963 17.584 418.158 19.824C419.352 22.064 419.614 25.536 418.942 30.24L415.358 57.008H404.942L408.19 32.816C408.563 29.9787 408.563 28.0747 408.19 27.104C407.816 26.0587 406.808 25.536 405.166 25.536C403.747 25.536 402.478 25.9467 401.358 26.768C399.566 28.1867 398.408 29.232 397.886 29.904L394.078 57.008H383.662L391.39 1.456Z" fill="white"/>
<path d="M444.833 33.824C445.355 30.016 445.243 27.4027 444.497 25.984C443.75 24.5653 442.667 23.856 441.249 23.856C439.905 23.856 438.523 24.6027 437.105 26.096C435.761 27.5147 434.827 30.0907 434.305 33.824H444.833ZM439.904 50.064C443.19 50.064 446.475 49.1307 449.76 47.264L450.881 54.208C449.089 55.552 446.102 56.6347 441.921 57.456C440.353 57.8293 438.561 58.016 436.545 58.016C434.529 58.016 432.55 57.6427 430.609 56.896C428.742 56.1493 427.211 54.992 426.017 53.424C423.254 49.84 422.358 44.8 423.329 38.304C424.299 31.2853 426.614 25.7973 430.273 21.84C433.707 18.256 437.739 16.464 442.368 16.464C449.387 16.464 453.531 19.824 454.801 26.544C455.473 30.0533 455.211 34.0853 454.016 38.64C453.792 39.6107 453.606 40.1707 453.456 40.32H433.409C432.886 43.7547 433.259 46.256 434.529 47.824C435.873 49.3173 437.664 50.064 439.904 50.064Z" fill="white"/>
<path d="M469.054 57.008H458.638L464.238 17.36H473.422L473.086 22.624H473.198C474.318 20.832 475.737 19.3387 477.454 18.144C479.172 16.9493 480.665 16.352 481.934 16.352C483.204 16.352 484.025 16.464 484.398 16.688C484.846 16.8373 485.257 16.9867 485.63 17.136L483.502 26.208C483.054 26.1333 482.457 25.984 481.71 25.76C481.038 25.536 480.254 25.424 479.358 25.424C478.462 25.424 477.529 25.7227 476.558 26.32C475.588 26.9173 474.356 27.888 472.862 29.232L469.054 57.008Z" fill="white"/>
<path d="M510.95 33.824C511.472 30.016 511.36 27.4027 510.614 25.984C509.867 24.5653 508.784 23.856 507.366 23.856C506.022 23.856 504.64 24.6027 503.222 26.096C501.878 27.5147 500.944 30.0907 500.422 33.824H510.95ZM506.022 50.064C509.307 50.064 512.592 49.1307 515.878 47.264L516.998 54.208C515.206 55.552 512.219 56.6347 508.038 57.456C506.47 57.8293 504.678 58.016 502.662 58.016C500.646 58.016 498.667 57.6427 496.726 56.896C494.859 56.1493 493.328 54.992 492.134 53.424C489.371 49.84 488.475 44.8 489.446 38.304C490.416 31.2853 492.731 25.7973 496.39 21.84C499.824 18.256 503.856 16.464 508.486 16.464C515.504 16.464 519.648 19.824 520.918 26.544C521.59 30.0533 521.328 34.0853 520.134 38.64C519.91 39.6107 519.723 40.1707 519.574 40.32H499.526C499.003 43.7547 499.376 46.256 500.646 47.824C501.99 49.3173 503.782 50.064 506.022 50.064Z" fill="white"/>
<path d="M12.0079 31.696C11.1119 37.8933 11.2612 42.3733 12.4559 45.136C13.7999 48.1227 16.5626 49.616 20.7439 49.616C22.6106 49.616 24.3279 49.3547 25.8959 48.832C27.5386 48.3093 28.7706 47.936 29.5919 47.712C29.6666 49.056 29.7039 50.4 29.7039 51.744C29.7039 53.088 29.7786 54.432 29.9279 55.776C28.0612 56.5227 25.9706 57.12 23.6559 57.568C21.3412 58.016 19.3626 58.24 17.7199 58.24C10.7759 58.24 5.88524 56.0747 3.0479 51.744C0.285237 47.4133 -0.46143 40.7307 0.807904 31.696C2.07724 22.5867 4.7279 15.904 8.7599 11.648C12.7919 7.392 18.2799 5.264 25.2239 5.264C27.5386 5.264 29.6292 5.488 31.4959 5.936C33.3626 6.384 34.5946 6.75733 35.1919 7.056C35.8639 7.35466 36.3492 7.54133 36.6479 7.616L34.0719 15.68C33.2506 15.456 32.0932 15.0827 30.5999 14.56C29.1812 14.0373 27.6132 13.776 25.8959 13.776C21.4159 13.776 18.1679 15.2693 16.1519 18.256C14.1359 21.168 12.7546 25.648 12.0079 31.696Z" fill="white"/>
<path d="M64.7378 17.36L63.8418 24.976H55.2178L52.5298 44.016C52.2311 45.7333 52.2311 47.0027 52.5298 47.824C52.8285 48.6453 53.5751 49.056 54.7698 49.056C56.0391 49.056 57.1218 48.9067 58.0178 48.608C58.9138 48.2347 59.5111 48.0107 59.8098 47.936V55.328C59.5111 55.4027 59.0631 55.5893 58.4658 55.888C57.8685 56.1867 57.1965 56.4853 56.4498 56.784C54.5831 57.6053 52.4925 58.016 50.1778 58.016C46.5938 58.016 44.1671 57.0827 42.8978 55.216C41.6285 53.2747 41.2925 50.0267 41.8898 45.472L44.9138 24.976H40.6578L41.6658 17.36H45.9218L47.2658 7.84L57.9058 6.16L56.2258 17.36H64.7378Z" fill="white"/>
<path d="M77.9801 57.008H67.5641L73.1641 17.36H82.3481L82.0121 22.624H82.1241C83.2441 20.832 84.6627 19.3387 86.3801 18.144C88.0974 16.9493 89.5907 16.352 90.8601 16.352C92.1294 16.352 92.9507 16.464 93.3241 16.688C93.7721 16.8373 94.1827 16.9867 94.5561 17.136L92.4281 26.208C91.9801 26.1333 91.3827 25.984 90.6361 25.76C89.9641 25.536 89.1801 25.424 88.2841 25.424C87.3881 25.424 86.4547 25.7227 85.4841 26.32C84.5134 26.9173 83.2814 27.888 81.7881 29.232L77.9801 57.008Z" fill="white"/>
<path d="M108.003 57.008H97.5875L105.315 1.456L115.955 0L108.003 57.008Z" fill="white"/>
<path d="M139.934 29.456H150.686L149.566 37.632H138.814L137.134 49.728H128.51L130.19 37.632H119.326L120.446 29.456H131.198L132.878 17.472H141.502L139.934 29.456Z" fill="white"/>
<path d="M185.445 14.896H175.141L169.205 57.008H158.453L164.277 14.896H153.861L154.981 6.16H186.789L185.445 14.896Z" fill="white"/>
</svg>
