<svg width="522" height="77" viewBox="0 0 522 77" fill="none" xmlns="http://www.w3.org/2000/svg">
<path d="M236.552 25.856C235.208 25.7067 233.453 25.632 231.288 25.632C229.123 25.632 227.293 26.528 225.8 28.32C224.381 30.112 223.336 33.36 222.664 38.064C222.067 42.6933 222.104 45.8667 222.776 47.584C223.523 49.3013 224.941 50.16 227.032 50.16C228.301 50.16 229.533 49.7867 230.728 49.04C231.997 48.2187 233.005 47.36 233.752 46.464L236.552 25.856ZM233.752 53.296C229.496 57.104 225.352 59.008 221.32 59.008C215.496 59.008 212.173 55.3867 211.352 48.144C211.053 45.6053 211.165 42.4693 211.688 38.736C212.211 34.928 213.107 31.68 214.376 28.992C215.645 26.304 217.139 24.1013 218.856 22.384C222.067 19.248 226.061 17.68 230.84 17.68C236.515 17.68 242.227 18.24 247.976 19.36L242.488 58H233.752V53.296Z" fill="white"/>
<path d="M256.617 18.352H265.801L265.353 23.392H265.577C265.95 23.168 266.473 22.72 267.145 22.048C267.892 21.376 268.825 20.704 269.945 20.032C272.708 18.3147 275.433 17.456 278.121 17.456C281.854 17.456 284.318 18.576 285.513 20.816C286.708 23.056 286.969 26.528 286.297 31.232L282.489 58H272.297L275.545 33.808C275.918 30.9707 275.881 29.0667 275.433 28.096C274.985 27.0507 273.977 26.528 272.409 26.528C271.065 26.528 269.833 26.9387 268.713 27.76C266.622 29.4027 265.465 30.448 265.241 30.896L261.433 58H251.017L256.617 18.352Z" fill="white"/>
<path d="M292.536 67.072C295.896 68.192 299.144 68.752 302.28 68.752C304.52 68.752 305.976 68.4533 306.648 67.856C308.067 66.5867 309.037 64.4587 309.56 61.472L310.904 52.96H310.68C306.723 56.9173 302.84 58.896 299.032 58.896C295.224 58.896 292.723 57.776 291.528 55.536C290.333 53.2213 290.035 49.712 290.632 45.008L294.44 18.352H304.968L301.496 42.432C301.197 45.568 301.16 47.472 301.384 48.144C301.907 49.264 302.952 49.824 304.52 49.824C306.312 49.824 308.365 48.7413 310.68 46.576C311.203 46.128 311.613 45.792 311.912 45.568L315.72 18.352H326.136L320.088 61.248C319.341 66.4747 317.624 70.32 314.936 72.784C312.248 75.3227 308.291 76.592 303.064 76.592C299.405 76.592 295.224 75.808 290.52 74.24L292.536 67.072Z" fill="white"/>
<path d="M381.445 18.352L365.429 58H355.573L352.997 32.24L343.029 58H333.509L329.029 18.352H339.333L341.349 45.12L351.205 18.352H359.829L362.293 45.12L371.589 18.352H381.445Z" fill="white"/>
<path d="M391.39 2.448L402.03 0.992004L398.894 23.392H399.006C399.304 23.168 399.79 22.72 400.462 22.048C401.134 21.376 401.955 20.704 402.926 20.032C405.39 18.3147 408.003 17.456 410.766 17.456C414.499 17.456 416.963 18.576 418.158 20.816C419.352 23.056 419.614 26.528 418.942 31.232L415.358 58H404.942L408.19 33.808C408.563 30.9707 408.563 29.0667 408.19 28.096C407.816 27.0507 406.808 26.528 405.166 26.528C403.747 26.528 402.478 26.9387 401.358 27.76C399.566 29.1787 398.408 30.224 397.886 30.896L394.078 58H383.662L391.39 2.448Z" fill="white"/>
<path d="M444.833 34.816C445.355 31.008 445.243 28.3947 444.497 26.976C443.75 25.5573 442.667 24.848 441.249 24.848C439.905 24.848 438.523 25.5947 437.105 27.088C435.761 28.5067 434.827 31.0827 434.305 34.816H444.833ZM439.904 51.056C443.19 51.056 446.475 50.1227 449.76 48.256L450.881 55.2C449.089 56.544 446.102 57.6267 441.921 58.448C440.353 58.8213 438.561 59.008 436.545 59.008C434.529 59.008 432.55 58.6347 430.609 57.888C428.742 57.1413 427.211 55.984 426.017 54.416C423.254 50.832 422.358 45.792 423.329 39.296C424.299 32.2773 426.614 26.7893 430.273 22.832C433.707 19.248 437.739 17.456 442.368 17.456C449.387 17.456 453.531 20.816 454.801 27.536C455.473 31.0453 455.211 35.0773 454.016 39.632C453.792 40.6027 453.606 41.1627 453.456 41.312H433.409C432.886 44.7467 433.259 47.248 434.529 48.816C435.873 50.3093 437.664 51.056 439.904 51.056Z" fill="white"/>
<path d="M469.054 58H458.638L464.238 18.352H473.422L473.086 23.616H473.198C474.318 21.824 475.737 20.3307 477.454 19.136C479.172 17.9413 480.665 17.344 481.934 17.344C483.204 17.344 484.025 17.456 484.398 17.68C484.846 17.8293 485.257 17.9787 485.63 18.128L483.502 27.2C483.054 27.1253 482.457 26.976 481.71 26.752C481.038 26.528 480.254 26.416 479.358 26.416C478.462 26.416 477.529 26.7147 476.558 27.312C475.588 27.9093 474.356 28.88 472.862 30.224L469.054 58Z" fill="white"/>
<path d="M510.95 34.816C511.472 31.008 511.36 28.3947 510.614 26.976C509.867 25.5573 508.784 24.848 507.366 24.848C506.022 24.848 504.64 25.5947 503.222 27.088C501.878 28.5067 500.944 31.0827 500.422 34.816H510.95ZM506.022 51.056C509.307 51.056 512.592 50.1227 515.878 48.256L516.998 55.2C515.206 56.544 512.219 57.6267 508.038 58.448C506.47 58.8213 504.678 59.008 502.662 59.008C500.646 59.008 498.667 58.6347 496.726 57.888C494.859 57.1413 493.328 55.984 492.134 54.416C489.371 50.832 488.475 45.792 489.446 39.296C490.416 32.2773 492.731 26.7893 496.39 22.832C499.824 19.248 503.856 17.456 508.486 17.456C515.504 17.456 519.648 20.816 520.918 27.536C521.59 31.0453 521.328 35.0773 520.134 39.632C519.91 40.6027 519.723 41.1627 519.574 41.312H499.526C499.003 44.7467 499.376 47.248 500.646 48.816C501.99 50.3093 503.782 51.056 506.022 51.056Z" fill="white"/>
<path d="M12.0079 32.688C11.1119 38.8853 11.2612 43.3653 12.4559 46.128C13.7999 49.1147 16.5626 50.608 20.7439 50.608C22.6106 50.608 24.3279 50.3467 25.8959 49.824C27.5386 49.3013 28.7706 48.928 29.5919 48.704C29.6666 50.048 29.7039 51.392 29.7039 52.736C29.7039 54.08 29.7786 55.424 29.9279 56.768C28.0612 57.5147 25.9706 58.112 23.6559 58.56C21.3412 59.008 19.3626 59.232 17.7199 59.232C10.7759 59.232 5.88524 57.0667 3.0479 52.736C0.285237 48.4053 -0.46143 41.7227 0.807904 32.688C2.07724 23.5787 4.7279 16.896 8.7599 12.64C12.7919 8.384 18.2799 6.256 25.2239 6.256C27.5386 6.256 29.6292 6.48 31.4959 6.928C33.3626 7.37601 34.5946 7.74934 35.1919 8.048C35.8639 8.34667 36.3492 8.53333 36.6479 8.608L34.0719 16.672C33.2506 16.448 32.0932 16.0747 30.5999 15.552C29.1812 15.0293 27.6132 14.768 25.8959 14.768C21.4159 14.768 18.1679 16.2613 16.1519 19.248C14.1359 22.16 12.7546 26.64 12.0079 32.688Z" fill="#C677EB"/>
<path d="M64.7378 18.352L63.8418 25.968H55.2178L52.5298 45.008C52.2311 46.7253 52.2311 47.9947 52.5298 48.816C52.8285 49.6373 53.5751 50.048 54.7698 50.048C56.0391 50.048 57.1218 49.8987 58.0178 49.6C58.9138 49.2267 59.5111 49.0027 59.8098 48.928V56.32C59.5111 56.3947 59.0631 56.5813 58.4658 56.88C57.8685 57.1787 57.1965 57.4773 56.4498 57.776C54.5831 58.5973 52.4925 59.008 50.1778 59.008C46.5938 59.008 44.1671 58.0747 42.8978 56.208C41.6285 54.2667 41.2925 51.0187 41.8898 46.464L44.9138 25.968H40.6578L41.6658 18.352H45.9218L47.2658 8.832L57.9058 7.152L56.2258 18.352H64.7378Z" fill="#C677EB"/>
<path d="M77.9801 58H67.5641L73.1641 18.352H82.3481L82.0121 23.616H82.1241C83.2441 21.824 84.6627 20.3307 86.3801 19.136C88.0974 17.9413 89.5907 17.344 90.8601 17.344C92.1294 17.344 92.9507 17.456 93.3241 17.68C93.7721 17.8293 94.1827 17.9787 94.5561 18.128L92.4281 27.2C91.9801 27.1253 91.3827 26.976 90.6361 26.752C89.9641 26.528 89.1801 26.416 88.2841 26.416C87.3881 26.416 86.4547 26.7147 85.4841 27.312C84.5134 27.9093 83.2814 28.88 81.7881 30.224L77.9801 58Z" fill="#C677EB"/>
<path d="M108.003 58H97.5875L105.315 2.448L115.955 0.992004L108.003 58Z" fill="#C677EB"/>
<path d="M139.934 30.448H150.686L149.566 38.624H138.814L137.134 50.72H128.51L130.19 38.624H119.326L120.446 30.448H131.198L132.878 18.464H141.502L139.934 30.448Z" fill="#C677EB"/>
<path d="M185.445 15.888H175.141L169.205 58H158.453L164.277 15.888H153.861L154.981 7.152H186.789L185.445 15.888Z" fill="#C677EB"/>
</svg>
