<svg width="32" height="32" viewBox="0 0 32 32" fill="none" xmlns="http://www.w3.org/2000/svg">
<g clip-path="url(#clip0_525_38101)">
<path d="M1.6533 32.0001C1.23178 32.0001 0.810266 31.8397 0.490008 31.5171C-0.152919 30.8742 -0.152919 29.8318 0.490008 29.1889L29.1967 0.482195C29.8396 -0.160732 30.882 -0.160732 31.5249 0.482195C32.1678 1.12512 32.1678 2.16747 31.5249 2.8108L2.81861 31.5171C2.49594 31.8377 2.07442 32.0001 1.6533 32.0001Z" fill="white"/>
<path d="M30.362 32.0001C29.9405 32.0001 29.5194 31.8397 29.1987 31.5171L0.490008 2.8108C-0.152919 2.16747 -0.152919 1.12512 0.490008 0.482195C1.13293 -0.160732 2.17528 -0.160732 2.81861 0.482195L31.5249 29.1889C32.1678 29.8318 32.1678 30.8742 31.5249 31.5171C31.2022 31.8377 30.7811 32.0001 30.362 32.0001Z" fill="white"/>
</g>
<defs>
<clipPath id="clip0_525_38101">
<rect width="32" height="32" fill="white"/>
</clipPath>
</defs>
</svg>
